<svg width="113" height="40" viewBox="0 0 113 40" fill="none" xmlns="http://www.w3.org/2000/svg">
<rect opacity="0.88" width="113" height="40" rx="8" fill="url(#paint0_radial_703_116749)"/>
<path d="M27.0713 8.2959H13.1781C10.5146 8.2959 8.34766 10.4493 8.34766 13.0962V26.903C8.34766 29.5499 10.5146 31.7033 13.1781 31.7033H27.0713C29.7348 31.7033 31.9017 29.5499 31.9017 26.903V13.0962C31.9017 10.4493 29.7348 8.2959 27.0713 8.2959ZM15.6002 26.3322C15.3874 26.6984 15 26.9034 14.6022 26.9034C14.4072 26.9034 14.2097 26.8542 14.0291 26.7505C13.4799 26.4354 13.291 25.7351 13.6081 25.1893L13.8343 24.7999H16.4903L15.6002 26.3322ZM13.4311 23.8856C12.7969 23.8856 12.281 23.3729 12.281 22.7427C12.281 22.1124 12.7969 21.5997 13.4311 21.5997H15.6935L18.7967 16.2583L17.9557 14.8107C17.6386 14.265 17.8274 13.5646 18.3766 13.2494H18.3766C18.9258 12.9344 19.6306 13.1221 19.9477 13.6678L20.1247 13.9725L20.3017 13.6679C20.6189 13.122 21.3237 12.9344 21.8728 13.2495C22.1388 13.4021 22.3291 13.6486 22.4086 13.9435C22.4882 14.2384 22.4473 14.5464 22.2937 14.8108L18.3495 21.5997H20.8374L22.1654 23.8856H13.4311ZM26.8183 23.8856H25.8839L26.6413 25.1892C26.9584 25.735 26.7695 26.4354 26.2204 26.7505C26.0431 26.8522 25.8464 26.9041 25.6471 26.9041C25.5472 26.9041 25.4467 26.8911 25.3476 26.8647C25.0508 26.7856 24.8028 26.5965 24.6492 26.3321L20.6559 19.4585L21.9839 17.1727L24.5559 21.5997H26.8183C27.4525 21.5997 27.9684 22.1124 27.9684 22.7427C27.9684 23.3729 27.4525 23.8856 26.8183 23.8856Z" fill="white"/>
<path d="M39.9024 15.296H39.2417L41.1526 10.0918H41.8031L43.714 15.296H43.0533L41.4982 10.9151H41.4575L39.9024 15.296ZM40.1463 13.2631H42.8094V13.8221H40.1463V13.2631Z" fill="white"/>
<path d="M47.1457 11.3929L45.7024 15.296H45.0925L43.6492 11.3929H44.2997L45.3771 14.5031H45.4178L46.4952 11.3929H47.1457Z" fill="white"/>
<path d="M48.967 15.3874C48.7197 15.3874 48.4952 15.3408 48.2936 15.2477C48.0921 15.1528 47.932 15.0164 47.8134 14.8386C47.6948 14.659 47.6355 14.4422 47.6355 14.188C47.6355 13.9644 47.6796 13.7832 47.7676 13.6443C47.8557 13.5036 47.9735 13.3935 48.1209 13.3139C48.2682 13.2343 48.4309 13.175 48.6087 13.136C48.7883 13.0954 48.9687 13.0632 49.15 13.0395C49.3872 13.009 49.5794 12.9861 49.7268 12.9709C49.8759 12.9539 49.9843 12.926 50.0521 12.887C50.1215 12.848 50.1563 12.7803 50.1563 12.6837V12.6634C50.1563 12.4127 50.0877 12.2179 49.9504 12.079C49.8149 11.94 49.6091 11.8706 49.333 11.8706C49.0467 11.8706 48.8222 11.9333 48.6596 12.0586C48.4969 12.184 48.3826 12.3178 48.3165 12.4601L47.7473 12.2568C47.849 12.0197 47.9845 11.835 48.1539 11.7029C48.325 11.569 48.5113 11.4759 48.7129 11.4234C48.9162 11.3691 49.1161 11.342 49.3126 11.342C49.438 11.342 49.582 11.3573 49.7446 11.3878C49.9089 11.4166 50.0673 11.4767 50.2198 11.5682C50.3739 11.6597 50.5018 11.7977 50.6035 11.9824C50.7051 12.167 50.756 12.4144 50.756 12.7244V15.296H50.1563V14.7674H50.1258C50.0851 14.8521 50.0173 14.9427 49.9225 15.0393C49.8276 15.1359 49.7014 15.218 49.5439 15.2858C49.3863 15.3536 49.194 15.3874 48.967 15.3874ZM49.0585 14.8487C49.2957 14.8487 49.4956 14.8021 49.6582 14.709C49.8225 14.6158 49.9462 14.4955 50.0292 14.3481C50.1139 14.2007 50.1563 14.0457 50.1563 13.8831V13.3342C50.1308 13.3647 50.0749 13.3927 49.9885 13.4181C49.9038 13.4418 49.8056 13.463 49.6938 13.4816C49.5837 13.4986 49.4761 13.5138 49.3711 13.5274C49.2677 13.5392 49.1839 13.5494 49.1195 13.5579C48.9636 13.5782 48.818 13.6112 48.6824 13.657C48.5486 13.701 48.4402 13.7679 48.3572 13.8577C48.2759 13.9458 48.2352 14.0661 48.2352 14.2185C48.2352 14.4269 48.3123 14.5845 48.4664 14.6912C48.6223 14.7962 48.8197 14.8487 49.0585 14.8487Z" fill="white"/>
<path d="M51.8505 15.296V11.3929H52.4502V15.296H51.8505ZM52.1555 10.7423C52.0386 10.7423 51.9378 10.7025 51.8531 10.6229C51.7701 10.5433 51.7286 10.4476 51.7286 10.3358C51.7286 10.224 51.7701 10.1283 51.8531 10.0486C51.9378 9.96901 52.0386 9.9292 52.1555 9.9292C52.2723 9.9292 52.3723 9.96901 52.4553 10.0486C52.54 10.1283 52.5824 10.224 52.5824 10.3358C52.5824 10.4476 52.54 10.5433 52.4553 10.6229C52.3723 10.7025 52.2723 10.7423 52.1555 10.7423Z" fill="white"/>
<path d="M54.1483 10.0918V15.296H53.5486V10.0918H54.1483Z" fill="white"/>
<path d="M56.3952 15.3874C56.1479 15.3874 55.9234 15.3408 55.7219 15.2477C55.5203 15.1528 55.3602 15.0164 55.2416 14.8386C55.123 14.659 55.0637 14.4422 55.0637 14.188C55.0637 13.9644 55.1078 13.7832 55.1958 13.6443C55.2839 13.5036 55.4017 13.3935 55.5491 13.3139C55.6964 13.2343 55.8591 13.175 56.0369 13.136C56.2165 13.0954 56.3969 13.0632 56.5782 13.0395C56.8154 13.009 57.0076 12.9861 57.155 12.9709C57.3041 12.9539 57.4125 12.926 57.4803 12.887C57.5497 12.848 57.5845 12.7803 57.5845 12.6837V12.6634C57.5845 12.4127 57.5159 12.2179 57.3786 12.079C57.2431 11.94 57.0373 11.8706 56.7612 11.8706C56.4749 11.8706 56.2504 11.9333 56.0878 12.0586C55.9251 12.184 55.8108 12.3178 55.7447 12.4601L55.1755 12.2568C55.2772 12.0197 55.4127 11.835 55.5821 11.7029C55.7532 11.569 55.9395 11.4759 56.1411 11.4234C56.3444 11.3691 56.5443 11.342 56.7408 11.342C56.8662 11.342 57.0102 11.3573 57.1728 11.3878C57.3371 11.4166 57.4955 11.4767 57.648 11.5682C57.8021 11.6597 57.93 11.7977 58.0317 11.9824C58.1333 12.167 58.1842 12.4144 58.1842 12.7244V15.296H57.5845V14.7674H57.554C57.5133 14.8521 57.4456 14.9427 57.3507 15.0393C57.2558 15.1359 57.1296 15.218 56.9721 15.2858C56.8145 15.3536 56.6222 15.3874 56.3952 15.3874ZM56.4867 14.8487C56.7239 14.8487 56.9238 14.8021 57.0864 14.709C57.2507 14.6158 57.3744 14.4955 57.4574 14.3481C57.5421 14.2007 57.5845 14.0457 57.5845 13.8831V13.3342C57.5591 13.3647 57.5031 13.3927 57.4168 13.4181C57.332 13.4418 57.2338 13.463 57.122 13.4816C57.0119 13.4986 56.9043 13.5138 56.7993 13.5274C56.6959 13.5392 56.6121 13.5494 56.5477 13.5579C56.3919 13.5782 56.2462 13.6112 56.1106 13.657C55.9768 13.701 55.8684 13.7679 55.7854 13.8577C55.7041 13.9458 55.6634 14.0661 55.6634 14.2185C55.6634 14.4269 55.7405 14.5845 55.8946 14.6912C56.0505 14.7962 56.2479 14.8487 56.4867 14.8487Z" fill="white"/>
<path d="M59.36 15.296V10.0918H59.9597V12.0129H60.0106C60.0546 11.9451 60.1156 11.8587 60.1935 11.7537C60.2731 11.647 60.3866 11.5521 60.534 11.4691C60.6831 11.3844 60.8847 11.342 61.1388 11.342C61.4674 11.342 61.7571 11.4242 62.0078 11.5885C62.2586 11.7528 62.4542 11.9858 62.5948 12.2873C62.7354 12.5889 62.8057 12.9446 62.8057 13.3546C62.8057 13.7679 62.7354 14.1262 62.5948 14.4294C62.4542 14.731 62.2594 14.9648 62.0104 15.1308C61.7614 15.2951 61.4742 15.3773 61.149 15.3773C60.8982 15.3773 60.6975 15.3358 60.5467 15.2528C60.396 15.1681 60.2799 15.0723 60.1986 14.9656C60.1173 14.8572 60.0546 14.7674 60.0106 14.6963H59.9394V15.296H59.36ZM59.9496 13.3444C59.9496 13.6392 59.9928 13.8992 60.0792 14.1245C60.1656 14.3481 60.2918 14.5235 60.4578 14.6505C60.6238 14.7759 60.8271 14.8386 61.0676 14.8386C61.3184 14.8386 61.5276 14.7725 61.6953 14.6404C61.8647 14.5065 61.9917 14.327 62.0765 14.1016C62.1628 13.8746 62.206 13.6222 62.206 13.3444C62.206 13.07 62.1637 12.8226 62.079 12.6024C61.996 12.3805 61.8698 12.2052 61.7004 12.0764C61.5327 11.946 61.3218 11.8807 61.0676 11.8807C60.8237 11.8807 60.6187 11.9426 60.4527 12.0662C60.2867 12.1882 60.1613 12.3593 60.0766 12.5795C59.9919 12.7981 59.9496 13.053 59.9496 13.3444Z" fill="white"/>
<path d="M64.3228 10.0918V15.296H63.7231V10.0918H64.3228Z" fill="white"/>
<path d="M67.0576 15.3773C66.6815 15.3773 66.3571 15.2943 66.0844 15.1282C65.8133 14.9605 65.6041 14.7268 65.4567 14.4269C65.311 14.1254 65.2382 13.7747 65.2382 13.3749C65.2382 12.9751 65.311 12.6227 65.4567 12.3178C65.6041 12.0112 65.8091 11.7723 66.0717 11.6012C66.3359 11.4284 66.6443 11.342 66.9966 11.342C67.1999 11.342 67.4006 11.3759 67.5988 11.4437C67.7971 11.5114 67.9775 11.6216 68.1401 11.774C68.3027 11.9248 68.4323 12.1247 68.5289 12.3737C68.6254 12.6227 68.6737 12.9294 68.6737 13.2936V13.5477H65.6651V13.0293H68.0639C68.0639 12.8091 68.0198 12.6126 67.9317 12.4398C67.8453 12.267 67.7217 12.1306 67.5607 12.0307C67.4015 11.9307 67.2135 11.8807 66.9966 11.8807C66.7578 11.8807 66.5511 11.94 66.3766 12.0586C66.2038 12.1755 66.0708 12.328 65.9776 12.516C65.8845 12.7041 65.8379 12.9056 65.8379 13.1208V13.4664C65.8379 13.7611 65.8887 14.011 65.9903 14.216C66.0937 14.4193 66.2368 14.5743 66.4198 14.681C66.6027 14.786 66.8153 14.8386 67.0576 14.8386C67.2151 14.8386 67.3574 14.8165 67.4845 14.7725C67.6132 14.7268 67.7242 14.659 67.8174 14.5692C67.9106 14.4777 67.9826 14.3642 68.0334 14.2287L68.6127 14.3913C68.5518 14.5878 68.4493 14.7606 68.3053 14.9097C68.1613 15.0571 67.9834 15.1723 67.7716 15.2553C67.5599 15.3366 67.3219 15.3773 67.0576 15.3773Z" fill="white"/>
<path d="M73.1841 15.3773C72.8318 15.3773 72.5226 15.2934 72.2566 15.1257C71.9924 14.958 71.7857 14.7234 71.6366 14.4218C71.4892 14.1203 71.4155 13.7679 71.4155 13.3647C71.4155 12.9582 71.4892 12.6033 71.6366 12.3C71.7857 11.9968 71.9924 11.7613 72.2566 11.5936C72.5226 11.4259 72.8318 11.342 73.1841 11.342C73.5365 11.342 73.8448 11.4259 74.1091 11.5936C74.375 11.7613 74.5817 11.9968 74.7291 12.3C74.8782 12.6033 74.9527 12.9582 74.9527 13.3647C74.9527 13.7679 74.8782 14.1203 74.7291 14.4218C74.5817 14.7234 74.375 14.958 74.1091 15.1257C73.8448 15.2934 73.5365 15.3773 73.1841 15.3773ZM73.1841 14.8386C73.4518 14.8386 73.672 14.77 73.8448 14.6327C74.0176 14.4955 74.1455 14.3151 74.2285 14.0915C74.3115 13.8679 74.353 13.6256 74.353 13.3647C74.353 13.1039 74.3115 12.8608 74.2285 12.6354C74.1455 12.4101 74.0176 12.228 73.8448 12.0891C73.672 11.9502 73.4518 11.8807 73.1841 11.8807C72.9165 11.8807 72.6962 11.9502 72.5235 12.0891C72.3507 12.228 72.2228 12.4101 72.1398 12.6354C72.0567 12.8608 72.0152 13.1039 72.0152 13.3647C72.0152 13.6256 72.0567 13.8679 72.1398 14.0915C72.2228 14.3151 72.3507 14.4955 72.5235 14.6327C72.6962 14.77 72.9165 14.8386 73.1841 14.8386Z" fill="white"/>
<path d="M76.4678 12.948V15.296H75.8681V11.3929H76.4475V12.0027H76.4983C76.5898 11.8045 76.7287 11.6453 76.9151 11.525C77.1014 11.403 77.342 11.342 77.6367 11.342C77.901 11.342 78.1322 11.3962 78.3305 11.5047C78.5287 11.6114 78.6828 11.774 78.7929 11.9926C78.903 12.2094 78.9581 12.4838 78.9581 12.8159V15.296H78.3584V12.8565C78.3584 12.5499 78.2788 12.311 78.1195 12.1399C77.9603 11.9671 77.7418 11.8807 77.4639 11.8807C77.2725 11.8807 77.1014 11.9223 76.9506 12.0053C76.8016 12.0883 76.6838 12.2094 76.5974 12.3686C76.511 12.5279 76.4678 12.721 76.4678 12.948Z" fill="white"/>
<path d="M83.7639 11.3929V11.9011H81.7412V11.3929H83.7639ZM82.3307 10.4577H82.9304V14.1779C82.9304 14.3473 82.955 14.4743 83.0041 14.559C83.055 14.642 83.1193 14.698 83.1973 14.7268C83.2769 14.7539 83.3607 14.7674 83.4488 14.7674C83.5149 14.7674 83.5691 14.764 83.6114 14.7572C83.6538 14.7488 83.6877 14.742 83.7131 14.7369L83.8351 15.2756C83.7944 15.2909 83.7377 15.3061 83.6648 15.3214C83.592 15.3383 83.4996 15.3468 83.3878 15.3468C83.2184 15.3468 83.0524 15.3104 82.8898 15.2375C82.7288 15.1647 82.595 15.0537 82.4883 14.9046C82.3833 14.7556 82.3307 14.5675 82.3307 14.3405V10.4577Z" fill="white"/>
<path d="M85.3495 12.948V15.296H84.7498V10.0918H85.3495V12.0027H85.4004C85.4918 11.8011 85.6291 11.641 85.812 11.5225C85.9967 11.4022 86.2423 11.342 86.5489 11.342C86.8149 11.342 87.0478 11.3954 87.2477 11.5021C87.4476 11.6072 87.6026 11.7689 87.7127 11.9875C87.8246 12.2043 87.8805 12.4804 87.8805 12.8159V15.296H87.2808V12.8565C87.2808 12.5465 87.2003 12.3068 87.0394 12.1374C86.8801 11.9663 86.659 11.8807 86.3761 11.8807C86.1796 11.8807 86.0034 11.9223 85.8476 12.0053C85.6934 12.0883 85.5715 12.2094 85.4817 12.3686C85.3936 12.5279 85.3495 12.721 85.3495 12.948Z" fill="white"/>
<path d="M90.614 15.3773C90.2379 15.3773 89.9135 15.2943 89.6408 15.1282C89.3697 14.9605 89.1605 14.7268 89.0131 14.4269C88.8675 14.1254 88.7946 13.7747 88.7946 13.3749C88.7946 12.9751 88.8675 12.6227 89.0131 12.3178C89.1605 12.0112 89.3655 11.7723 89.6281 11.6012C89.8923 11.4284 90.2007 11.342 90.553 11.342C90.7563 11.342 90.9571 11.3759 91.1553 11.4437C91.3535 11.5114 91.5339 11.6216 91.6965 11.774C91.8591 11.9248 91.9887 12.1247 92.0853 12.3737C92.1819 12.6227 92.2301 12.9294 92.2301 13.2936V13.5477H89.2215V13.0293H91.6203C91.6203 12.8091 91.5762 12.6126 91.4881 12.4398C91.4018 12.267 91.2781 12.1306 91.1172 12.0307C90.9579 11.9307 90.7699 11.8807 90.553 11.8807C90.3142 11.8807 90.1075 11.94 89.933 12.0586C89.7602 12.1755 89.6272 12.328 89.5341 12.516C89.4409 12.7041 89.3943 12.9056 89.3943 13.1208V13.4664C89.3943 13.7611 89.4451 14.011 89.5468 14.216C89.6501 14.4193 89.7933 14.5743 89.9762 14.681C90.1592 14.786 90.3718 14.8386 90.614 14.8386C90.7716 14.8386 90.9139 14.8165 91.0409 14.7725C91.1697 14.7268 91.2806 14.659 91.3738 14.5692C91.467 14.4777 91.539 14.3642 91.5898 14.2287L92.1692 14.3913C92.1082 14.5878 92.0057 14.7606 91.8617 14.9097C91.7177 15.0571 91.5398 15.1723 91.3281 15.2553C91.1163 15.3366 90.8783 15.3773 90.614 15.3773Z" fill="white"/>
<path d="M40.8312 28.6658H39.3218L42.07 20.8597H43.8157L46.5677 28.6658H45.0583L42.9733 22.4605H42.9123L40.8312 28.6658ZM40.8807 25.6051H44.9973V26.741H40.8807V25.6051Z" fill="white"/>
<path d="M47.5349 30.8613V22.8112H48.8918V23.7794H48.9718C49.043 23.6371 49.1434 23.4859 49.273 23.3258C49.4025 23.1631 49.5779 23.0247 49.799 22.9103C50.02 22.7934 50.3021 22.735 50.6451 22.735C51.0974 22.735 51.5053 22.8506 51.8687 23.0818C52.2346 23.3105 52.5243 23.6498 52.7377 24.0995C52.9537 24.5468 53.0617 25.0956 53.0617 25.7461C53.0617 26.389 52.9562 26.9354 52.7453 27.3851C52.5344 27.8349 52.2473 28.178 51.8839 28.4143C51.5205 28.6506 51.1089 28.7688 50.6489 28.7688C50.3135 28.7688 50.0353 28.7129 49.8142 28.601C49.5931 28.4892 49.4153 28.3546 49.2806 28.197C49.1484 28.0369 49.0455 27.8857 48.9718 27.7434H48.9147V30.8613H47.5349ZM48.888 25.7385C48.888 26.1171 48.9413 26.4488 49.0481 26.7334C49.1573 27.018 49.3136 27.2403 49.5169 27.4004C49.7227 27.5579 49.9717 27.6367 50.264 27.6367C50.5689 27.6367 50.8243 27.5554 51.0301 27.3928C51.2359 27.2276 51.3909 27.0027 51.4951 26.7181C51.6019 26.431 51.6552 26.1044 51.6552 25.7385C51.6552 25.3751 51.6031 25.0524 51.4989 24.7704C51.3948 24.4883 51.2397 24.2672 51.0339 24.1072C50.8281 23.9471 50.5714 23.867 50.264 23.867C49.9692 23.867 49.7189 23.9445 49.5131 24.0995C49.3073 24.2545 49.151 24.4718 49.0443 24.7513C48.9401 25.0308 48.888 25.3599 48.888 25.7385Z" fill="white"/>
<path d="M54.2433 30.8613V22.8112H55.6002V23.7794H55.6803C55.7514 23.6371 55.8518 23.4859 55.9814 23.3258C56.111 23.1631 56.2863 23.0247 56.5074 22.9103C56.7285 22.7934 57.0105 22.735 57.3536 22.735C57.8059 22.735 58.2137 22.8506 58.5771 23.0818C58.943 23.3105 59.2327 23.6498 59.4462 24.0995C59.6621 24.5468 59.7701 25.0956 59.7701 25.7461C59.7701 26.389 59.6647 26.9354 59.4538 27.3851C59.2429 27.8349 58.9557 28.178 58.5924 28.4143C58.229 28.6506 57.8173 28.7688 57.3574 28.7688C57.022 28.7688 56.7437 28.7129 56.5226 28.601C56.3016 28.4892 56.1237 28.3546 55.989 28.197C55.8569 28.0369 55.754 27.8857 55.6803 27.7434H55.6231V30.8613H54.2433ZM55.5964 25.7385C55.5964 26.1171 55.6498 26.4488 55.7565 26.7334C55.8658 27.018 56.0221 27.2403 56.2253 27.4004C56.4312 27.5579 56.6802 27.6367 56.9724 27.6367C57.2773 27.6367 57.5327 27.5554 57.7386 27.3928C57.9444 27.2276 58.0994 27.0027 58.2036 26.7181C58.3103 26.431 58.3637 26.1044 58.3637 25.7385C58.3637 25.3751 58.3116 25.0524 58.2074 24.7704C58.1032 24.4883 57.9482 24.2672 57.7424 24.1072C57.5365 23.9471 57.2799 23.867 56.9724 23.867C56.6777 23.867 56.4274 23.9445 56.2215 24.0995C56.0157 24.2545 55.8594 24.4718 55.7527 24.7513C55.6485 25.0308 55.5964 25.3599 55.5964 25.7385Z" fill="white"/>
<path d="M67.9175 23.0056C67.8819 22.6727 67.732 22.4135 67.4677 22.228C67.206 22.0425 66.8655 21.9498 66.4462 21.9498C66.1514 21.9498 65.8986 21.9942 65.6877 22.0832C65.4768 22.1721 65.3154 22.2928 65.2036 22.4453C65.0918 22.5978 65.0346 22.7718 65.0321 22.9675C65.0321 23.1301 65.0689 23.2711 65.1426 23.3906C65.2188 23.51 65.3218 23.6116 65.4514 23.6955C65.5809 23.7768 65.7245 23.8454 65.8821 23.9013C66.0396 23.9572 66.1984 24.0042 66.3585 24.0424L67.0903 24.2253C67.3851 24.2939 67.6684 24.3867 67.9403 24.5036C68.2148 24.6204 68.46 24.7678 68.676 24.9457C68.8945 25.1236 69.0673 25.3383 69.1944 25.5899C69.3214 25.8414 69.3849 26.1362 69.3849 26.4742C69.3849 26.9316 69.2681 27.3343 69.0343 27.6824C68.8005 28.028 68.4625 28.2987 68.0204 28.4943C67.5808 28.6874 67.0484 28.784 66.4233 28.784C65.816 28.784 65.2887 28.69 64.8415 28.5019C64.3968 28.3139 64.0487 28.0395 63.7971 27.6786C63.5481 27.3178 63.4134 26.8782 63.3931 26.3598H64.7843C64.8047 26.6317 64.8885 26.8579 65.0359 27.0383C65.1833 27.2187 65.3751 27.3534 65.6114 27.4423C65.8503 27.5313 66.1171 27.5757 66.4119 27.5757C66.7194 27.5757 66.9887 27.53 67.2199 27.4385C67.4537 27.3445 67.6367 27.2149 67.7688 27.0497C67.901 26.882 67.9683 26.6863 67.9708 26.4627C67.9683 26.2594 67.9086 26.0917 67.7917 25.9596C67.6748 25.8249 67.5109 25.7131 67.3 25.6242C67.0916 25.5327 66.8477 25.4514 66.5682 25.3802L65.6801 25.1515C65.0372 24.9864 64.5289 24.7361 64.1554 24.4006C63.7844 24.0627 63.5989 23.6142 63.5989 23.0551C63.5989 22.5952 63.7234 22.1925 63.9724 21.8469C64.224 21.5013 64.5658 21.2332 64.9978 21.0426C65.4298 20.8495 65.9189 20.7529 66.4652 20.7529C67.0192 20.7529 67.5045 20.8495 67.9213 21.0426C68.3406 21.2332 68.6696 21.4987 68.9085 21.8392C69.1474 22.1772 69.2706 22.566 69.2782 23.0056H67.9175Z" fill="white"/>
<path d="M73.5082 22.8112V23.8785H70.1425V22.8112H73.5082ZM70.9734 21.4085H72.3532V26.9049C72.3532 27.0904 72.3812 27.2327 72.4371 27.3318C72.4955 27.4283 72.5718 27.4944 72.6658 27.53C72.7598 27.5656 72.864 27.5833 72.9783 27.5833C73.0647 27.5833 73.1435 27.577 73.2147 27.5643C73.2884 27.5516 73.3443 27.5401 73.3824 27.53L73.6149 28.6087C73.5412 28.6341 73.4357 28.662 73.2985 28.6925C73.1638 28.723 72.9987 28.7408 72.803 28.7459C72.4574 28.7561 72.1461 28.704 71.8692 28.5896C71.5922 28.4727 71.3724 28.2923 71.2098 28.0484C71.0497 27.8044 70.9709 27.4995 70.9734 27.1336V21.4085Z" fill="white"/>
<path d="M77.153 28.7802C76.5813 28.7802 76.0858 28.6544 75.6665 28.4028C75.2472 28.1513 74.922 27.7993 74.6907 27.347C74.462 26.8947 74.3477 26.3662 74.3477 25.7614C74.3477 25.1566 74.462 24.6268 74.6907 24.1719C74.922 23.7171 75.2472 23.3639 75.6665 23.1123C76.0858 22.8608 76.5813 22.735 77.153 22.735C77.7248 22.735 78.2203 22.8608 78.6395 23.1123C79.0588 23.3639 79.3828 23.7171 79.6115 24.1719C79.8427 24.6268 79.9584 25.1566 79.9584 25.7614C79.9584 26.3662 79.8427 26.8947 79.6115 27.347C79.3828 27.7993 79.0588 28.1513 78.6395 28.4028C78.2203 28.6544 77.7248 28.7802 77.153 28.7802ZM77.1606 27.6748C77.4707 27.6748 77.7298 27.5897 77.9382 27.4194C78.1466 27.2467 78.3016 27.0154 78.4032 26.7257C78.5074 26.436 78.5595 26.1133 78.5595 25.7576C78.5595 25.3993 78.5074 25.0753 78.4032 24.7856C78.3016 24.4934 78.1466 24.2609 77.9382 24.0881C77.7298 23.9153 77.4707 23.8289 77.1606 23.8289C76.843 23.8289 76.5787 23.9153 76.3678 24.0881C76.1595 24.2609 76.0032 24.4934 75.899 24.7856C75.7974 25.0753 75.7465 25.3993 75.7465 25.7576C75.7465 26.1133 75.7974 26.436 75.899 26.7257C76.0032 27.0154 76.1595 27.2467 76.3678 27.4194C76.5787 27.5897 76.843 27.6748 77.1606 27.6748Z" fill="white"/>
<path d="M81.1295 28.6658V22.8112H82.4674V23.787H82.5283C82.6351 23.449 82.818 23.1886 83.0772 23.0056C83.339 22.8201 83.6375 22.7273 83.9729 22.7273C84.0492 22.7273 84.1343 22.7312 84.2283 22.7388C84.3249 22.7439 84.4049 22.7528 84.4685 22.7655V24.0347C84.41 24.0144 84.3173 23.9966 84.1902 23.9814C84.0657 23.9636 83.945 23.9547 83.8281 23.9547C83.5765 23.9547 83.3504 24.0093 83.1496 24.1186C82.9514 24.2253 82.7952 24.374 82.6808 24.5645C82.5665 24.7551 82.5093 24.9749 82.5093 25.224V28.6658H81.1295Z" fill="white"/>
<path d="M87.736 28.7802C87.149 28.7802 86.642 28.6582 86.2151 28.4143C85.7908 28.1678 85.4642 27.8197 85.2355 27.3699C85.0068 26.9176 84.8925 26.3852 84.8925 25.7728C84.8925 25.1706 85.0068 24.642 85.2355 24.1872C85.4668 23.7298 85.7895 23.3741 86.2037 23.1199C86.6179 22.8633 87.1045 22.735 87.6635 22.735C88.0244 22.735 88.3649 22.7934 88.6851 22.9103C89.0078 23.0247 89.2924 23.2025 89.5389 23.4439C89.7879 23.6853 89.9836 23.9928 90.1259 24.3663C90.2682 24.7373 90.3393 25.1795 90.3393 25.6928V26.1159H85.5405V25.1858H89.0167C89.0141 24.9216 88.957 24.6865 88.8451 24.4807C88.7333 24.2723 88.5771 24.1084 88.3763 23.989C88.1781 23.8696 87.9469 23.8098 87.6826 23.8098C87.4005 23.8098 87.1528 23.8785 86.9393 24.0157C86.7259 24.1504 86.5594 24.3282 86.44 24.5493C86.3231 24.7678 86.2634 25.008 86.2609 25.2697V26.0816C86.2609 26.4221 86.3231 26.7143 86.4476 26.9582C86.5722 27.1996 86.7462 27.3851 86.9698 27.5147C87.1934 27.6418 87.4552 27.7053 87.755 27.7053C87.9558 27.7053 88.1375 27.6774 88.3001 27.6215C88.4627 27.563 88.6037 27.4779 88.7232 27.3661C88.8426 27.2543 88.9328 27.1158 88.9938 26.9506L90.2821 27.0955C90.2008 27.436 90.0458 27.7333 89.8171 27.9874C89.591 28.2389 89.3013 28.4346 88.9481 28.5744C88.5949 28.7116 88.1908 28.7802 87.736 28.7802Z" fill="white"/>
<defs>
<radialGradient id="paint0_radial_703_116749" cx="0" cy="0" r="1" gradientTransform="matrix(8.86673 38.2054 -107.93 3.13867 56.5 20)" gradientUnits="userSpaceOnUse">
<stop stop-color="#C1C1C1"/>
<stop offset="1" stop-color="#EDEDED"/>
</radialGradient>
</defs>
</svg>
