<svg width="16" height="16" viewBox="0 0 16 16" fill="none" xmlns="http://www.w3.org/2000/svg">
<path d="M8 16C3.58878 16 0 12.4112 0 8C0 3.58878 3.58878 0 8 0C12.4112 0 16 3.58878 16 8C16 12.4112 12.4112 16 8 16Z" fill="#FFD23B"/>
<path d="M8 0V16C12.4112 16 16 12.4112 16 8C16 3.58878 12.4112 0 8 0Z" fill="#FFB24A"/>
<path d="M8.00423 13.3748C6.69361 13.3748 5.46098 12.6764 4.78742 11.5521C4.65436 11.33 4.72655 11.0422 4.94861 10.9091C5.1707 10.776 5.45855 10.8482 5.59161 11.0703C6.09679 11.9135 7.02126 12.4373 8.00423 12.4373C8.98997 12.4373 9.91578 11.9112 10.4203 11.0644C10.5528 10.842 10.8405 10.769 11.0629 10.9016C11.2853 11.0341 11.3582 11.3218 11.2257 11.5442C10.553 12.6734 9.31857 13.3748 8.00423 13.3748Z" fill="#2D3E53"/>
<path d="M9.30223 7.2509C9.02667 7.2509 8.80327 7.02749 8.80327 6.75193V6.68543C8.80327 6.39196 8.56452 6.15321 8.27105 6.15321H7.74255C7.44909 6.15321 7.21034 6.39196 7.21034 6.68543V6.74477C7.21034 7.02034 6.98693 7.24374 6.71137 7.24374C6.43581 7.24374 6.2124 7.02034 6.2124 6.74477V6.68543C6.2124 5.84171 6.89884 5.15527 7.74255 5.15527H8.27105C9.11477 5.15527 9.8012 5.84171 9.8012 6.68543V6.75193C9.8012 7.02752 9.5778 7.2509 9.30223 7.2509Z" fill="#2D3E53"/>
<path fill-rule="evenodd" clip-rule="evenodd" d="M3.26906 5.0625H6.46814C6.60982 5.0625 6.73179 5.11859 6.82401 5.22616C6.91623 5.33372 6.95301 5.46284 6.93136 5.60287C6.8472 6.14718 6.76314 6.59527 6.67923 7.2257C6.6127 7.72564 6.19235 8.09373 5.68798 8.09373C5.14157 8.09373 4.59516 8.09373 4.04875 8.09373C3.54444 8.09373 3.12419 7.72576 3.05753 7.22592C2.97347 6.59533 2.88959 6.14712 2.80578 5.60256C2.78425 5.46256 2.82109 5.33356 2.91328 5.22606C3.0055 5.11856 3.12741 5.0625 3.26906 5.0625Z" fill="#4E5D6F"/>
<path d="M5.68595 8.56251H4.04673C3.30164 8.56251 2.68936 8.02645 2.59089 7.28788C2.53695 6.88354 2.48192 6.54788 2.42867 6.22332C2.3998 6.04741 2.36998 5.86557 2.34048 5.67391C2.2982 5.39928 2.37458 5.13188 2.55545 4.92091C2.73648 4.70991 2.98917 4.59375 3.26705 4.59375H6.46611C6.74411 4.59375 6.99689 4.71 7.17783 4.92109C7.35883 5.13222 7.43508 5.39978 7.39255 5.67457C7.36336 5.86338 7.33386 6.04272 7.30533 6.21616C7.25158 6.54272 7.19605 6.88044 7.14186 7.28757C7.04355 8.02632 6.43124 8.56251 5.68595 8.56251ZM3.26705 5.53125C3.29586 5.71832 3.3253 5.89785 3.3538 6.0715C3.40814 6.40294 3.46439 6.74566 3.52014 7.16398C3.55576 7.43113 3.77723 7.62501 4.04673 7.62501H5.68595C5.95552 7.62501 6.17699 7.43107 6.21255 7.16388C6.26867 6.74244 6.32539 6.39754 6.38027 6.06397C6.40845 5.89275 6.43758 5.71566 6.46608 5.53125H3.26705ZM6.47158 5.53156H6.47192H6.47158Z" fill="#2D3E53"/>
<path d="M8.26425 5.15527H8V6.15321H8.26425C8.55772 6.15321 8.79647 6.39196 8.79647 6.68543V6.75193C8.79647 7.02749 9.01987 7.2509 9.29543 7.2509C9.57099 7.2509 9.7944 7.02749 9.7944 6.75193V6.68543C9.7944 5.84171 9.10796 5.15527 8.26425 5.15527Z" fill="#16202D"/>
<path fill-rule="evenodd" clip-rule="evenodd" d="M9.51955 5.0625H12.7186C12.8603 5.0625 12.9823 5.11859 13.0745 5.22616C13.1667 5.33372 13.2035 5.46284 13.1818 5.60287C13.0977 6.14718 13.0136 6.59527 12.9297 7.2257C12.8632 7.72564 12.4428 8.09373 11.9385 8.09373C11.3921 8.09373 10.8457 8.09373 10.2992 8.09373C9.79493 8.09373 9.37468 7.72576 9.30802 7.22592C9.22396 6.59533 9.14008 6.14712 9.05627 5.60256C9.03474 5.46256 9.07158 5.33356 9.16377 5.22606C9.25599 5.11856 9.37789 5.0625 9.51955 5.0625Z" fill="#2D3948"/>
<path d="M11.9404 8.56251H10.3011C9.55603 8.56251 8.94375 8.02645 8.84528 7.28788C8.79135 6.88354 8.73631 6.54788 8.68306 6.22332C8.65419 6.04741 8.62438 5.86557 8.59488 5.67391C8.5526 5.39922 8.62897 5.13178 8.80991 4.92088C8.99091 4.70991 9.2436 4.59375 9.52147 4.59375H12.7205C12.9985 4.59375 13.2513 4.71 13.4323 4.92109C13.6133 5.13222 13.6895 5.39978 13.647 5.67457C13.6178 5.86338 13.5883 6.04272 13.5598 6.21616C13.506 6.54272 13.4505 6.88044 13.3963 7.28757C13.2979 8.02632 12.6856 8.56251 11.9404 8.56251ZM9.52144 5.53125C9.55025 5.71832 9.57969 5.89785 9.60819 6.0715C9.66253 6.40294 9.71878 6.74566 9.77453 7.16398C9.81016 7.43113 10.0316 7.62501 10.3011 7.62501H11.9404C12.2099 7.62501 12.4314 7.43107 12.4669 7.16388C12.5231 6.74244 12.5798 6.39754 12.6347 6.06397C12.6629 5.89275 12.692 5.71566 12.7205 5.53125H9.52144ZM12.726 5.53156H12.7263H12.726Z" fill="#16202D"/>
<path d="M11.0588 10.9016C10.8363 10.769 10.5486 10.842 10.4162 11.0644C9.91156 11.9112 8.98575 12.4373 8 12.4373V13.3748C9.31434 13.3748 10.5488 12.6734 11.2215 11.5442C11.354 11.3219 11.2812 11.0341 11.0588 10.9016Z" fill="#16202D"/>
</svg>
