<svg width="49" height="17" viewBox="0 0 49 17" fill="none" xmlns="http://www.w3.org/2000/svg">
<path d="M33.1438 3.42575L34.172 2.49762L32.9624 3.17825C32.9624 3.17825 33.2504 2.13953 33.7486 1.75511C34.3754 1.27143 35.7444 1.5076 35.7444 1.5076C35.7444 1.5076 35.2843 2.58361 34.7163 2.99262C34.1908 3.37092 33.7486 3.42575 33.1438 3.42575Z" fill="#5C5C5C"/>
<path d="M6.10826 8.80849L6.41065 8.99412C5.62444 11.036 4.92795 11.9642 3.48409 11.9642C2.49013 11.9642 1.65835 11.6056 0.98873 10.8883C0.329577 10.1604 0 9.22378 0 8.07839C0 6.86877 0.324346 5.88395 0.973036 5.12392C1.62173 4.3639 2.44305 3.98388 3.43701 3.98388C4.44144 3.98388 5.21019 4.24545 5.83821 5.07575C6.31124 5.70113 6.41065 6.20971 6.41065 7.0141H1.27004C1.27004 7.43157 1.23278 8.15598 1.33051 8.49912C1.53223 9.20735 1.61065 9.4626 2.11672 9.92226C2.64806 10.4049 2.91031 10.6029 3.8101 10.6029C4.83545 10.6029 5.49096 9.99671 6.10826 8.80849ZM1.27004 6.51909H2.84246C3.24004 6.51909 4.6568 6.51909 4.6568 6.51909C4.6568 6.51909 4.67291 5.5128 4.35441 5.07575C4.04446 4.65045 3.72385 4.47719 3.20533 4.47719C2.60055 4.47719 2.22495 4.64327 1.81434 5.07575C1.40289 5.50911 1.27004 5.96221 1.27004 6.51909Z" fill="#5C5C5C"/>
<path d="M9.72815 8.7849H10.2461C10.4022 9.98473 10.5989 10.393 11.007 10.7891C11.415 11.1745 11.7076 11.2629 12.0956 11.4079C12.5415 11.5745 12.9912 11.5303 13.3051 11.2841C13.6295 11.0272 13.7771 10.7335 13.7916 10.3046C13.8135 9.66298 12.8213 8.99412 12.8213 8.99412L11.5513 8.2522C11.5513 8.2522 10.6451 7.81178 10.3417 7.44782C10.0488 7.08386 9.8537 6.78314 9.8537 6.31213C9.8537 5.66986 10.0786 5.11857 10.5285 4.65827C10.9889 4.18727 11.5957 3.95177 12.3491 3.95177C12.9978 3.95177 13.4866 4.10652 13.8557 4.29215L14.1225 3.95177H14.3937L14.4521 6.51968H14.1518C13.9321 5.79177 14.0362 5.6625 13.668 5.22029C13.275 4.74829 12.8774 4.52982 12.2706 4.52982C11.7684 4.52982 11.3708 4.65827 11.0778 4.91518C10.7953 5.16139 10.8515 5.59154 10.886 5.83905C10.9465 6.27218 13.3051 7.5097 13.3051 7.5097C13.3051 7.5097 14.1591 7.93958 14.4835 8.32495C14.8078 8.71031 14.97 9.16526 14.97 9.68978C14.97 10.3856 14.7136 10.9583 14.201 11.4079C13.6883 11.8575 13.4338 11.8866 12.8818 11.9648C12.46 12.0245 12.231 11.9275 11.7932 11.9029C11.2893 11.8746 10.5231 11.6591 10.5231 11.6591L10.2461 11.9029L9.91837 11.8357L9.72815 8.7849Z" fill="#5C5C5C"/>
<path d="M24.3121 5.10609V4.5441C25.7031 3.98277 26.1169 3.54964 26.6103 1.75524H26.9016V4.36748H28.6665V5.10609H26.9016V9.93922C26.9016 10.346 26.9958 10.6671 27.1841 10.9026C27.3724 11.1381 27.6989 11.0985 27.6989 11.0985C27.6989 11.0985 28.0603 11.0958 28.2432 10.9747C28.4744 10.8217 28.606 10.356 28.606 10.356H29.1396C29.1396 10.356 29.0031 11.0071 28.7589 11.3332C28.3268 11.9105 27.9027 11.9842 27.2755 11.9648C26.7937 11.9498 26.4622 11.8607 26.1169 11.5289C25.7716 11.197 25.599 10.7367 25.599 10.148V5.10609H24.3121Z" fill="#5C5C5C"/>
<path d="M40.0363 1.19836L39.8549 0.827106L42.1646 0V5.8126C42.9389 4.79566 43.8282 4.28719 44.8326 4.28719C45.565 4.28719 46.1353 4.53875 46.5433 5.04187C46.9514 5.54498 47.1554 6.26219 47.1554 7.19349V10.7581C47.1554 11.197 47.3908 11.4165 47.8616 11.4165H48.4894V12.0266H44.5188V11.4165H44.9739C45.5598 11.4165 45.8528 11.197 45.8528 10.7581V7.19349C45.8528 6.58333 45.7063 6.10162 45.4133 5.74837C45.1308 5.38441 44.7385 5.20244 44.2363 5.20244C43.6922 5.20244 43.2109 5.43794 42.7924 5.90894C42.3739 6.37994 42.1646 6.97405 42.1646 7.69126V10.6778C42.1646 10.9562 42.217 11.1488 42.3216 11.2559C42.4262 11.3629 42.6041 11.4165 42.8552 11.4165H43.483V12.0266H39.6222V11.4165H40.0459C40.6005 11.4165 40.8777 11.1702 40.8777 10.6778L40.9435 1.75524C40.9435 1.75524 40.9562 1.2354 40.7621 1.07461C40.5388 0.88962 40.0363 1.19836 40.0363 1.19836Z" fill="#5C5C5C"/>
<path d="M37.2544 8.80849L37.5567 8.99412C36.7705 11.036 36.0741 11.9642 34.6302 11.9642C33.6362 11.9642 32.8044 11.6056 32.1348 10.8883C31.4757 10.1604 31.1461 9.22378 31.1461 8.07839C31.1461 6.86877 31.4704 5.88395 32.1191 5.12392C32.7678 4.3639 33.5891 3.98388 34.5831 3.98388C35.5875 3.98388 36.3563 4.24545 36.9843 5.07575C37.4573 5.70113 37.5567 6.20971 37.5567 7.0141H32.4161C32.4161 7.43157 32.3789 8.15598 32.4766 8.49912C32.6783 9.20735 32.7567 9.4626 33.2628 9.92226C33.7942 10.4049 34.0564 10.6029 34.9562 10.6029C35.9816 10.6029 36.6371 9.99671 37.2544 8.80849ZM32.4161 6.51909H33.9886C34.3861 6.51909 35.8029 6.51909 35.8029 6.51909C35.8029 6.51909 35.819 5.5128 35.5005 5.07575C35.1906 4.65045 34.8699 4.47719 34.3514 4.47719C33.7466 4.47719 33.371 4.64327 32.9604 5.07575C32.549 5.50911 32.4161 5.96221 32.4161 6.51909Z" fill="#5C5C5C"/>
<ellipse cx="19.7164" cy="8.00461" rx="1.20956" ry="1.23752" fill="#5C5C5C"/>
<path d="M10.8853 14.3838H11.1717V16.8396H10.8853V14.3838Z" fill="#5C5C5C"/>
<path d="M12.8642 14.3481H12.9864L14.4853 16.2641L14.5342 16.3534L14.5307 16.2533L14.5272 14.3803H14.8102V16.8396H14.6635L14.4608 16.6358L13.2694 15.1702L13.1332 14.9844L13.1507 15.2203V16.8396H12.8642V14.3481Z" fill="#5C5C5C"/>
<path d="M17.4341 14.366C17.6507 14.3803 17.8429 14.4422 18.0106 14.5518C18.1806 14.6615 18.3122 14.8092 18.4054 14.9951C18.4986 15.1786 18.5451 15.3847 18.5451 15.6135C18.5451 15.8566 18.4927 16.0734 18.3879 16.2641C18.2854 16.4547 18.1422 16.6036 17.9582 16.7109C17.7742 16.8181 17.5645 16.8717 17.3293 16.8717H17.1546C17.136 16.8717 17.0952 16.8717 17.0323 16.8717C16.9694 16.8717 16.8576 16.8646 16.6969 16.8503L16.5013 16.8324V14.3624L17.4341 14.366ZM17.2175 16.6036C17.5529 16.6036 17.8103 16.519 17.9896 16.3498C18.169 16.1806 18.2587 15.9388 18.2587 15.6242C18.2587 15.3287 18.1818 15.094 18.0281 14.92C17.8767 14.7461 17.6659 14.6519 17.3957 14.6376H16.7878V16.5858C16.9461 16.5977 17.0894 16.6036 17.2175 16.6036Z" fill="#5C5C5C"/>
<path d="M21.4324 16.9146C21.2018 16.9122 20.9945 16.8574 20.8105 16.7502C20.6288 16.6406 20.4856 16.4928 20.3808 16.3069C20.2783 16.1187 20.227 15.9066 20.227 15.6707V15.567C20.227 15.3406 20.2794 15.1333 20.3842 14.945C20.4914 14.7544 20.6358 14.6043 20.8175 14.4946C21.0015 14.3826 21.2018 14.3266 21.4184 14.3266C21.6374 14.3266 21.8377 14.3826 22.0193 14.4946C22.201 14.6043 22.3454 14.7544 22.4526 14.945C22.5597 15.1333 22.6133 15.3406 22.6133 15.567V15.6707C22.6133 15.9066 22.5609 16.1199 22.4561 16.3105C22.3536 16.5012 22.2127 16.6501 22.0333 16.7573C21.854 16.8646 21.6537 16.917 21.4324 16.9146ZM21.4219 16.643C21.5919 16.643 21.7457 16.6013 21.8831 16.5178C22.0205 16.4321 22.1288 16.3153 22.208 16.1675C22.2872 16.0198 22.3268 15.8542 22.3268 15.6707V15.567C22.3268 15.3931 22.286 15.2322 22.2045 15.0844C22.123 14.9343 22.0124 14.8164 21.8726 14.7306C21.7352 14.6424 21.5826 14.5983 21.4149 14.5983C21.2495 14.5983 21.0981 14.6424 20.9607 14.7306C20.8233 14.8164 20.7138 14.9343 20.6323 15.0844C20.5531 15.2322 20.5135 15.3931 20.5135 15.567V15.6707C20.5135 15.8542 20.5531 16.0198 20.6323 16.1675C20.7115 16.3153 20.8198 16.4321 20.9572 16.5178C21.097 16.6013 21.2519 16.643 21.4219 16.643Z" fill="#5C5C5C"/>
<path d="M24.3611 14.3374H24.4833L25.9822 16.2533L26.0311 16.3427L26.0276 16.2426L26.0241 14.3695H26.3071V16.8288H26.1604L25.9577 16.6251L24.7663 15.1595L24.6301 14.9736L24.6476 15.2096V16.8288H24.3611V14.3374Z" fill="#5C5C5C"/>
<path d="M28.0005 14.3838H29.2705V14.6555H28.28V15.4026H29.2268V15.6743H28.28V16.5679H29.2705V16.8396H28.0005V14.3838Z" fill="#5C5C5C"/>
<path d="M31.8175 16.911C31.6777 16.911 31.5461 16.8836 31.4227 16.8288C31.2992 16.774 31.2643 16.737 31.1781 16.6393C31.0943 16.5416 31.0395 16.4308 31.0139 16.3069L31.2725 16.1961C31.3097 16.3462 31.3878 16.4642 31.5065 16.55C31.6253 16.6357 31.6824 16.6393 31.8175 16.6393C31.9619 16.6393 32.0842 16.594 32.1843 16.5035C32.2845 16.4106 32.3196 16.3084 32.3103 16.1686C32.3048 16.085 32.302 16.0317 32.2437 15.965C32.1855 15.8983 32.083 15.8292 31.9363 15.7577C31.7499 15.6647 31.6079 15.5897 31.51 15.5325C31.4145 15.4729 31.3342 15.4002 31.269 15.3144C31.2061 15.2263 31.1781 15.0451 31.1781 14.9235C31.1781 14.8068 31.2084 14.7031 31.269 14.6125C31.3319 14.5196 31.4145 14.4481 31.517 14.3981C31.6218 14.3456 31.7336 14.3194 31.8524 14.3194C31.9526 14.3194 32.0458 14.3409 32.1319 14.3838C32.2204 14.4243 32.2903 14.4791 32.3416 14.5482C32.3951 14.6173 32.4219 14.6912 32.4219 14.7698C32.4219 14.7817 32.4196 14.802 32.4149 14.8306L32.1424 14.8127C32.1517 14.7746 32.1413 14.7388 32.111 14.7055C32.083 14.6697 32.0434 14.6423 31.9922 14.6233C31.9409 14.6018 31.892 14.5911 31.8454 14.5911C31.743 14.5911 31.6533 14.6233 31.5764 14.6876C31.5019 14.7496 31.4646 14.8246 31.4646 14.9128C31.4646 14.9843 31.4856 15.125 31.5345 15.1822C31.5857 15.2394 31.6451 15.2894 31.7127 15.3323C31.7802 15.3728 31.8676 15.4205 31.9747 15.4753L32.1005 15.5396C32.2845 15.6421 32.4161 15.7446 32.4953 15.847C32.5768 15.9495 32.5901 16.0391 32.5968 16.1722C32.6043 16.3209 32.5838 16.426 32.5093 16.5428C32.4371 16.6596 32.3392 16.7501 32.2158 16.8145C32.0923 16.8788 31.9596 16.911 31.8175 16.911Z" fill="#5C5C5C"/>
<path d="M34.3061 14.3838H34.5926V16.8396H34.3061V14.3838Z" fill="#5C5C5C"/>
<path d="M37.3746 14.3159L38.4632 16.8396H38.1592L37.8308 16.0496H36.9189L36.5975 16.8396H36.2935L37.3746 14.3159ZM37.422 15.0201L37.3941 14.9272L37.3731 14.845L37.3486 14.9236L37.3207 15.0201L37.0272 15.7851H37.719L37.422 15.0201Z" fill="#5C5C5C"/>
</svg>
