<svg width="279" height="211" viewBox="0 0 279 211" fill="none" xmlns="http://www.w3.org/2000/svg">
<rect x="0.490723" y="13.8214" width="19.2056" height="19.2056" rx="4.30253" transform="rotate(-45 0.490723 13.8214)" fill="url(#paint0_radial_703_1244)" fill-opacity="0.2"/>
<rect x="36.2632" y="13.8214" width="19.2056" height="19.2056" rx="4.30253" transform="rotate(-45 36.2632 13.8214)" fill="url(#paint1_radial_703_1244)" fill-opacity="0.2"/>
<rect x="72.022" y="13.8214" width="19.2056" height="19.2056" rx="4.30253" transform="rotate(-45 72.022 13.8214)" fill="url(#paint2_radial_703_1244)" fill-opacity="0.2"/>
<rect x="107.794" y="13.8214" width="19.2056" height="19.2056" rx="4.30253" transform="rotate(-45 107.794 13.8214)" fill="url(#paint3_radial_703_1244)" fill-opacity="0.2"/>
<rect x="143.562" y="13.8214" width="19.2056" height="19.2056" rx="4.30253" transform="rotate(-45 143.562 13.8214)" fill="url(#paint4_radial_703_1244)" fill-opacity="0.2"/>
<rect x="179.327" y="13.8214" width="19.2056" height="19.2056" rx="4.30253" transform="rotate(-45 179.327 13.8214)" fill="url(#paint5_radial_703_1244)" fill-opacity="0.2"/>
<rect x="215.093" y="13.8214" width="19.2056" height="19.2056" rx="4.30253" transform="rotate(-45 215.093 13.8214)" fill="url(#paint6_radial_703_1244)" fill-opacity="0.2"/>
<rect x="250.859" y="13.8214" width="19.2056" height="19.2056" rx="4.30253" transform="rotate(-45 250.859 13.8214)" fill="url(#paint7_radial_703_1244)" fill-opacity="0.2"/>
<rect x="0.490723" y="86.9644" width="19.2056" height="19.2056" rx="4.30253" transform="rotate(-45 0.490723 86.9644)" fill="url(#paint8_radial_703_1244)" fill-opacity="0.2"/>
<rect x="36.2632" y="86.9644" width="19.2056" height="19.2056" rx="4.30253" transform="rotate(-45 36.2632 86.9644)" fill="url(#paint9_radial_703_1244)" fill-opacity="0.2"/>
<rect x="72.022" y="86.9644" width="19.2056" height="19.2056" rx="4.30253" transform="rotate(-45 72.022 86.9644)" fill="url(#paint10_radial_703_1244)" fill-opacity="0.2"/>
<rect x="107.794" y="86.9644" width="19.2056" height="19.2056" rx="4.30253" transform="rotate(-45 107.794 86.9644)" fill="url(#paint11_radial_703_1244)" fill-opacity="0.2"/>
<rect x="143.562" y="86.9644" width="19.2056" height="19.2056" rx="4.30253" transform="rotate(-45 143.562 86.9644)" fill="url(#paint12_radial_703_1244)" fill-opacity="0.2"/>
<rect x="179.327" y="86.9644" width="19.2056" height="19.2056" rx="4.30253" transform="rotate(-45 179.327 86.9644)" fill="url(#paint13_radial_703_1244)" fill-opacity="0.2"/>
<rect x="215.093" y="86.9644" width="19.2056" height="19.2056" rx="4.30253" transform="rotate(-45 215.093 86.9644)" fill="url(#paint14_radial_703_1244)" fill-opacity="0.2"/>
<rect x="250.859" y="86.9644" width="19.2056" height="19.2056" rx="4.30253" transform="rotate(-45 250.859 86.9644)" fill="url(#paint15_radial_703_1244)" fill-opacity="0.2"/>
<rect x="0.490723" y="160.108" width="19.2056" height="19.2056" rx="4.30253" transform="rotate(-45 0.490723 160.108)" fill="url(#paint16_radial_703_1244)" fill-opacity="0.2"/>
<rect x="36.2632" y="160.108" width="19.2056" height="19.2056" rx="4.30253" transform="rotate(-45 36.2632 160.108)" fill="url(#paint17_radial_703_1244)" fill-opacity="0.2"/>
<rect x="72.0225" y="160.108" width="19.2056" height="19.2056" rx="4.30253" transform="rotate(-45 72.0225 160.108)" fill="url(#paint18_radial_703_1244)" fill-opacity="0.2"/>
<rect x="107.796" y="160.108" width="19.2056" height="19.2056" rx="4.30253" transform="rotate(-45 107.796 160.108)" fill="url(#paint19_radial_703_1244)" fill-opacity="0.2"/>
<rect x="143.562" y="160.108" width="19.2056" height="19.2056" rx="4.30253" transform="rotate(-45 143.562 160.108)" fill="url(#paint20_radial_703_1244)" fill-opacity="0.2"/>
<rect x="179.327" y="160.108" width="19.2056" height="19.2056" rx="4.30253" transform="rotate(-45 179.327 160.108)" fill="url(#paint21_radial_703_1244)" fill-opacity="0.2"/>
<rect x="215.093" y="160.108" width="19.2056" height="19.2056" rx="4.30253" transform="rotate(-45 215.093 160.108)" fill="url(#paint22_radial_703_1244)" fill-opacity="0.2"/>
<rect x="250.859" y="160.108" width="19.2056" height="19.2056" rx="4.30253" transform="rotate(-45 250.859 160.108)" fill="url(#paint23_radial_703_1244)" fill-opacity="0.2"/>
<rect x="0.490723" y="50.3926" width="19.2056" height="19.2056" rx="4.30253" transform="rotate(-45 0.490723 50.3926)" fill="url(#paint24_radial_703_1244)" fill-opacity="0.2"/>
<rect x="36.2632" y="50.3926" width="19.2056" height="19.2056" rx="4.30253" transform="rotate(-45 36.2632 50.3926)" fill="url(#paint25_radial_703_1244)" fill-opacity="0.2"/>
<rect x="72.022" y="50.3926" width="19.2056" height="19.2056" rx="4.30253" transform="rotate(-45 72.022 50.3926)" fill="url(#paint26_radial_703_1244)" fill-opacity="0.2"/>
<rect x="107.794" y="50.3926" width="19.2056" height="19.2056" rx="4.30253" transform="rotate(-45 107.794 50.3926)" fill="url(#paint27_radial_703_1244)" fill-opacity="0.2"/>
<rect x="143.562" y="50.3926" width="19.2056" height="19.2056" rx="4.30253" transform="rotate(-45 143.562 50.3926)" fill="url(#paint28_radial_703_1244)" fill-opacity="0.2"/>
<rect x="179.327" y="50.3926" width="19.2056" height="19.2056" rx="4.30253" transform="rotate(-45 179.327 50.3926)" fill="url(#paint29_radial_703_1244)" fill-opacity="0.2"/>
<rect x="215.093" y="50.3926" width="19.2056" height="19.2056" rx="4.30253" transform="rotate(-45 215.093 50.3926)" fill="url(#paint30_radial_703_1244)" fill-opacity="0.2"/>
<rect x="250.859" y="50.3926" width="19.2056" height="19.2056" rx="4.30253" transform="rotate(-45 250.859 50.3926)" fill="url(#paint31_radial_703_1244)" fill-opacity="0.2"/>
<rect x="0.490723" y="123.537" width="19.2056" height="19.2056" rx="4.30253" transform="rotate(-45 0.490723 123.537)" fill="url(#paint32_radial_703_1244)" fill-opacity="0.2"/>
<rect x="36.2632" y="123.537" width="19.2056" height="19.2056" rx="4.30253" transform="rotate(-45 36.2632 123.537)" fill="url(#paint33_radial_703_1244)" fill-opacity="0.2"/>
<rect x="72.0225" y="123.537" width="19.2056" height="19.2056" rx="4.30253" transform="rotate(-45 72.0225 123.537)" fill="url(#paint34_radial_703_1244)" fill-opacity="0.2"/>
<rect x="107.796" y="123.537" width="19.2056" height="19.2056" rx="4.30253" transform="rotate(-45 107.796 123.537)" fill="url(#paint35_radial_703_1244)" fill-opacity="0.2"/>
<rect x="143.562" y="123.537" width="19.2056" height="19.2056" rx="4.30253" transform="rotate(-45 143.562 123.537)" fill="url(#paint36_radial_703_1244)" fill-opacity="0.2"/>
<rect x="179.327" y="123.537" width="19.2056" height="19.2056" rx="4.30253" transform="rotate(-45 179.327 123.537)" fill="url(#paint37_radial_703_1244)" fill-opacity="0.2"/>
<rect x="215.093" y="123.537" width="19.2056" height="19.2056" rx="4.30253" transform="rotate(-45 215.093 123.537)" fill="url(#paint38_radial_703_1244)" fill-opacity="0.2"/>
<rect x="250.859" y="123.537" width="19.2056" height="19.2056" rx="4.30253" transform="rotate(-45 250.859 123.537)" fill="url(#paint39_radial_703_1244)" fill-opacity="0.2"/>
<rect x="0.490723" y="196.679" width="19.2056" height="19.2056" rx="4.30253" transform="rotate(-45 0.490723 196.679)" fill="url(#paint40_radial_703_1244)" fill-opacity="0.2"/>
<rect x="36.2632" y="196.679" width="19.2056" height="19.2056" rx="4.30253" transform="rotate(-45 36.2632 196.679)" fill="url(#paint41_radial_703_1244)" fill-opacity="0.2"/>
<rect x="72.022" y="196.679" width="19.2056" height="19.2056" rx="4.30253" transform="rotate(-45 72.022 196.679)" fill="url(#paint42_radial_703_1244)" fill-opacity="0.2"/>
<rect x="107.794" y="196.679" width="19.2056" height="19.2056" rx="4.30253" transform="rotate(-45 107.794 196.679)" fill="url(#paint43_radial_703_1244)" fill-opacity="0.2"/>
<rect x="143.562" y="196.679" width="19.2056" height="19.2056" rx="4.30253" transform="rotate(-45 143.562 196.679)" fill="url(#paint44_radial_703_1244)" fill-opacity="0.2"/>
<rect x="179.327" y="196.679" width="19.2056" height="19.2056" rx="4.30253" transform="rotate(-45 179.327 196.679)" fill="url(#paint45_radial_703_1244)" fill-opacity="0.2"/>
<rect x="215.093" y="196.679" width="19.2056" height="19.2056" rx="4.30253" transform="rotate(-45 215.093 196.679)" fill="url(#paint46_radial_703_1244)" fill-opacity="0.2"/>
<rect x="250.859" y="196.679" width="19.2056" height="19.2056" rx="4.30253" transform="rotate(-45 250.859 196.679)" fill="url(#paint47_radial_703_1244)" fill-opacity="0.2"/>
<defs>
<radialGradient id="paint0_radial_703_1244" cx="0" cy="0" r="1" gradientUnits="userSpaceOnUse" gradientTransform="translate(10.0935 23.4242) rotate(85.3036) scale(18.4058)">
<stop stop-color="white"/>
<stop offset="1" stop-color="#FAFAFA"/>
</radialGradient>
<radialGradient id="paint1_radial_703_1244" cx="0" cy="0" r="1" gradientUnits="userSpaceOnUse" gradientTransform="translate(45.866 23.4242) rotate(85.3036) scale(18.4058)">
<stop stop-color="white"/>
<stop offset="1" stop-color="#FAFAFA"/>
</radialGradient>
<radialGradient id="paint2_radial_703_1244" cx="0" cy="0" r="1" gradientUnits="userSpaceOnUse" gradientTransform="translate(81.6248 23.4242) rotate(85.3036) scale(18.4058)">
<stop stop-color="white"/>
<stop offset="1" stop-color="#FAFAFA"/>
</radialGradient>
<radialGradient id="paint3_radial_703_1244" cx="0" cy="0" r="1" gradientUnits="userSpaceOnUse" gradientTransform="translate(117.397 23.4242) rotate(85.3036) scale(18.4058)">
<stop stop-color="white"/>
<stop offset="1" stop-color="#FAFAFA"/>
</radialGradient>
<radialGradient id="paint4_radial_703_1244" cx="0" cy="0" r="1" gradientUnits="userSpaceOnUse" gradientTransform="translate(153.164 23.4242) rotate(85.3036) scale(18.4058)">
<stop stop-color="white"/>
<stop offset="1" stop-color="#FAFAFA"/>
</radialGradient>
<radialGradient id="paint5_radial_703_1244" cx="0" cy="0" r="1" gradientUnits="userSpaceOnUse" gradientTransform="translate(188.929 23.4242) rotate(85.3036) scale(18.4058)">
<stop stop-color="white"/>
<stop offset="1" stop-color="#FAFAFA"/>
</radialGradient>
<radialGradient id="paint6_radial_703_1244" cx="0" cy="0" r="1" gradientUnits="userSpaceOnUse" gradientTransform="translate(224.696 23.4242) rotate(85.3036) scale(18.4058)">
<stop stop-color="white"/>
<stop offset="1" stop-color="#FAFAFA"/>
</radialGradient>
<radialGradient id="paint7_radial_703_1244" cx="0" cy="0" r="1" gradientUnits="userSpaceOnUse" gradientTransform="translate(260.462 23.4242) rotate(85.3036) scale(18.4058)">
<stop stop-color="white"/>
<stop offset="1" stop-color="#FAFAFA"/>
</radialGradient>
<radialGradient id="paint8_radial_703_1244" cx="0" cy="0" r="1" gradientUnits="userSpaceOnUse" gradientTransform="translate(10.0935 96.5672) rotate(85.3036) scale(18.4058)">
<stop stop-color="white"/>
<stop offset="1" stop-color="#FAFAFA"/>
</radialGradient>
<radialGradient id="paint9_radial_703_1244" cx="0" cy="0" r="1" gradientUnits="userSpaceOnUse" gradientTransform="translate(45.866 96.5672) rotate(85.3036) scale(18.4058)">
<stop stop-color="white"/>
<stop offset="1" stop-color="#FAFAFA"/>
</radialGradient>
<radialGradient id="paint10_radial_703_1244" cx="0" cy="0" r="1" gradientUnits="userSpaceOnUse" gradientTransform="translate(81.6248 96.5672) rotate(85.3036) scale(18.4058)">
<stop stop-color="white"/>
<stop offset="1" stop-color="#FAFAFA"/>
</radialGradient>
<radialGradient id="paint11_radial_703_1244" cx="0" cy="0" r="1" gradientUnits="userSpaceOnUse" gradientTransform="translate(117.397 96.5672) rotate(85.3036) scale(18.4058)">
<stop stop-color="white"/>
<stop offset="1" stop-color="#FAFAFA"/>
</radialGradient>
<radialGradient id="paint12_radial_703_1244" cx="0" cy="0" r="1" gradientUnits="userSpaceOnUse" gradientTransform="translate(153.164 96.5672) rotate(85.3036) scale(18.4058)">
<stop stop-color="white"/>
<stop offset="1" stop-color="#FAFAFA"/>
</radialGradient>
<radialGradient id="paint13_radial_703_1244" cx="0" cy="0" r="1" gradientUnits="userSpaceOnUse" gradientTransform="translate(188.929 96.5672) rotate(85.3036) scale(18.4058)">
<stop stop-color="white"/>
<stop offset="1" stop-color="#FAFAFA"/>
</radialGradient>
<radialGradient id="paint14_radial_703_1244" cx="0" cy="0" r="1" gradientUnits="userSpaceOnUse" gradientTransform="translate(224.696 96.5672) rotate(85.3036) scale(18.4058)">
<stop stop-color="white"/>
<stop offset="1" stop-color="#FAFAFA"/>
</radialGradient>
<radialGradient id="paint15_radial_703_1244" cx="0" cy="0" r="1" gradientUnits="userSpaceOnUse" gradientTransform="translate(260.462 96.5672) rotate(85.3036) scale(18.4058)">
<stop stop-color="white"/>
<stop offset="1" stop-color="#FAFAFA"/>
</radialGradient>
<radialGradient id="paint16_radial_703_1244" cx="0" cy="0" r="1" gradientUnits="userSpaceOnUse" gradientTransform="translate(10.0935 169.711) rotate(85.3036) scale(18.4058)">
<stop stop-color="white"/>
<stop offset="1" stop-color="#FAFAFA"/>
</radialGradient>
<radialGradient id="paint17_radial_703_1244" cx="0" cy="0" r="1" gradientUnits="userSpaceOnUse" gradientTransform="translate(45.866 169.711) rotate(85.3036) scale(18.4058)">
<stop stop-color="white"/>
<stop offset="1" stop-color="#FAFAFA"/>
</radialGradient>
<radialGradient id="paint18_radial_703_1244" cx="0" cy="0" r="1" gradientUnits="userSpaceOnUse" gradientTransform="translate(81.6253 169.711) rotate(85.3036) scale(18.4058)">
<stop stop-color="white"/>
<stop offset="1" stop-color="#FAFAFA"/>
</radialGradient>
<radialGradient id="paint19_radial_703_1244" cx="0" cy="0" r="1" gradientUnits="userSpaceOnUse" gradientTransform="translate(117.399 169.711) rotate(85.3036) scale(18.4058)">
<stop stop-color="white"/>
<stop offset="1" stop-color="#FAFAFA"/>
</radialGradient>
<radialGradient id="paint20_radial_703_1244" cx="0" cy="0" r="1" gradientUnits="userSpaceOnUse" gradientTransform="translate(153.164 169.711) rotate(85.3036) scale(18.4058)">
<stop stop-color="white"/>
<stop offset="1" stop-color="#FAFAFA"/>
</radialGradient>
<radialGradient id="paint21_radial_703_1244" cx="0" cy="0" r="1" gradientUnits="userSpaceOnUse" gradientTransform="translate(188.929 169.711) rotate(85.3036) scale(18.4058)">
<stop stop-color="white"/>
<stop offset="1" stop-color="#FAFAFA"/>
</radialGradient>
<radialGradient id="paint22_radial_703_1244" cx="0" cy="0" r="1" gradientUnits="userSpaceOnUse" gradientTransform="translate(224.696 169.711) rotate(85.3036) scale(18.4058)">
<stop stop-color="white"/>
<stop offset="1" stop-color="#FAFAFA"/>
</radialGradient>
<radialGradient id="paint23_radial_703_1244" cx="0" cy="0" r="1" gradientUnits="userSpaceOnUse" gradientTransform="translate(260.462 169.711) rotate(85.3036) scale(18.4058)">
<stop stop-color="white"/>
<stop offset="1" stop-color="#FAFAFA"/>
</radialGradient>
<radialGradient id="paint24_radial_703_1244" cx="0" cy="0" r="1" gradientUnits="userSpaceOnUse" gradientTransform="translate(10.0935 59.9954) rotate(85.3036) scale(18.4058)">
<stop stop-color="white"/>
<stop offset="1" stop-color="#FAFAFA"/>
</radialGradient>
<radialGradient id="paint25_radial_703_1244" cx="0" cy="0" r="1" gradientUnits="userSpaceOnUse" gradientTransform="translate(45.866 59.9954) rotate(85.3036) scale(18.4058)">
<stop stop-color="white"/>
<stop offset="1" stop-color="#FAFAFA"/>
</radialGradient>
<radialGradient id="paint26_radial_703_1244" cx="0" cy="0" r="1" gradientUnits="userSpaceOnUse" gradientTransform="translate(81.6248 59.9954) rotate(85.3036) scale(18.4058)">
<stop stop-color="white"/>
<stop offset="1" stop-color="#FAFAFA"/>
</radialGradient>
<radialGradient id="paint27_radial_703_1244" cx="0" cy="0" r="1" gradientUnits="userSpaceOnUse" gradientTransform="translate(117.397 59.9954) rotate(85.3036) scale(18.4058)">
<stop stop-color="white"/>
<stop offset="1" stop-color="#FAFAFA"/>
</radialGradient>
<radialGradient id="paint28_radial_703_1244" cx="0" cy="0" r="1" gradientUnits="userSpaceOnUse" gradientTransform="translate(153.164 59.9954) rotate(85.3036) scale(18.4058)">
<stop stop-color="white"/>
<stop offset="1" stop-color="#FAFAFA"/>
</radialGradient>
<radialGradient id="paint29_radial_703_1244" cx="0" cy="0" r="1" gradientUnits="userSpaceOnUse" gradientTransform="translate(188.929 59.9954) rotate(85.3036) scale(18.4058)">
<stop stop-color="white"/>
<stop offset="1" stop-color="#FAFAFA"/>
</radialGradient>
<radialGradient id="paint30_radial_703_1244" cx="0" cy="0" r="1" gradientUnits="userSpaceOnUse" gradientTransform="translate(224.696 59.9954) rotate(85.3036) scale(18.4058)">
<stop stop-color="white"/>
<stop offset="1" stop-color="#FAFAFA"/>
</radialGradient>
<radialGradient id="paint31_radial_703_1244" cx="0" cy="0" r="1" gradientUnits="userSpaceOnUse" gradientTransform="translate(260.462 59.9954) rotate(85.3036) scale(18.4058)">
<stop stop-color="white"/>
<stop offset="1" stop-color="#FAFAFA"/>
</radialGradient>
<radialGradient id="paint32_radial_703_1244" cx="0" cy="0" r="1" gradientUnits="userSpaceOnUse" gradientTransform="translate(10.0935 133.139) rotate(85.3036) scale(18.4058)">
<stop stop-color="white"/>
<stop offset="1" stop-color="#FAFAFA"/>
</radialGradient>
<radialGradient id="paint33_radial_703_1244" cx="0" cy="0" r="1" gradientUnits="userSpaceOnUse" gradientTransform="translate(45.866 133.139) rotate(85.3036) scale(18.4058)">
<stop stop-color="white"/>
<stop offset="1" stop-color="#FAFAFA"/>
</radialGradient>
<radialGradient id="paint34_radial_703_1244" cx="0" cy="0" r="1" gradientUnits="userSpaceOnUse" gradientTransform="translate(81.6253 133.139) rotate(85.3036) scale(18.4058)">
<stop stop-color="white"/>
<stop offset="1" stop-color="#FAFAFA"/>
</radialGradient>
<radialGradient id="paint35_radial_703_1244" cx="0" cy="0" r="1" gradientUnits="userSpaceOnUse" gradientTransform="translate(117.399 133.139) rotate(85.3036) scale(18.4058)">
<stop stop-color="white"/>
<stop offset="1" stop-color="#FAFAFA"/>
</radialGradient>
<radialGradient id="paint36_radial_703_1244" cx="0" cy="0" r="1" gradientUnits="userSpaceOnUse" gradientTransform="translate(153.164 133.139) rotate(85.3036) scale(18.4058)">
<stop stop-color="white"/>
<stop offset="1" stop-color="#FAFAFA"/>
</radialGradient>
<radialGradient id="paint37_radial_703_1244" cx="0" cy="0" r="1" gradientUnits="userSpaceOnUse" gradientTransform="translate(188.929 133.139) rotate(85.3036) scale(18.4058)">
<stop stop-color="white"/>
<stop offset="1" stop-color="#FAFAFA"/>
</radialGradient>
<radialGradient id="paint38_radial_703_1244" cx="0" cy="0" r="1" gradientUnits="userSpaceOnUse" gradientTransform="translate(224.696 133.139) rotate(85.3036) scale(18.4058)">
<stop stop-color="white"/>
<stop offset="1" stop-color="#FAFAFA"/>
</radialGradient>
<radialGradient id="paint39_radial_703_1244" cx="0" cy="0" r="1" gradientUnits="userSpaceOnUse" gradientTransform="translate(260.462 133.139) rotate(85.3036) scale(18.4058)">
<stop stop-color="white"/>
<stop offset="1" stop-color="#FAFAFA"/>
</radialGradient>
<radialGradient id="paint40_radial_703_1244" cx="0" cy="0" r="1" gradientUnits="userSpaceOnUse" gradientTransform="translate(10.0935 206.282) rotate(85.3036) scale(18.4058)">
<stop stop-color="white"/>
<stop offset="1" stop-color="#FAFAFA"/>
</radialGradient>
<radialGradient id="paint41_radial_703_1244" cx="0" cy="0" r="1" gradientUnits="userSpaceOnUse" gradientTransform="translate(45.866 206.282) rotate(85.3036) scale(18.4058)">
<stop stop-color="white"/>
<stop offset="1" stop-color="#FAFAFA"/>
</radialGradient>
<radialGradient id="paint42_radial_703_1244" cx="0" cy="0" r="1" gradientUnits="userSpaceOnUse" gradientTransform="translate(81.6248 206.282) rotate(85.3036) scale(18.4058)">
<stop stop-color="white"/>
<stop offset="1" stop-color="#FAFAFA"/>
</radialGradient>
<radialGradient id="paint43_radial_703_1244" cx="0" cy="0" r="1" gradientUnits="userSpaceOnUse" gradientTransform="translate(117.397 206.282) rotate(85.3036) scale(18.4058)">
<stop stop-color="white"/>
<stop offset="1" stop-color="#FAFAFA"/>
</radialGradient>
<radialGradient id="paint44_radial_703_1244" cx="0" cy="0" r="1" gradientUnits="userSpaceOnUse" gradientTransform="translate(153.164 206.282) rotate(85.3036) scale(18.4058)">
<stop stop-color="white"/>
<stop offset="1" stop-color="#FAFAFA"/>
</radialGradient>
<radialGradient id="paint45_radial_703_1244" cx="0" cy="0" r="1" gradientUnits="userSpaceOnUse" gradientTransform="translate(188.929 206.282) rotate(85.3036) scale(18.4058)">
<stop stop-color="white"/>
<stop offset="1" stop-color="#FAFAFA"/>
</radialGradient>
<radialGradient id="paint46_radial_703_1244" cx="0" cy="0" r="1" gradientUnits="userSpaceOnUse" gradientTransform="translate(224.696 206.282) rotate(85.3036) scale(18.4058)">
<stop stop-color="white"/>
<stop offset="1" stop-color="#FAFAFA"/>
</radialGradient>
<radialGradient id="paint47_radial_703_1244" cx="0" cy="0" r="1" gradientUnits="userSpaceOnUse" gradientTransform="translate(260.462 206.282) rotate(85.3036) scale(18.4058)">
<stop stop-color="white"/>
<stop offset="1" stop-color="#FAFAFA"/>
</radialGradient>
</defs>
</svg>
