<svg width="200" height="151" viewBox="0 0 200 151" fill="none" xmlns="http://www.w3.org/2000/svg">
<rect x="1.52712e-06" y="9.74805" width="13.7859" height="13.7859" rx="3.08838" transform="rotate(-45 1.52712e-06 9.74805)" fill="url(#paint0_radial_703_1699)" fill-opacity="0.6"/>
<rect x="25.6743" y="9.74805" width="13.7859" height="13.7859" rx="3.08838" transform="rotate(-45 25.6743 9.74805)" fill="url(#paint1_radial_703_1699)" fill-opacity="0.6"/>
<rect x="51.3462" y="9.74805" width="13.7859" height="13.7859" rx="3.08838" transform="rotate(-45 51.3462 9.74805)" fill="url(#paint2_radial_703_1699)" fill-opacity="0.6"/>
<rect x="77.021" y="9.74805" width="13.7859" height="13.7859" rx="3.08838" transform="rotate(-45 77.021 9.74805)" fill="url(#paint3_radial_703_1699)" fill-opacity="0.6"/>
<rect x="102.695" y="9.74805" width="13.7859" height="13.7859" rx="3.08838" transform="rotate(-45 102.695 9.74805)" fill="url(#paint4_radial_703_1699)" fill-opacity="0.6"/>
<rect x="128.367" y="9.74805" width="13.7859" height="13.7859" rx="3.08838" transform="rotate(-45 128.367 9.74805)" fill="url(#paint5_radial_703_1699)" fill-opacity="0.6"/>
<rect x="154.042" y="9.74805" width="13.7859" height="13.7859" rx="3.08838" transform="rotate(-45 154.042 9.74805)" fill="url(#paint6_radial_703_1699)" fill-opacity="0.6"/>
<rect x="179.716" y="9.74805" width="13.7859" height="13.7859" rx="3.08838" transform="rotate(-45 179.716 9.74805)" fill="url(#paint7_radial_703_1699)" fill-opacity="0.6"/>
<rect x="1.52712e-06" y="62.2507" width="13.7859" height="13.7859" rx="3.08838" transform="rotate(-45 1.52712e-06 62.2507)" fill="url(#paint8_radial_703_1699)" fill-opacity="0.6"/>
<rect x="25.6743" y="62.2507" width="13.7859" height="13.7859" rx="3.08838" transform="rotate(-45 25.6743 62.2507)" fill="url(#paint9_radial_703_1699)" fill-opacity="0.6"/>
<rect x="51.3462" y="62.2506" width="13.7859" height="13.7859" rx="3.08838" transform="rotate(-45 51.3462 62.2506)" fill="url(#paint10_radial_703_1699)" fill-opacity="0.6"/>
<rect x="77.021" y="62.2507" width="13.7859" height="13.7859" rx="3.08838" transform="rotate(-45 77.021 62.2507)" fill="url(#paint11_radial_703_1699)" fill-opacity="0.6"/>
<rect x="102.695" y="62.2506" width="13.7859" height="13.7859" rx="3.08838" transform="rotate(-45 102.695 62.2506)" fill="url(#paint12_radial_703_1699)" fill-opacity="0.6"/>
<rect x="128.367" y="62.2507" width="13.7859" height="13.7859" rx="3.08838" transform="rotate(-45 128.367 62.2507)" fill="url(#paint13_radial_703_1699)" fill-opacity="0.6"/>
<rect x="154.042" y="62.2507" width="13.7859" height="13.7859" rx="3.08838" transform="rotate(-45 154.042 62.2507)" fill="url(#paint14_radial_703_1699)" fill-opacity="0.6"/>
<rect x="179.716" y="62.2507" width="13.7859" height="13.7859" rx="3.08838" transform="rotate(-45 179.716 62.2507)" fill="url(#paint15_radial_703_1699)" fill-opacity="0.6"/>
<rect x="1.52712e-06" y="114.753" width="13.7859" height="13.7859" rx="3.08838" transform="rotate(-45 1.52712e-06 114.753)" fill="url(#paint16_radial_703_1699)" fill-opacity="0.6"/>
<rect x="25.6743" y="114.753" width="13.7859" height="13.7859" rx="3.08838" transform="rotate(-45 25.6743 114.753)" fill="url(#paint17_radial_703_1699)" fill-opacity="0.6"/>
<rect x="51.3462" y="114.753" width="13.7859" height="13.7859" rx="3.08838" transform="rotate(-45 51.3462 114.753)" fill="url(#paint18_radial_703_1699)" fill-opacity="0.6"/>
<rect x="77.021" y="114.753" width="13.7859" height="13.7859" rx="3.08838" transform="rotate(-45 77.021 114.753)" fill="url(#paint19_radial_703_1699)" fill-opacity="0.6"/>
<rect x="102.695" y="114.753" width="13.7859" height="13.7859" rx="3.08838" transform="rotate(-45 102.695 114.753)" fill="url(#paint20_radial_703_1699)" fill-opacity="0.6"/>
<rect x="128.367" y="114.753" width="13.7859" height="13.7859" rx="3.08838" transform="rotate(-45 128.367 114.753)" fill="url(#paint21_radial_703_1699)" fill-opacity="0.6"/>
<rect x="154.042" y="114.753" width="13.7859" height="13.7859" rx="3.08838" transform="rotate(-45 154.042 114.753)" fill="url(#paint22_radial_703_1699)" fill-opacity="0.6"/>
<rect x="179.716" y="114.753" width="13.7859" height="13.7859" rx="3.08838" transform="rotate(-45 179.716 114.753)" fill="url(#paint23_radial_703_1699)" fill-opacity="0.6"/>
<rect x="1.52712e-06" y="35.9994" width="13.7859" height="13.7859" rx="3.08838" transform="rotate(-45 1.52712e-06 35.9994)" fill="url(#paint24_radial_703_1699)" fill-opacity="0.6"/>
<rect x="25.6743" y="35.9994" width="13.7859" height="13.7859" rx="3.08838" transform="rotate(-45 25.6743 35.9994)" fill="url(#paint25_radial_703_1699)" fill-opacity="0.6"/>
<rect x="51.3462" y="35.9994" width="13.7859" height="13.7859" rx="3.08838" transform="rotate(-45 51.3462 35.9994)" fill="url(#paint26_radial_703_1699)" fill-opacity="0.6"/>
<rect x="77.021" y="35.9994" width="13.7859" height="13.7859" rx="3.08838" transform="rotate(-45 77.021 35.9994)" fill="url(#paint27_radial_703_1699)" fill-opacity="0.6"/>
<rect x="102.695" y="35.9994" width="13.7859" height="13.7859" rx="3.08838" transform="rotate(-45 102.695 35.9994)" fill="url(#paint28_radial_703_1699)" fill-opacity="0.6"/>
<rect x="128.367" y="35.9994" width="13.7859" height="13.7859" rx="3.08838" transform="rotate(-45 128.367 35.9994)" fill="url(#paint29_radial_703_1699)" fill-opacity="0.6"/>
<rect x="154.042" y="35.9994" width="13.7859" height="13.7859" rx="3.08838" transform="rotate(-45 154.042 35.9994)" fill="url(#paint30_radial_703_1699)" fill-opacity="0.6"/>
<rect x="179.716" y="35.9994" width="13.7859" height="13.7859" rx="3.08838" transform="rotate(-45 179.716 35.9994)" fill="url(#paint31_radial_703_1699)" fill-opacity="0.6"/>
<rect x="1.52712e-06" y="88.5018" width="13.7859" height="13.7859" rx="3.08838" transform="rotate(-45 1.52712e-06 88.5018)" fill="url(#paint32_radial_703_1699)" fill-opacity="0.6"/>
<rect x="25.6743" y="88.502" width="13.7859" height="13.7859" rx="3.08838" transform="rotate(-45 25.6743 88.502)" fill="url(#paint33_radial_703_1699)" fill-opacity="0.6"/>
<rect x="51.3462" y="88.5018" width="13.7859" height="13.7859" rx="3.08838" transform="rotate(-45 51.3462 88.5018)" fill="url(#paint34_radial_703_1699)" fill-opacity="0.6"/>
<rect x="77.021" y="88.502" width="13.7859" height="13.7859" rx="3.08838" transform="rotate(-45 77.021 88.502)" fill="url(#paint35_radial_703_1699)" fill-opacity="0.6"/>
<rect x="102.695" y="88.5018" width="13.7859" height="13.7859" rx="3.08838" transform="rotate(-45 102.695 88.5018)" fill="url(#paint36_radial_703_1699)" fill-opacity="0.6"/>
<rect x="128.367" y="88.502" width="13.7859" height="13.7859" rx="3.08838" transform="rotate(-45 128.367 88.502)" fill="url(#paint37_radial_703_1699)" fill-opacity="0.6"/>
<rect x="154.042" y="88.502" width="13.7859" height="13.7859" rx="3.08838" transform="rotate(-45 154.042 88.502)" fill="url(#paint38_radial_703_1699)" fill-opacity="0.6"/>
<rect x="179.716" y="88.5018" width="13.7859" height="13.7859" rx="3.08838" transform="rotate(-45 179.716 88.5018)" fill="url(#paint39_radial_703_1699)" fill-opacity="0.6"/>
<rect x="1.52712e-06" y="141.004" width="13.7859" height="13.7859" rx="3.08838" transform="rotate(-45 1.52712e-06 141.004)" fill="url(#paint40_radial_703_1699)" fill-opacity="0.6"/>
<rect x="25.6743" y="141.005" width="13.7859" height="13.7859" rx="3.08838" transform="rotate(-45 25.6743 141.005)" fill="url(#paint41_radial_703_1699)" fill-opacity="0.6"/>
<rect x="51.3462" y="141.004" width="13.7859" height="13.7859" rx="3.08838" transform="rotate(-45 51.3462 141.004)" fill="url(#paint42_radial_703_1699)" fill-opacity="0.6"/>
<rect x="77.021" y="141.005" width="13.7859" height="13.7859" rx="3.08838" transform="rotate(-45 77.021 141.005)" fill="url(#paint43_radial_703_1699)" fill-opacity="0.6"/>
<rect x="102.695" y="141.004" width="13.7859" height="13.7859" rx="3.08838" transform="rotate(-45 102.695 141.004)" fill="url(#paint44_radial_703_1699)" fill-opacity="0.6"/>
<rect x="128.367" y="141.005" width="13.7859" height="13.7859" rx="3.08838" transform="rotate(-45 128.367 141.005)" fill="url(#paint45_radial_703_1699)" fill-opacity="0.6"/>
<rect x="154.042" y="141.005" width="13.7859" height="13.7859" rx="3.08838" transform="rotate(-45 154.042 141.005)" fill="url(#paint46_radial_703_1699)" fill-opacity="0.6"/>
<rect x="179.716" y="141.004" width="13.7859" height="13.7859" rx="3.08838" transform="rotate(-45 179.716 141.004)" fill="url(#paint47_radial_703_1699)" fill-opacity="0.6"/>
<defs>
<radialGradient id="paint0_radial_703_1699" cx="0" cy="0" r="1" gradientUnits="userSpaceOnUse" gradientTransform="translate(6.89295 16.641) rotate(85.3036) scale(13.2117)">
<stop stop-color="white"/>
<stop offset="1" stop-color="#FAFAFA"/>
</radialGradient>
<radialGradient id="paint1_radial_703_1699" cx="0" cy="0" r="1" gradientUnits="userSpaceOnUse" gradientTransform="translate(32.5673 16.641) rotate(85.3036) scale(13.2117)">
<stop stop-color="white"/>
<stop offset="1" stop-color="#FAFAFA"/>
</radialGradient>
<radialGradient id="paint2_radial_703_1699" cx="0" cy="0" r="1" gradientUnits="userSpaceOnUse" gradientTransform="translate(58.2391 16.641) rotate(85.3036) scale(13.2117)">
<stop stop-color="white"/>
<stop offset="1" stop-color="#FAFAFA"/>
</radialGradient>
<radialGradient id="paint3_radial_703_1699" cx="0" cy="0" r="1" gradientUnits="userSpaceOnUse" gradientTransform="translate(83.9139 16.641) rotate(85.3036) scale(13.2117)">
<stop stop-color="white"/>
<stop offset="1" stop-color="#FAFAFA"/>
</radialGradient>
<radialGradient id="paint4_radial_703_1699" cx="0" cy="0" r="1" gradientUnits="userSpaceOnUse" gradientTransform="translate(109.588 16.641) rotate(85.3036) scale(13.2117)">
<stop stop-color="white"/>
<stop offset="1" stop-color="#FAFAFA"/>
</radialGradient>
<radialGradient id="paint5_radial_703_1699" cx="0" cy="0" r="1" gradientUnits="userSpaceOnUse" gradientTransform="translate(135.26 16.641) rotate(85.3036) scale(13.2117)">
<stop stop-color="white"/>
<stop offset="1" stop-color="#FAFAFA"/>
</radialGradient>
<radialGradient id="paint6_radial_703_1699" cx="0" cy="0" r="1" gradientUnits="userSpaceOnUse" gradientTransform="translate(160.934 16.641) rotate(85.3036) scale(13.2117)">
<stop stop-color="white"/>
<stop offset="1" stop-color="#FAFAFA"/>
</radialGradient>
<radialGradient id="paint7_radial_703_1699" cx="0" cy="0" r="1" gradientUnits="userSpaceOnUse" gradientTransform="translate(186.609 16.641) rotate(85.3036) scale(13.2117)">
<stop stop-color="white"/>
<stop offset="1" stop-color="#FAFAFA"/>
</radialGradient>
<radialGradient id="paint8_radial_703_1699" cx="0" cy="0" r="1" gradientUnits="userSpaceOnUse" gradientTransform="translate(6.89295 69.1437) rotate(85.3036) scale(13.2117)">
<stop stop-color="white"/>
<stop offset="1" stop-color="#FAFAFA"/>
</radialGradient>
<radialGradient id="paint9_radial_703_1699" cx="0" cy="0" r="1" gradientUnits="userSpaceOnUse" gradientTransform="translate(32.5673 69.1437) rotate(85.3036) scale(13.2117)">
<stop stop-color="white"/>
<stop offset="1" stop-color="#FAFAFA"/>
</radialGradient>
<radialGradient id="paint10_radial_703_1699" cx="0" cy="0" r="1" gradientUnits="userSpaceOnUse" gradientTransform="translate(58.2391 69.1436) rotate(85.3036) scale(13.2117)">
<stop stop-color="white"/>
<stop offset="1" stop-color="#FAFAFA"/>
</radialGradient>
<radialGradient id="paint11_radial_703_1699" cx="0" cy="0" r="1" gradientUnits="userSpaceOnUse" gradientTransform="translate(83.9139 69.1437) rotate(85.3036) scale(13.2117)">
<stop stop-color="white"/>
<stop offset="1" stop-color="#FAFAFA"/>
</radialGradient>
<radialGradient id="paint12_radial_703_1699" cx="0" cy="0" r="1" gradientUnits="userSpaceOnUse" gradientTransform="translate(109.588 69.1436) rotate(85.3036) scale(13.2117)">
<stop stop-color="white"/>
<stop offset="1" stop-color="#FAFAFA"/>
</radialGradient>
<radialGradient id="paint13_radial_703_1699" cx="0" cy="0" r="1" gradientUnits="userSpaceOnUse" gradientTransform="translate(135.26 69.1437) rotate(85.3036) scale(13.2117)">
<stop stop-color="white"/>
<stop offset="1" stop-color="#FAFAFA"/>
</radialGradient>
<radialGradient id="paint14_radial_703_1699" cx="0" cy="0" r="1" gradientUnits="userSpaceOnUse" gradientTransform="translate(160.934 69.1437) rotate(85.3036) scale(13.2117)">
<stop stop-color="white"/>
<stop offset="1" stop-color="#FAFAFA"/>
</radialGradient>
<radialGradient id="paint15_radial_703_1699" cx="0" cy="0" r="1" gradientUnits="userSpaceOnUse" gradientTransform="translate(186.609 69.1437) rotate(85.3036) scale(13.2117)">
<stop stop-color="white"/>
<stop offset="1" stop-color="#FAFAFA"/>
</radialGradient>
<radialGradient id="paint16_radial_703_1699" cx="0" cy="0" r="1" gradientUnits="userSpaceOnUse" gradientTransform="translate(6.89295 121.646) rotate(85.3036) scale(13.2117)">
<stop stop-color="white"/>
<stop offset="1" stop-color="#FAFAFA"/>
</radialGradient>
<radialGradient id="paint17_radial_703_1699" cx="0" cy="0" r="1" gradientUnits="userSpaceOnUse" gradientTransform="translate(32.5673 121.646) rotate(85.3036) scale(13.2117)">
<stop stop-color="white"/>
<stop offset="1" stop-color="#FAFAFA"/>
</radialGradient>
<radialGradient id="paint18_radial_703_1699" cx="0" cy="0" r="1" gradientUnits="userSpaceOnUse" gradientTransform="translate(58.2391 121.646) rotate(85.3036) scale(13.2117)">
<stop stop-color="white"/>
<stop offset="1" stop-color="#FAFAFA"/>
</radialGradient>
<radialGradient id="paint19_radial_703_1699" cx="0" cy="0" r="1" gradientUnits="userSpaceOnUse" gradientTransform="translate(83.9139 121.646) rotate(85.3036) scale(13.2117)">
<stop stop-color="white"/>
<stop offset="1" stop-color="#FAFAFA"/>
</radialGradient>
<radialGradient id="paint20_radial_703_1699" cx="0" cy="0" r="1" gradientUnits="userSpaceOnUse" gradientTransform="translate(109.588 121.646) rotate(85.3036) scale(13.2117)">
<stop stop-color="white"/>
<stop offset="1" stop-color="#FAFAFA"/>
</radialGradient>
<radialGradient id="paint21_radial_703_1699" cx="0" cy="0" r="1" gradientUnits="userSpaceOnUse" gradientTransform="translate(135.26 121.646) rotate(85.3036) scale(13.2117)">
<stop stop-color="white"/>
<stop offset="1" stop-color="#FAFAFA"/>
</radialGradient>
<radialGradient id="paint22_radial_703_1699" cx="0" cy="0" r="1" gradientUnits="userSpaceOnUse" gradientTransform="translate(160.934 121.646) rotate(85.3036) scale(13.2117)">
<stop stop-color="white"/>
<stop offset="1" stop-color="#FAFAFA"/>
</radialGradient>
<radialGradient id="paint23_radial_703_1699" cx="0" cy="0" r="1" gradientUnits="userSpaceOnUse" gradientTransform="translate(186.609 121.646) rotate(85.3036) scale(13.2117)">
<stop stop-color="white"/>
<stop offset="1" stop-color="#FAFAFA"/>
</radialGradient>
<radialGradient id="paint24_radial_703_1699" cx="0" cy="0" r="1" gradientUnits="userSpaceOnUse" gradientTransform="translate(6.89295 42.8923) rotate(85.3036) scale(13.2117)">
<stop stop-color="white"/>
<stop offset="1" stop-color="#FAFAFA"/>
</radialGradient>
<radialGradient id="paint25_radial_703_1699" cx="0" cy="0" r="1" gradientUnits="userSpaceOnUse" gradientTransform="translate(32.5673 42.8923) rotate(85.3036) scale(13.2117)">
<stop stop-color="white"/>
<stop offset="1" stop-color="#FAFAFA"/>
</radialGradient>
<radialGradient id="paint26_radial_703_1699" cx="0" cy="0" r="1" gradientUnits="userSpaceOnUse" gradientTransform="translate(58.2391 42.8923) rotate(85.3036) scale(13.2117)">
<stop stop-color="white"/>
<stop offset="1" stop-color="#FAFAFA"/>
</radialGradient>
<radialGradient id="paint27_radial_703_1699" cx="0" cy="0" r="1" gradientUnits="userSpaceOnUse" gradientTransform="translate(83.9139 42.8923) rotate(85.3036) scale(13.2117)">
<stop stop-color="white"/>
<stop offset="1" stop-color="#FAFAFA"/>
</radialGradient>
<radialGradient id="paint28_radial_703_1699" cx="0" cy="0" r="1" gradientUnits="userSpaceOnUse" gradientTransform="translate(109.588 42.8923) rotate(85.3036) scale(13.2117)">
<stop stop-color="white"/>
<stop offset="1" stop-color="#FAFAFA"/>
</radialGradient>
<radialGradient id="paint29_radial_703_1699" cx="0" cy="0" r="1" gradientUnits="userSpaceOnUse" gradientTransform="translate(135.26 42.8923) rotate(85.3036) scale(13.2117)">
<stop stop-color="white"/>
<stop offset="1" stop-color="#FAFAFA"/>
</radialGradient>
<radialGradient id="paint30_radial_703_1699" cx="0" cy="0" r="1" gradientUnits="userSpaceOnUse" gradientTransform="translate(160.934 42.8923) rotate(85.3036) scale(13.2117)">
<stop stop-color="white"/>
<stop offset="1" stop-color="#FAFAFA"/>
</radialGradient>
<radialGradient id="paint31_radial_703_1699" cx="0" cy="0" r="1" gradientUnits="userSpaceOnUse" gradientTransform="translate(186.609 42.8923) rotate(85.3036) scale(13.2117)">
<stop stop-color="white"/>
<stop offset="1" stop-color="#FAFAFA"/>
</radialGradient>
<radialGradient id="paint32_radial_703_1699" cx="0" cy="0" r="1" gradientUnits="userSpaceOnUse" gradientTransform="translate(6.89295 95.3948) rotate(85.3036) scale(13.2117)">
<stop stop-color="white"/>
<stop offset="1" stop-color="#FAFAFA"/>
</radialGradient>
<radialGradient id="paint33_radial_703_1699" cx="0" cy="0" r="1" gradientUnits="userSpaceOnUse" gradientTransform="translate(32.5673 95.3949) rotate(85.3036) scale(13.2117)">
<stop stop-color="white"/>
<stop offset="1" stop-color="#FAFAFA"/>
</radialGradient>
<radialGradient id="paint34_radial_703_1699" cx="0" cy="0" r="1" gradientUnits="userSpaceOnUse" gradientTransform="translate(58.2391 95.3948) rotate(85.3036) scale(13.2117)">
<stop stop-color="white"/>
<stop offset="1" stop-color="#FAFAFA"/>
</radialGradient>
<radialGradient id="paint35_radial_703_1699" cx="0" cy="0" r="1" gradientUnits="userSpaceOnUse" gradientTransform="translate(83.9139 95.3949) rotate(85.3036) scale(13.2117)">
<stop stop-color="white"/>
<stop offset="1" stop-color="#FAFAFA"/>
</radialGradient>
<radialGradient id="paint36_radial_703_1699" cx="0" cy="0" r="1" gradientUnits="userSpaceOnUse" gradientTransform="translate(109.588 95.3948) rotate(85.3036) scale(13.2117)">
<stop stop-color="white"/>
<stop offset="1" stop-color="#FAFAFA"/>
</radialGradient>
<radialGradient id="paint37_radial_703_1699" cx="0" cy="0" r="1" gradientUnits="userSpaceOnUse" gradientTransform="translate(135.26 95.3949) rotate(85.3036) scale(13.2117)">
<stop stop-color="white"/>
<stop offset="1" stop-color="#FAFAFA"/>
</radialGradient>
<radialGradient id="paint38_radial_703_1699" cx="0" cy="0" r="1" gradientUnits="userSpaceOnUse" gradientTransform="translate(160.934 95.3949) rotate(85.3036) scale(13.2117)">
<stop stop-color="white"/>
<stop offset="1" stop-color="#FAFAFA"/>
</radialGradient>
<radialGradient id="paint39_radial_703_1699" cx="0" cy="0" r="1" gradientUnits="userSpaceOnUse" gradientTransform="translate(186.609 95.3948) rotate(85.3036) scale(13.2117)">
<stop stop-color="white"/>
<stop offset="1" stop-color="#FAFAFA"/>
</radialGradient>
<radialGradient id="paint40_radial_703_1699" cx="0" cy="0" r="1" gradientUnits="userSpaceOnUse" gradientTransform="translate(6.89295 147.897) rotate(85.3036) scale(13.2117)">
<stop stop-color="white"/>
<stop offset="1" stop-color="#FAFAFA"/>
</radialGradient>
<radialGradient id="paint41_radial_703_1699" cx="0" cy="0" r="1" gradientUnits="userSpaceOnUse" gradientTransform="translate(32.5673 147.897) rotate(85.3036) scale(13.2117)">
<stop stop-color="white"/>
<stop offset="1" stop-color="#FAFAFA"/>
</radialGradient>
<radialGradient id="paint42_radial_703_1699" cx="0" cy="0" r="1" gradientUnits="userSpaceOnUse" gradientTransform="translate(58.2391 147.897) rotate(85.3036) scale(13.2117)">
<stop stop-color="white"/>
<stop offset="1" stop-color="#FAFAFA"/>
</radialGradient>
<radialGradient id="paint43_radial_703_1699" cx="0" cy="0" r="1" gradientUnits="userSpaceOnUse" gradientTransform="translate(83.9139 147.897) rotate(85.3036) scale(13.2117)">
<stop stop-color="white"/>
<stop offset="1" stop-color="#FAFAFA"/>
</radialGradient>
<radialGradient id="paint44_radial_703_1699" cx="0" cy="0" r="1" gradientUnits="userSpaceOnUse" gradientTransform="translate(109.588 147.897) rotate(85.3036) scale(13.2117)">
<stop stop-color="white"/>
<stop offset="1" stop-color="#FAFAFA"/>
</radialGradient>
<radialGradient id="paint45_radial_703_1699" cx="0" cy="0" r="1" gradientUnits="userSpaceOnUse" gradientTransform="translate(135.26 147.897) rotate(85.3036) scale(13.2117)">
<stop stop-color="white"/>
<stop offset="1" stop-color="#FAFAFA"/>
</radialGradient>
<radialGradient id="paint46_radial_703_1699" cx="0" cy="0" r="1" gradientUnits="userSpaceOnUse" gradientTransform="translate(160.934 147.897) rotate(85.3036) scale(13.2117)">
<stop stop-color="white"/>
<stop offset="1" stop-color="#FAFAFA"/>
</radialGradient>
<radialGradient id="paint47_radial_703_1699" cx="0" cy="0" r="1" gradientUnits="userSpaceOnUse" gradientTransform="translate(186.609 147.897) rotate(85.3036) scale(13.2117)">
<stop stop-color="white"/>
<stop offset="1" stop-color="#FAFAFA"/>
</radialGradient>
</defs>
</svg>
