<svg width="216" height="163" viewBox="0 0 216 163" fill="none" xmlns="http://www.w3.org/2000/svg">
<rect y="10.5379" width="14.9028" height="14.9028" rx="3.33859" transform="rotate(-45 0 10.5379)" fill="url(#paint0_radial_58_3)" fill-opacity="0.5"/>
<rect x="27.7544" y="10.5379" width="14.9028" height="14.9028" rx="3.33859" transform="rotate(-45 27.7544 10.5379)" fill="url(#paint1_radial_58_3)" fill-opacity="0.5"/>
<rect x="55.5063" y="10.5379" width="14.9028" height="14.9028" rx="3.33859" transform="rotate(-45 55.5063 10.5379)" fill="url(#paint2_radial_58_3)" fill-opacity="0.5"/>
<rect x="83.2646" y="10.5379" width="14.9028" height="14.9028" rx="3.33859" transform="rotate(-45 83.2646 10.5379)" fill="url(#paint3_radial_58_3)" fill-opacity="0.5"/>
<rect x="111.015" y="10.5379" width="14.9028" height="14.9028" rx="3.33859" transform="rotate(-45 111.015 10.5379)" fill="url(#paint4_radial_58_3)" fill-opacity="0.5"/>
<rect x="138.77" y="10.5379" width="14.9028" height="14.9028" rx="3.33859" transform="rotate(-45 138.77 10.5379)" fill="url(#paint5_radial_58_3)" fill-opacity="0.5"/>
<rect x="166.524" y="10.5379" width="14.9028" height="14.9028" rx="3.33859" transform="rotate(-45 166.524 10.5379)" fill="url(#paint6_radial_58_3)" fill-opacity="0.5"/>
<rect x="194.275" y="10.5379" width="14.9028" height="14.9028" rx="3.33859" transform="rotate(-45 194.275 10.5379)" fill="url(#paint7_radial_58_3)" fill-opacity="0.5"/>
<rect y="67.2946" width="14.9028" height="14.9028" rx="3.33859" transform="rotate(-45 0 67.2946)" fill="url(#paint8_radial_58_3)" fill-opacity="0.5"/>
<rect x="27.7544" y="67.2947" width="14.9028" height="14.9028" rx="3.33859" transform="rotate(-45 27.7544 67.2947)" fill="url(#paint9_radial_58_3)" fill-opacity="0.5"/>
<rect x="55.5063" y="67.2947" width="14.9028" height="14.9028" rx="3.33859" transform="rotate(-45 55.5063 67.2947)" fill="url(#paint10_radial_58_3)" fill-opacity="0.5"/>
<rect x="83.2646" y="67.2947" width="14.9028" height="14.9028" rx="3.33859" transform="rotate(-45 83.2646 67.2947)" fill="url(#paint11_radial_58_3)" fill-opacity="0.5"/>
<rect x="111.015" y="67.2947" width="14.9028" height="14.9028" rx="3.33859" transform="rotate(-45 111.015 67.2947)" fill="url(#paint12_radial_58_3)" fill-opacity="0.5"/>
<rect x="138.77" y="67.2947" width="14.9028" height="14.9028" rx="3.33859" transform="rotate(-45 138.77 67.2947)" fill="url(#paint13_radial_58_3)" fill-opacity="0.5"/>
<rect x="166.524" y="67.2947" width="14.9028" height="14.9028" rx="3.33859" transform="rotate(-45 166.524 67.2947)" fill="url(#paint14_radial_58_3)" fill-opacity="0.5"/>
<rect x="194.275" y="67.2947" width="14.9028" height="14.9028" rx="3.33859" transform="rotate(-45 194.275 67.2947)" fill="url(#paint15_radial_58_3)" fill-opacity="0.5"/>
<rect y="124.05" width="14.9028" height="14.9028" rx="3.33859" transform="rotate(-45 0 124.05)" fill="url(#paint16_radial_58_3)" fill-opacity="0.5"/>
<rect x="27.7544" y="124.05" width="14.9028" height="14.9028" rx="3.33859" transform="rotate(-45 27.7544 124.05)" fill="url(#paint17_radial_58_3)" fill-opacity="0.5"/>
<rect x="55.5063" y="124.05" width="14.9028" height="14.9028" rx="3.33859" transform="rotate(-45 55.5063 124.05)" fill="url(#paint18_radial_58_3)" fill-opacity="0.5"/>
<rect x="83.2646" y="124.05" width="14.9028" height="14.9028" rx="3.33859" transform="rotate(-45 83.2646 124.05)" fill="url(#paint19_radial_58_3)" fill-opacity="0.5"/>
<rect x="111.015" y="124.05" width="14.9028" height="14.9028" rx="3.33859" transform="rotate(-45 111.015 124.05)" fill="url(#paint20_radial_58_3)" fill-opacity="0.5"/>
<rect x="138.77" y="124.05" width="14.9028" height="14.9028" rx="3.33859" transform="rotate(-45 138.77 124.05)" fill="url(#paint21_radial_58_3)" fill-opacity="0.5"/>
<rect x="166.524" y="124.05" width="14.9028" height="14.9028" rx="3.33859" transform="rotate(-45 166.524 124.05)" fill="url(#paint22_radial_58_3)" fill-opacity="0.5"/>
<rect x="194.275" y="124.05" width="14.9028" height="14.9028" rx="3.33859" transform="rotate(-45 194.275 124.05)" fill="url(#paint23_radial_58_3)" fill-opacity="0.5"/>
<rect y="38.9161" width="14.9028" height="14.9028" rx="3.33859" transform="rotate(-45 0 38.9161)" fill="url(#paint24_radial_58_3)" fill-opacity="0.5"/>
<rect x="27.7544" y="38.9162" width="14.9028" height="14.9028" rx="3.33859" transform="rotate(-45 27.7544 38.9162)" fill="url(#paint25_radial_58_3)" fill-opacity="0.5"/>
<rect x="55.5063" y="38.9162" width="14.9028" height="14.9028" rx="3.33859" transform="rotate(-45 55.5063 38.9162)" fill="url(#paint26_radial_58_3)" fill-opacity="0.5"/>
<rect x="83.2646" y="38.9162" width="14.9028" height="14.9028" rx="3.33859" transform="rotate(-45 83.2646 38.9162)" fill="url(#paint27_radial_58_3)" fill-opacity="0.5"/>
<rect x="111.015" y="38.9162" width="14.9028" height="14.9028" rx="3.33859" transform="rotate(-45 111.015 38.9162)" fill="url(#paint28_radial_58_3)" fill-opacity="0.5"/>
<rect x="138.77" y="38.9162" width="14.9028" height="14.9028" rx="3.33859" transform="rotate(-45 138.77 38.9162)" fill="url(#paint29_radial_58_3)" fill-opacity="0.5"/>
<rect x="166.524" y="38.9162" width="14.9028" height="14.9028" rx="3.33859" transform="rotate(-45 166.524 38.9162)" fill="url(#paint30_radial_58_3)" fill-opacity="0.5"/>
<rect x="194.275" y="38.9162" width="14.9028" height="14.9028" rx="3.33859" transform="rotate(-45 194.275 38.9162)" fill="url(#paint31_radial_58_3)" fill-opacity="0.5"/>
<rect y="95.6729" width="14.9028" height="14.9028" rx="3.33859" transform="rotate(-45 0 95.6729)" fill="url(#paint32_radial_58_3)" fill-opacity="0.5"/>
<rect x="27.7544" y="95.673" width="14.9028" height="14.9028" rx="3.33859" transform="rotate(-45 27.7544 95.673)" fill="url(#paint33_radial_58_3)" fill-opacity="0.5"/>
<rect x="55.5063" y="95.673" width="14.9028" height="14.9028" rx="3.33859" transform="rotate(-45 55.5063 95.673)" fill="url(#paint34_radial_58_3)" fill-opacity="0.5"/>
<rect x="83.2646" y="95.673" width="14.9028" height="14.9028" rx="3.33859" transform="rotate(-45 83.2646 95.673)" fill="url(#paint35_radial_58_3)" fill-opacity="0.5"/>
<rect x="111.015" y="95.673" width="14.9028" height="14.9028" rx="3.33859" transform="rotate(-45 111.015 95.673)" fill="url(#paint36_radial_58_3)" fill-opacity="0.5"/>
<rect x="138.77" y="95.673" width="14.9028" height="14.9028" rx="3.33859" transform="rotate(-45 138.77 95.673)" fill="url(#paint37_radial_58_3)" fill-opacity="0.5"/>
<rect x="166.524" y="95.673" width="14.9028" height="14.9028" rx="3.33859" transform="rotate(-45 166.524 95.673)" fill="url(#paint38_radial_58_3)" fill-opacity="0.5"/>
<rect x="194.275" y="95.673" width="14.9028" height="14.9028" rx="3.33859" transform="rotate(-45 194.275 95.673)" fill="url(#paint39_radial_58_3)" fill-opacity="0.5"/>
<rect y="152.429" width="14.9028" height="14.9028" rx="3.33859" transform="rotate(-45 0 152.429)" fill="url(#paint40_radial_58_3)" fill-opacity="0.5"/>
<rect x="27.7544" y="152.428" width="14.9028" height="14.9028" rx="3.33859" transform="rotate(-45 27.7544 152.428)" fill="url(#paint41_radial_58_3)" fill-opacity="0.5"/>
<rect x="55.5063" y="152.428" width="14.9028" height="14.9028" rx="3.33859" transform="rotate(-45 55.5063 152.428)" fill="url(#paint42_radial_58_3)" fill-opacity="0.5"/>
<rect x="83.2646" y="152.428" width="14.9028" height="14.9028" rx="3.33859" transform="rotate(-45 83.2646 152.428)" fill="url(#paint43_radial_58_3)" fill-opacity="0.5"/>
<rect x="111.015" y="152.428" width="14.9028" height="14.9028" rx="3.33859" transform="rotate(-45 111.015 152.428)" fill="url(#paint44_radial_58_3)" fill-opacity="0.5"/>
<rect x="138.77" y="152.428" width="14.9028" height="14.9028" rx="3.33859" transform="rotate(-45 138.77 152.428)" fill="url(#paint45_radial_58_3)" fill-opacity="0.5"/>
<rect x="166.524" y="152.428" width="14.9028" height="14.9028" rx="3.33859" transform="rotate(-45 166.524 152.428)" fill="url(#paint46_radial_58_3)" fill-opacity="0.5"/>
<rect x="194.275" y="152.428" width="14.9028" height="14.9028" rx="3.33859" transform="rotate(-45 194.275 152.428)" fill="url(#paint47_radial_58_3)" fill-opacity="0.5"/>
<defs>
<radialGradient id="paint0_radial_58_3" cx="0" cy="0" r="1" gradientUnits="userSpaceOnUse" gradientTransform="translate(7.45141 17.9893) rotate(85.3036) scale(14.2821)">
<stop stop-color="#F6F5F5"/>
<stop offset="1" stop-color="#FAFAFA"/>
</radialGradient>
<radialGradient id="paint1_radial_58_3" cx="0" cy="0" r="1" gradientUnits="userSpaceOnUse" gradientTransform="translate(35.2058 17.9893) rotate(85.3036) scale(14.2821)">
<stop stop-color="#F6F5F5"/>
<stop offset="1" stop-color="#FAFAFA"/>
</radialGradient>
<radialGradient id="paint2_radial_58_3" cx="0" cy="0" r="1" gradientUnits="userSpaceOnUse" gradientTransform="translate(62.9578 17.9893) rotate(85.3036) scale(14.2821)">
<stop stop-color="#F6F5F5"/>
<stop offset="1" stop-color="#FAFAFA"/>
</radialGradient>
<radialGradient id="paint3_radial_58_3" cx="0" cy="0" r="1" gradientUnits="userSpaceOnUse" gradientTransform="translate(90.716 17.9893) rotate(85.3036) scale(14.2821)">
<stop stop-color="#F6F5F5"/>
<stop offset="1" stop-color="#FAFAFA"/>
</radialGradient>
<radialGradient id="paint4_radial_58_3" cx="0" cy="0" r="1" gradientUnits="userSpaceOnUse" gradientTransform="translate(118.466 17.9893) rotate(85.3036) scale(14.2821)">
<stop stop-color="#F6F5F5"/>
<stop offset="1" stop-color="#FAFAFA"/>
</radialGradient>
<radialGradient id="paint5_radial_58_3" cx="0" cy="0" r="1" gradientUnits="userSpaceOnUse" gradientTransform="translate(146.221 17.9893) rotate(85.3036) scale(14.2821)">
<stop stop-color="#F6F5F5"/>
<stop offset="1" stop-color="#FAFAFA"/>
</radialGradient>
<radialGradient id="paint6_radial_58_3" cx="0" cy="0" r="1" gradientUnits="userSpaceOnUse" gradientTransform="translate(173.975 17.9893) rotate(85.3036) scale(14.2821)">
<stop stop-color="#F6F5F5"/>
<stop offset="1" stop-color="#FAFAFA"/>
</radialGradient>
<radialGradient id="paint7_radial_58_3" cx="0" cy="0" r="1" gradientUnits="userSpaceOnUse" gradientTransform="translate(201.726 17.9893) rotate(85.3036) scale(14.2821)">
<stop stop-color="#F6F5F5"/>
<stop offset="1" stop-color="#FAFAFA"/>
</radialGradient>
<radialGradient id="paint8_radial_58_3" cx="0" cy="0" r="1" gradientUnits="userSpaceOnUse" gradientTransform="translate(7.45141 74.7461) rotate(85.3036) scale(14.2821)">
<stop stop-color="#F6F5F5"/>
<stop offset="1" stop-color="#FAFAFA"/>
</radialGradient>
<radialGradient id="paint9_radial_58_3" cx="0" cy="0" r="1" gradientUnits="userSpaceOnUse" gradientTransform="translate(35.2058 74.7461) rotate(85.3036) scale(14.2821)">
<stop stop-color="#F6F5F5"/>
<stop offset="1" stop-color="#FAFAFA"/>
</radialGradient>
<radialGradient id="paint10_radial_58_3" cx="0" cy="0" r="1" gradientUnits="userSpaceOnUse" gradientTransform="translate(62.9578 74.7461) rotate(85.3036) scale(14.2821)">
<stop stop-color="#F6F5F5"/>
<stop offset="1" stop-color="#FAFAFA"/>
</radialGradient>
<radialGradient id="paint11_radial_58_3" cx="0" cy="0" r="1" gradientUnits="userSpaceOnUse" gradientTransform="translate(90.716 74.7461) rotate(85.3036) scale(14.2821)">
<stop stop-color="#F6F5F5"/>
<stop offset="1" stop-color="#FAFAFA"/>
</radialGradient>
<radialGradient id="paint12_radial_58_3" cx="0" cy="0" r="1" gradientUnits="userSpaceOnUse" gradientTransform="translate(118.466 74.7461) rotate(85.3036) scale(14.2821)">
<stop stop-color="#F6F5F5"/>
<stop offset="1" stop-color="#FAFAFA"/>
</radialGradient>
<radialGradient id="paint13_radial_58_3" cx="0" cy="0" r="1" gradientUnits="userSpaceOnUse" gradientTransform="translate(146.221 74.7461) rotate(85.3036) scale(14.2821)">
<stop stop-color="#F6F5F5"/>
<stop offset="1" stop-color="#FAFAFA"/>
</radialGradient>
<radialGradient id="paint14_radial_58_3" cx="0" cy="0" r="1" gradientUnits="userSpaceOnUse" gradientTransform="translate(173.975 74.7461) rotate(85.3036) scale(14.2821)">
<stop stop-color="#F6F5F5"/>
<stop offset="1" stop-color="#FAFAFA"/>
</radialGradient>
<radialGradient id="paint15_radial_58_3" cx="0" cy="0" r="1" gradientUnits="userSpaceOnUse" gradientTransform="translate(201.726 74.7461) rotate(85.3036) scale(14.2821)">
<stop stop-color="#F6F5F5"/>
<stop offset="1" stop-color="#FAFAFA"/>
</radialGradient>
<radialGradient id="paint16_radial_58_3" cx="0" cy="0" r="1" gradientUnits="userSpaceOnUse" gradientTransform="translate(7.45141 131.502) rotate(85.3036) scale(14.2821)">
<stop stop-color="#F6F5F5"/>
<stop offset="1" stop-color="#FAFAFA"/>
</radialGradient>
<radialGradient id="paint17_radial_58_3" cx="0" cy="0" r="1" gradientUnits="userSpaceOnUse" gradientTransform="translate(35.2058 131.501) rotate(85.3036) scale(14.2821)">
<stop stop-color="#F6F5F5"/>
<stop offset="1" stop-color="#FAFAFA"/>
</radialGradient>
<radialGradient id="paint18_radial_58_3" cx="0" cy="0" r="1" gradientUnits="userSpaceOnUse" gradientTransform="translate(62.9578 131.501) rotate(85.3036) scale(14.2821)">
<stop stop-color="#F6F5F5"/>
<stop offset="1" stop-color="#FAFAFA"/>
</radialGradient>
<radialGradient id="paint19_radial_58_3" cx="0" cy="0" r="1" gradientUnits="userSpaceOnUse" gradientTransform="translate(90.716 131.502) rotate(85.3036) scale(14.2821)">
<stop stop-color="#F6F5F5"/>
<stop offset="1" stop-color="#FAFAFA"/>
</radialGradient>
<radialGradient id="paint20_radial_58_3" cx="0" cy="0" r="1" gradientUnits="userSpaceOnUse" gradientTransform="translate(118.466 131.501) rotate(85.3036) scale(14.2821)">
<stop stop-color="#F6F5F5"/>
<stop offset="1" stop-color="#FAFAFA"/>
</radialGradient>
<radialGradient id="paint21_radial_58_3" cx="0" cy="0" r="1" gradientUnits="userSpaceOnUse" gradientTransform="translate(146.221 131.501) rotate(85.3036) scale(14.2821)">
<stop stop-color="#F6F5F5"/>
<stop offset="1" stop-color="#FAFAFA"/>
</radialGradient>
<radialGradient id="paint22_radial_58_3" cx="0" cy="0" r="1" gradientUnits="userSpaceOnUse" gradientTransform="translate(173.975 131.501) rotate(85.3036) scale(14.2821)">
<stop stop-color="#F6F5F5"/>
<stop offset="1" stop-color="#FAFAFA"/>
</radialGradient>
<radialGradient id="paint23_radial_58_3" cx="0" cy="0" r="1" gradientUnits="userSpaceOnUse" gradientTransform="translate(201.726 131.501) rotate(85.3036) scale(14.2821)">
<stop stop-color="#F6F5F5"/>
<stop offset="1" stop-color="#FAFAFA"/>
</radialGradient>
<radialGradient id="paint24_radial_58_3" cx="0" cy="0" r="1" gradientUnits="userSpaceOnUse" gradientTransform="translate(7.45141 46.3675) rotate(85.3036) scale(14.2821)">
<stop stop-color="#F6F5F5"/>
<stop offset="1" stop-color="#FAFAFA"/>
</radialGradient>
<radialGradient id="paint25_radial_58_3" cx="0" cy="0" r="1" gradientUnits="userSpaceOnUse" gradientTransform="translate(35.2058 46.3676) rotate(85.3036) scale(14.2821)">
<stop stop-color="#F6F5F5"/>
<stop offset="1" stop-color="#FAFAFA"/>
</radialGradient>
<radialGradient id="paint26_radial_58_3" cx="0" cy="0" r="1" gradientUnits="userSpaceOnUse" gradientTransform="translate(62.9578 46.3676) rotate(85.3036) scale(14.2821)">
<stop stop-color="#F6F5F5"/>
<stop offset="1" stop-color="#FAFAFA"/>
</radialGradient>
<radialGradient id="paint27_radial_58_3" cx="0" cy="0" r="1" gradientUnits="userSpaceOnUse" gradientTransform="translate(90.716 46.3676) rotate(85.3036) scale(14.2821)">
<stop stop-color="#F6F5F5"/>
<stop offset="1" stop-color="#FAFAFA"/>
</radialGradient>
<radialGradient id="paint28_radial_58_3" cx="0" cy="0" r="1" gradientUnits="userSpaceOnUse" gradientTransform="translate(118.466 46.3676) rotate(85.3036) scale(14.2821)">
<stop stop-color="#F6F5F5"/>
<stop offset="1" stop-color="#FAFAFA"/>
</radialGradient>
<radialGradient id="paint29_radial_58_3" cx="0" cy="0" r="1" gradientUnits="userSpaceOnUse" gradientTransform="translate(146.221 46.3676) rotate(85.3036) scale(14.2821)">
<stop stop-color="#F6F5F5"/>
<stop offset="1" stop-color="#FAFAFA"/>
</radialGradient>
<radialGradient id="paint30_radial_58_3" cx="0" cy="0" r="1" gradientUnits="userSpaceOnUse" gradientTransform="translate(173.975 46.3676) rotate(85.3036) scale(14.2821)">
<stop stop-color="#F6F5F5"/>
<stop offset="1" stop-color="#FAFAFA"/>
</radialGradient>
<radialGradient id="paint31_radial_58_3" cx="0" cy="0" r="1" gradientUnits="userSpaceOnUse" gradientTransform="translate(201.726 46.3676) rotate(85.3036) scale(14.2821)">
<stop stop-color="#F6F5F5"/>
<stop offset="1" stop-color="#FAFAFA"/>
</radialGradient>
<radialGradient id="paint32_radial_58_3" cx="0" cy="0" r="1" gradientUnits="userSpaceOnUse" gradientTransform="translate(7.45141 103.124) rotate(85.3036) scale(14.2821)">
<stop stop-color="#F6F5F5"/>
<stop offset="1" stop-color="#FAFAFA"/>
</radialGradient>
<radialGradient id="paint33_radial_58_3" cx="0" cy="0" r="1" gradientUnits="userSpaceOnUse" gradientTransform="translate(35.2058 103.124) rotate(85.3036) scale(14.2821)">
<stop stop-color="#F6F5F5"/>
<stop offset="1" stop-color="#FAFAFA"/>
</radialGradient>
<radialGradient id="paint34_radial_58_3" cx="0" cy="0" r="1" gradientUnits="userSpaceOnUse" gradientTransform="translate(62.9578 103.124) rotate(85.3036) scale(14.2821)">
<stop stop-color="#F6F5F5"/>
<stop offset="1" stop-color="#FAFAFA"/>
</radialGradient>
<radialGradient id="paint35_radial_58_3" cx="0" cy="0" r="1" gradientUnits="userSpaceOnUse" gradientTransform="translate(90.716 103.124) rotate(85.3036) scale(14.2821)">
<stop stop-color="#F6F5F5"/>
<stop offset="1" stop-color="#FAFAFA"/>
</radialGradient>
<radialGradient id="paint36_radial_58_3" cx="0" cy="0" r="1" gradientUnits="userSpaceOnUse" gradientTransform="translate(118.466 103.124) rotate(85.3036) scale(14.2821)">
<stop stop-color="#F6F5F5"/>
<stop offset="1" stop-color="#FAFAFA"/>
</radialGradient>
<radialGradient id="paint37_radial_58_3" cx="0" cy="0" r="1" gradientUnits="userSpaceOnUse" gradientTransform="translate(146.221 103.124) rotate(85.3036) scale(14.2821)">
<stop stop-color="#F6F5F5"/>
<stop offset="1" stop-color="#FAFAFA"/>
</radialGradient>
<radialGradient id="paint38_radial_58_3" cx="0" cy="0" r="1" gradientUnits="userSpaceOnUse" gradientTransform="translate(173.975 103.124) rotate(85.3036) scale(14.2821)">
<stop stop-color="#F6F5F5"/>
<stop offset="1" stop-color="#FAFAFA"/>
</radialGradient>
<radialGradient id="paint39_radial_58_3" cx="0" cy="0" r="1" gradientUnits="userSpaceOnUse" gradientTransform="translate(201.726 103.124) rotate(85.3036) scale(14.2821)">
<stop stop-color="#F6F5F5"/>
<stop offset="1" stop-color="#FAFAFA"/>
</radialGradient>
<radialGradient id="paint40_radial_58_3" cx="0" cy="0" r="1" gradientUnits="userSpaceOnUse" gradientTransform="translate(7.45141 159.88) rotate(85.3036) scale(14.2821)">
<stop stop-color="#F6F5F5"/>
<stop offset="1" stop-color="#FAFAFA"/>
</radialGradient>
<radialGradient id="paint41_radial_58_3" cx="0" cy="0" r="1" gradientUnits="userSpaceOnUse" gradientTransform="translate(35.2058 159.88) rotate(85.3036) scale(14.2821)">
<stop stop-color="#F6F5F5"/>
<stop offset="1" stop-color="#FAFAFA"/>
</radialGradient>
<radialGradient id="paint42_radial_58_3" cx="0" cy="0" r="1" gradientUnits="userSpaceOnUse" gradientTransform="translate(62.9578 159.88) rotate(85.3036) scale(14.2821)">
<stop stop-color="#F6F5F5"/>
<stop offset="1" stop-color="#FAFAFA"/>
</radialGradient>
<radialGradient id="paint43_radial_58_3" cx="0" cy="0" r="1" gradientUnits="userSpaceOnUse" gradientTransform="translate(90.716 159.88) rotate(85.3036) scale(14.2821)">
<stop stop-color="#F6F5F5"/>
<stop offset="1" stop-color="#FAFAFA"/>
</radialGradient>
<radialGradient id="paint44_radial_58_3" cx="0" cy="0" r="1" gradientUnits="userSpaceOnUse" gradientTransform="translate(118.466 159.88) rotate(85.3036) scale(14.2821)">
<stop stop-color="#F6F5F5"/>
<stop offset="1" stop-color="#FAFAFA"/>
</radialGradient>
<radialGradient id="paint45_radial_58_3" cx="0" cy="0" r="1" gradientUnits="userSpaceOnUse" gradientTransform="translate(146.221 159.88) rotate(85.3036) scale(14.2821)">
<stop stop-color="#F6F5F5"/>
<stop offset="1" stop-color="#FAFAFA"/>
</radialGradient>
<radialGradient id="paint46_radial_58_3" cx="0" cy="0" r="1" gradientUnits="userSpaceOnUse" gradientTransform="translate(173.975 159.88) rotate(85.3036) scale(14.2821)">
<stop stop-color="#F6F5F5"/>
<stop offset="1" stop-color="#FAFAFA"/>
</radialGradient>
<radialGradient id="paint47_radial_58_3" cx="0" cy="0" r="1" gradientUnits="userSpaceOnUse" gradientTransform="translate(201.726 159.88) rotate(85.3036) scale(14.2821)">
<stop stop-color="#F6F5F5"/>
<stop offset="1" stop-color="#FAFAFA"/>
</radialGradient>
</defs>
</svg>
