<svg width="148" height="125" viewBox="0 0 148 125" fill="none" xmlns="http://www.w3.org/2000/svg">
<rect x="-14.8735" y="8.82422" width="11.271" height="11.271" rx="2.52498" transform="rotate(-45 -14.8735 8.82422)" fill="url(#paint0_radial_703_1305)" fill-opacity="0.2"/>
<rect x="6.11865" y="8.82422" width="11.271" height="11.271" rx="2.52498" transform="rotate(-45 6.11865 8.82422)" fill="url(#paint1_radial_703_1305)" fill-opacity="0.2"/>
<rect x="27.1045" y="8.82422" width="11.271" height="11.271" rx="2.52498" transform="rotate(-45 27.1045 8.82422)" fill="url(#paint2_radial_703_1305)" fill-opacity="0.2"/>
<rect x="48.0977" y="8.82422" width="11.271" height="11.271" rx="2.52498" transform="rotate(-45 48.0977 8.82422)" fill="url(#paint3_radial_703_1305)" fill-opacity="0.2"/>
<rect x="69.0864" y="8.82422" width="11.271" height="11.271" rx="2.52498" transform="rotate(-45 69.0864 8.82422)" fill="url(#paint4_radial_703_1305)" fill-opacity="0.2"/>
<rect x="90.0762" y="8.82422" width="11.271" height="11.271" rx="2.52498" transform="rotate(-45 90.0762 8.82422)" fill="url(#paint5_radial_703_1305)" fill-opacity="0.2"/>
<rect x="111.069" y="8.82422" width="11.271" height="11.271" rx="2.52498" transform="rotate(-45 111.069 8.82422)" fill="url(#paint6_radial_703_1305)" fill-opacity="0.2"/>
<rect x="132.058" y="8.82422" width="11.271" height="11.271" rx="2.52498" transform="rotate(-45 132.058 8.82422)" fill="url(#paint7_radial_703_1305)" fill-opacity="0.2"/>
<rect x="-14.8735" y="51.7473" width="11.271" height="11.271" rx="2.52498" transform="rotate(-45 -14.8735 51.7473)" fill="url(#paint8_radial_703_1305)" fill-opacity="0.2"/>
<rect x="6.11914" y="51.7473" width="11.271" height="11.271" rx="2.52498" transform="rotate(-45 6.11914 51.7473)" fill="url(#paint9_radial_703_1305)" fill-opacity="0.2"/>
<rect x="27.1045" y="51.7473" width="11.271" height="11.271" rx="2.52498" transform="rotate(-45 27.1045 51.7473)" fill="url(#paint10_radial_703_1305)" fill-opacity="0.2"/>
<rect x="48.0977" y="51.7473" width="11.271" height="11.271" rx="2.52498" transform="rotate(-45 48.0977 51.7473)" fill="url(#paint11_radial_703_1305)" fill-opacity="0.2"/>
<rect x="69.0874" y="51.7473" width="11.271" height="11.271" rx="2.52498" transform="rotate(-45 69.0874 51.7473)" fill="url(#paint12_radial_703_1305)" fill-opacity="0.2"/>
<rect x="90.0762" y="51.7473" width="11.271" height="11.271" rx="2.52498" transform="rotate(-45 90.0762 51.7473)" fill="url(#paint13_radial_703_1305)" fill-opacity="0.2"/>
<rect x="111.069" y="51.7473" width="11.271" height="11.271" rx="2.52498" transform="rotate(-45 111.069 51.7473)" fill="url(#paint14_radial_703_1305)" fill-opacity="0.2"/>
<rect x="132.058" y="51.7473" width="11.271" height="11.271" rx="2.52498" transform="rotate(-45 132.058 51.7473)" fill="url(#paint15_radial_703_1305)" fill-opacity="0.2"/>
<rect x="-14.8735" y="94.6719" width="11.271" height="11.271" rx="2.52498" transform="rotate(-45 -14.8735 94.6719)" fill="url(#paint16_radial_703_1305)" fill-opacity="0.2"/>
<rect x="6.11914" y="94.6719" width="11.271" height="11.271" rx="2.52498" transform="rotate(-45 6.11914 94.6719)" fill="url(#paint17_radial_703_1305)" fill-opacity="0.2"/>
<rect x="27.1045" y="94.6719" width="11.271" height="11.271" rx="2.52498" transform="rotate(-45 27.1045 94.6719)" fill="url(#paint18_radial_703_1305)" fill-opacity="0.2"/>
<rect x="48.0977" y="94.6719" width="11.271" height="11.271" rx="2.52498" transform="rotate(-45 48.0977 94.6719)" fill="url(#paint19_radial_703_1305)" fill-opacity="0.2"/>
<rect x="69.0874" y="94.6719" width="11.271" height="11.271" rx="2.52498" transform="rotate(-45 69.0874 94.6719)" fill="url(#paint20_radial_703_1305)" fill-opacity="0.2"/>
<rect x="90.0762" y="94.6719" width="11.271" height="11.271" rx="2.52498" transform="rotate(-45 90.0762 94.6719)" fill="url(#paint21_radial_703_1305)" fill-opacity="0.2"/>
<rect x="111.069" y="94.6719" width="11.271" height="11.271" rx="2.52498" transform="rotate(-45 111.069 94.6719)" fill="url(#paint22_radial_703_1305)" fill-opacity="0.2"/>
<rect x="132.058" y="94.6719" width="11.271" height="11.271" rx="2.52498" transform="rotate(-45 132.058 94.6719)" fill="url(#paint23_radial_703_1305)" fill-opacity="0.2"/>
<rect x="-14.8735" y="30.2869" width="11.271" height="11.271" rx="2.52498" transform="rotate(-45 -14.8735 30.2869)" fill="url(#paint24_radial_703_1305)" fill-opacity="0.2"/>
<rect x="6.11865" y="30.2869" width="11.271" height="11.271" rx="2.52498" transform="rotate(-45 6.11865 30.2869)" fill="url(#paint25_radial_703_1305)" fill-opacity="0.2"/>
<rect x="27.1045" y="30.2869" width="11.271" height="11.271" rx="2.52498" transform="rotate(-45 27.1045 30.2869)" fill="url(#paint26_radial_703_1305)" fill-opacity="0.2"/>
<rect x="48.0977" y="30.2869" width="11.271" height="11.271" rx="2.52498" transform="rotate(-45 48.0977 30.2869)" fill="url(#paint27_radial_703_1305)" fill-opacity="0.2"/>
<rect x="69.0864" y="30.2869" width="11.271" height="11.271" rx="2.52498" transform="rotate(-45 69.0864 30.2869)" fill="url(#paint28_radial_703_1305)" fill-opacity="0.2"/>
<rect x="90.0762" y="30.2869" width="11.271" height="11.271" rx="2.52498" transform="rotate(-45 90.0762 30.2869)" fill="url(#paint29_radial_703_1305)" fill-opacity="0.2"/>
<rect x="111.069" y="30.2869" width="11.271" height="11.271" rx="2.52498" transform="rotate(-45 111.069 30.2869)" fill="url(#paint30_radial_703_1305)" fill-opacity="0.2"/>
<rect x="132.058" y="30.2869" width="11.271" height="11.271" rx="2.52498" transform="rotate(-45 132.058 30.2869)" fill="url(#paint31_radial_703_1305)" fill-opacity="0.2"/>
<rect x="-14.8735" y="73.2095" width="11.271" height="11.271" rx="2.52498" transform="rotate(-45 -14.8735 73.2095)" fill="url(#paint32_radial_703_1305)" fill-opacity="0.2"/>
<rect x="6.11914" y="73.2095" width="11.271" height="11.271" rx="2.52498" transform="rotate(-45 6.11914 73.2095)" fill="url(#paint33_radial_703_1305)" fill-opacity="0.2"/>
<rect x="27.1045" y="73.2095" width="11.271" height="11.271" rx="2.52498" transform="rotate(-45 27.1045 73.2095)" fill="url(#paint34_radial_703_1305)" fill-opacity="0.2"/>
<rect x="48.0977" y="73.2095" width="11.271" height="11.271" rx="2.52498" transform="rotate(-45 48.0977 73.2095)" fill="url(#paint35_radial_703_1305)" fill-opacity="0.2"/>
<rect x="69.0864" y="73.2095" width="11.271" height="11.271" rx="2.52498" transform="rotate(-45 69.0864 73.2095)" fill="url(#paint36_radial_703_1305)" fill-opacity="0.2"/>
<rect x="90.0762" y="73.2095" width="11.271" height="11.271" rx="2.52498" transform="rotate(-45 90.0762 73.2095)" fill="url(#paint37_radial_703_1305)" fill-opacity="0.2"/>
<rect x="111.069" y="73.2095" width="11.271" height="11.271" rx="2.52498" transform="rotate(-45 111.069 73.2095)" fill="url(#paint38_radial_703_1305)" fill-opacity="0.2"/>
<rect x="132.058" y="73.2095" width="11.271" height="11.271" rx="2.52498" transform="rotate(-45 132.058 73.2095)" fill="url(#paint39_radial_703_1305)" fill-opacity="0.2"/>
<rect x="-14.8735" y="116.135" width="11.271" height="11.271" rx="2.52498" transform="rotate(-45 -14.8735 116.135)" fill="url(#paint40_radial_703_1305)" fill-opacity="0.2"/>
<rect x="6.11914" y="116.135" width="11.271" height="11.271" rx="2.52498" transform="rotate(-45 6.11914 116.135)" fill="url(#paint41_radial_703_1305)" fill-opacity="0.2"/>
<rect x="27.1045" y="116.135" width="11.271" height="11.271" rx="2.52498" transform="rotate(-45 27.1045 116.135)" fill="url(#paint42_radial_703_1305)" fill-opacity="0.2"/>
<rect x="48.0977" y="116.135" width="11.271" height="11.271" rx="2.52498" transform="rotate(-45 48.0977 116.135)" fill="url(#paint43_radial_703_1305)" fill-opacity="0.2"/>
<rect x="69.0864" y="116.135" width="11.271" height="11.271" rx="2.52498" transform="rotate(-45 69.0864 116.135)" fill="url(#paint44_radial_703_1305)" fill-opacity="0.2"/>
<rect x="90.0762" y="116.135" width="11.271" height="11.271" rx="2.52498" transform="rotate(-45 90.0762 116.135)" fill="url(#paint45_radial_703_1305)" fill-opacity="0.2"/>
<rect x="111.069" y="116.135" width="11.271" height="11.271" rx="2.52498" transform="rotate(-45 111.069 116.135)" fill="url(#paint46_radial_703_1305)" fill-opacity="0.2"/>
<rect x="132.058" y="116.135" width="11.271" height="11.271" rx="2.52498" transform="rotate(-45 132.058 116.135)" fill="url(#paint47_radial_703_1305)" fill-opacity="0.2"/>
<defs>
<radialGradient id="paint0_radial_703_1305" cx="0" cy="0" r="1" gradientUnits="userSpaceOnUse" gradientTransform="translate(-9.23802 14.4597) rotate(85.3036) scale(10.8016)">
<stop stop-color="white"/>
<stop offset="1" stop-color="#FAFAFA"/>
</radialGradient>
<radialGradient id="paint1_radial_703_1305" cx="0" cy="0" r="1" gradientUnits="userSpaceOnUse" gradientTransform="translate(11.7542 14.4597) rotate(85.3036) scale(10.8016)">
<stop stop-color="white"/>
<stop offset="1" stop-color="#FAFAFA"/>
</radialGradient>
<radialGradient id="paint2_radial_703_1305" cx="0" cy="0" r="1" gradientUnits="userSpaceOnUse" gradientTransform="translate(32.74 14.4597) rotate(85.3036) scale(10.8016)">
<stop stop-color="white"/>
<stop offset="1" stop-color="#FAFAFA"/>
</radialGradient>
<radialGradient id="paint3_radial_703_1305" cx="0" cy="0" r="1" gradientUnits="userSpaceOnUse" gradientTransform="translate(53.7332 14.4597) rotate(85.3036) scale(10.8016)">
<stop stop-color="white"/>
<stop offset="1" stop-color="#FAFAFA"/>
</radialGradient>
<radialGradient id="paint4_radial_703_1305" cx="0" cy="0" r="1" gradientUnits="userSpaceOnUse" gradientTransform="translate(74.7219 14.4597) rotate(85.3036) scale(10.8016)">
<stop stop-color="white"/>
<stop offset="1" stop-color="#FAFAFA"/>
</radialGradient>
<radialGradient id="paint5_radial_703_1305" cx="0" cy="0" r="1" gradientUnits="userSpaceOnUse" gradientTransform="translate(95.7117 14.4597) rotate(85.3036) scale(10.8016)">
<stop stop-color="white"/>
<stop offset="1" stop-color="#FAFAFA"/>
</radialGradient>
<radialGradient id="paint6_radial_703_1305" cx="0" cy="0" r="1" gradientUnits="userSpaceOnUse" gradientTransform="translate(116.704 14.4597) rotate(85.3036) scale(10.8016)">
<stop stop-color="white"/>
<stop offset="1" stop-color="#FAFAFA"/>
</radialGradient>
<radialGradient id="paint7_radial_703_1305" cx="0" cy="0" r="1" gradientUnits="userSpaceOnUse" gradientTransform="translate(137.693 14.4597) rotate(85.3036) scale(10.8016)">
<stop stop-color="white"/>
<stop offset="1" stop-color="#FAFAFA"/>
</radialGradient>
<radialGradient id="paint8_radial_703_1305" cx="0" cy="0" r="1" gradientUnits="userSpaceOnUse" gradientTransform="translate(-9.23802 57.3828) rotate(85.3036) scale(10.8016)">
<stop stop-color="white"/>
<stop offset="1" stop-color="#FAFAFA"/>
</radialGradient>
<radialGradient id="paint9_radial_703_1305" cx="0" cy="0" r="1" gradientUnits="userSpaceOnUse" gradientTransform="translate(11.7547 57.3828) rotate(85.3036) scale(10.8016)">
<stop stop-color="white"/>
<stop offset="1" stop-color="#FAFAFA"/>
</radialGradient>
<radialGradient id="paint10_radial_703_1305" cx="0" cy="0" r="1" gradientUnits="userSpaceOnUse" gradientTransform="translate(32.74 57.3828) rotate(85.3036) scale(10.8016)">
<stop stop-color="white"/>
<stop offset="1" stop-color="#FAFAFA"/>
</radialGradient>
<radialGradient id="paint11_radial_703_1305" cx="0" cy="0" r="1" gradientUnits="userSpaceOnUse" gradientTransform="translate(53.7332 57.3828) rotate(85.3036) scale(10.8016)">
<stop stop-color="white"/>
<stop offset="1" stop-color="#FAFAFA"/>
</radialGradient>
<radialGradient id="paint12_radial_703_1305" cx="0" cy="0" r="1" gradientUnits="userSpaceOnUse" gradientTransform="translate(74.7229 57.3828) rotate(85.3036) scale(10.8016)">
<stop stop-color="white"/>
<stop offset="1" stop-color="#FAFAFA"/>
</radialGradient>
<radialGradient id="paint13_radial_703_1305" cx="0" cy="0" r="1" gradientUnits="userSpaceOnUse" gradientTransform="translate(95.7117 57.3828) rotate(85.3036) scale(10.8016)">
<stop stop-color="white"/>
<stop offset="1" stop-color="#FAFAFA"/>
</radialGradient>
<radialGradient id="paint14_radial_703_1305" cx="0" cy="0" r="1" gradientUnits="userSpaceOnUse" gradientTransform="translate(116.704 57.3828) rotate(85.3036) scale(10.8016)">
<stop stop-color="white"/>
<stop offset="1" stop-color="#FAFAFA"/>
</radialGradient>
<radialGradient id="paint15_radial_703_1305" cx="0" cy="0" r="1" gradientUnits="userSpaceOnUse" gradientTransform="translate(137.693 57.3828) rotate(85.3036) scale(10.8016)">
<stop stop-color="white"/>
<stop offset="1" stop-color="#FAFAFA"/>
</radialGradient>
<radialGradient id="paint16_radial_703_1305" cx="0" cy="0" r="1" gradientUnits="userSpaceOnUse" gradientTransform="translate(-9.23802 100.307) rotate(85.3036) scale(10.8016)">
<stop stop-color="white"/>
<stop offset="1" stop-color="#FAFAFA"/>
</radialGradient>
<radialGradient id="paint17_radial_703_1305" cx="0" cy="0" r="1" gradientUnits="userSpaceOnUse" gradientTransform="translate(11.7547 100.307) rotate(85.3036) scale(10.8016)">
<stop stop-color="white"/>
<stop offset="1" stop-color="#FAFAFA"/>
</radialGradient>
<radialGradient id="paint18_radial_703_1305" cx="0" cy="0" r="1" gradientUnits="userSpaceOnUse" gradientTransform="translate(32.74 100.307) rotate(85.3036) scale(10.8016)">
<stop stop-color="white"/>
<stop offset="1" stop-color="#FAFAFA"/>
</radialGradient>
<radialGradient id="paint19_radial_703_1305" cx="0" cy="0" r="1" gradientUnits="userSpaceOnUse" gradientTransform="translate(53.7332 100.307) rotate(85.3036) scale(10.8016)">
<stop stop-color="white"/>
<stop offset="1" stop-color="#FAFAFA"/>
</radialGradient>
<radialGradient id="paint20_radial_703_1305" cx="0" cy="0" r="1" gradientUnits="userSpaceOnUse" gradientTransform="translate(74.7229 100.307) rotate(85.3036) scale(10.8016)">
<stop stop-color="white"/>
<stop offset="1" stop-color="#FAFAFA"/>
</radialGradient>
<radialGradient id="paint21_radial_703_1305" cx="0" cy="0" r="1" gradientUnits="userSpaceOnUse" gradientTransform="translate(95.7117 100.307) rotate(85.3036) scale(10.8016)">
<stop stop-color="white"/>
<stop offset="1" stop-color="#FAFAFA"/>
</radialGradient>
<radialGradient id="paint22_radial_703_1305" cx="0" cy="0" r="1" gradientUnits="userSpaceOnUse" gradientTransform="translate(116.704 100.307) rotate(85.3036) scale(10.8016)">
<stop stop-color="white"/>
<stop offset="1" stop-color="#FAFAFA"/>
</radialGradient>
<radialGradient id="paint23_radial_703_1305" cx="0" cy="0" r="1" gradientUnits="userSpaceOnUse" gradientTransform="translate(137.693 100.307) rotate(85.3036) scale(10.8016)">
<stop stop-color="white"/>
<stop offset="1" stop-color="#FAFAFA"/>
</radialGradient>
<radialGradient id="paint24_radial_703_1305" cx="0" cy="0" r="1" gradientUnits="userSpaceOnUse" gradientTransform="translate(-9.23802 35.9224) rotate(85.3036) scale(10.8016)">
<stop stop-color="white"/>
<stop offset="1" stop-color="#FAFAFA"/>
</radialGradient>
<radialGradient id="paint25_radial_703_1305" cx="0" cy="0" r="1" gradientUnits="userSpaceOnUse" gradientTransform="translate(11.7542 35.9224) rotate(85.3036) scale(10.8016)">
<stop stop-color="white"/>
<stop offset="1" stop-color="#FAFAFA"/>
</radialGradient>
<radialGradient id="paint26_radial_703_1305" cx="0" cy="0" r="1" gradientUnits="userSpaceOnUse" gradientTransform="translate(32.74 35.9224) rotate(85.3036) scale(10.8016)">
<stop stop-color="white"/>
<stop offset="1" stop-color="#FAFAFA"/>
</radialGradient>
<radialGradient id="paint27_radial_703_1305" cx="0" cy="0" r="1" gradientUnits="userSpaceOnUse" gradientTransform="translate(53.7332 35.9224) rotate(85.3036) scale(10.8016)">
<stop stop-color="white"/>
<stop offset="1" stop-color="#FAFAFA"/>
</radialGradient>
<radialGradient id="paint28_radial_703_1305" cx="0" cy="0" r="1" gradientUnits="userSpaceOnUse" gradientTransform="translate(74.7219 35.9224) rotate(85.3036) scale(10.8016)">
<stop stop-color="white"/>
<stop offset="1" stop-color="#FAFAFA"/>
</radialGradient>
<radialGradient id="paint29_radial_703_1305" cx="0" cy="0" r="1" gradientUnits="userSpaceOnUse" gradientTransform="translate(95.7117 35.9224) rotate(85.3036) scale(10.8016)">
<stop stop-color="white"/>
<stop offset="1" stop-color="#FAFAFA"/>
</radialGradient>
<radialGradient id="paint30_radial_703_1305" cx="0" cy="0" r="1" gradientUnits="userSpaceOnUse" gradientTransform="translate(116.704 35.9224) rotate(85.3036) scale(10.8016)">
<stop stop-color="white"/>
<stop offset="1" stop-color="#FAFAFA"/>
</radialGradient>
<radialGradient id="paint31_radial_703_1305" cx="0" cy="0" r="1" gradientUnits="userSpaceOnUse" gradientTransform="translate(137.693 35.9224) rotate(85.3036) scale(10.8016)">
<stop stop-color="white"/>
<stop offset="1" stop-color="#FAFAFA"/>
</radialGradient>
<radialGradient id="paint32_radial_703_1305" cx="0" cy="0" r="1" gradientUnits="userSpaceOnUse" gradientTransform="translate(-9.23802 78.845) rotate(85.3036) scale(10.8016)">
<stop stop-color="white"/>
<stop offset="1" stop-color="#FAFAFA"/>
</radialGradient>
<radialGradient id="paint33_radial_703_1305" cx="0" cy="0" r="1" gradientUnits="userSpaceOnUse" gradientTransform="translate(11.7547 78.845) rotate(85.3036) scale(10.8016)">
<stop stop-color="white"/>
<stop offset="1" stop-color="#FAFAFA"/>
</radialGradient>
<radialGradient id="paint34_radial_703_1305" cx="0" cy="0" r="1" gradientUnits="userSpaceOnUse" gradientTransform="translate(32.74 78.845) rotate(85.3036) scale(10.8016)">
<stop stop-color="white"/>
<stop offset="1" stop-color="#FAFAFA"/>
</radialGradient>
<radialGradient id="paint35_radial_703_1305" cx="0" cy="0" r="1" gradientUnits="userSpaceOnUse" gradientTransform="translate(53.7332 78.845) rotate(85.3036) scale(10.8016)">
<stop stop-color="white"/>
<stop offset="1" stop-color="#FAFAFA"/>
</radialGradient>
<radialGradient id="paint36_radial_703_1305" cx="0" cy="0" r="1" gradientUnits="userSpaceOnUse" gradientTransform="translate(74.7219 78.845) rotate(85.3036) scale(10.8016)">
<stop stop-color="white"/>
<stop offset="1" stop-color="#FAFAFA"/>
</radialGradient>
<radialGradient id="paint37_radial_703_1305" cx="0" cy="0" r="1" gradientUnits="userSpaceOnUse" gradientTransform="translate(95.7117 78.845) rotate(85.3036) scale(10.8016)">
<stop stop-color="white"/>
<stop offset="1" stop-color="#FAFAFA"/>
</radialGradient>
<radialGradient id="paint38_radial_703_1305" cx="0" cy="0" r="1" gradientUnits="userSpaceOnUse" gradientTransform="translate(116.704 78.845) rotate(85.3036) scale(10.8016)">
<stop stop-color="white"/>
<stop offset="1" stop-color="#FAFAFA"/>
</radialGradient>
<radialGradient id="paint39_radial_703_1305" cx="0" cy="0" r="1" gradientUnits="userSpaceOnUse" gradientTransform="translate(137.693 78.845) rotate(85.3036) scale(10.8016)">
<stop stop-color="white"/>
<stop offset="1" stop-color="#FAFAFA"/>
</radialGradient>
<radialGradient id="paint40_radial_703_1305" cx="0" cy="0" r="1" gradientUnits="userSpaceOnUse" gradientTransform="translate(-9.23802 121.771) rotate(85.3036) scale(10.8016)">
<stop stop-color="white"/>
<stop offset="1" stop-color="#FAFAFA"/>
</radialGradient>
<radialGradient id="paint41_radial_703_1305" cx="0" cy="0" r="1" gradientUnits="userSpaceOnUse" gradientTransform="translate(11.7547 121.771) rotate(85.3036) scale(10.8016)">
<stop stop-color="white"/>
<stop offset="1" stop-color="#FAFAFA"/>
</radialGradient>
<radialGradient id="paint42_radial_703_1305" cx="0" cy="0" r="1" gradientUnits="userSpaceOnUse" gradientTransform="translate(32.74 121.771) rotate(85.3036) scale(10.8016)">
<stop stop-color="white"/>
<stop offset="1" stop-color="#FAFAFA"/>
</radialGradient>
<radialGradient id="paint43_radial_703_1305" cx="0" cy="0" r="1" gradientUnits="userSpaceOnUse" gradientTransform="translate(53.7332 121.771) rotate(85.3036) scale(10.8016)">
<stop stop-color="white"/>
<stop offset="1" stop-color="#FAFAFA"/>
</radialGradient>
<radialGradient id="paint44_radial_703_1305" cx="0" cy="0" r="1" gradientUnits="userSpaceOnUse" gradientTransform="translate(74.7219 121.771) rotate(85.3036) scale(10.8016)">
<stop stop-color="white"/>
<stop offset="1" stop-color="#FAFAFA"/>
</radialGradient>
<radialGradient id="paint45_radial_703_1305" cx="0" cy="0" r="1" gradientUnits="userSpaceOnUse" gradientTransform="translate(95.7117 121.771) rotate(85.3036) scale(10.8016)">
<stop stop-color="white"/>
<stop offset="1" stop-color="#FAFAFA"/>
</radialGradient>
<radialGradient id="paint46_radial_703_1305" cx="0" cy="0" r="1" gradientUnits="userSpaceOnUse" gradientTransform="translate(116.704 121.771) rotate(85.3036) scale(10.8016)">
<stop stop-color="white"/>
<stop offset="1" stop-color="#FAFAFA"/>
</radialGradient>
<radialGradient id="paint47_radial_703_1305" cx="0" cy="0" r="1" gradientUnits="userSpaceOnUse" gradientTransform="translate(137.693 121.771) rotate(85.3036) scale(10.8016)">
<stop stop-color="white"/>
<stop offset="1" stop-color="#FAFAFA"/>
</radialGradient>
</defs>
</svg>
