<svg width="47" height="42" viewBox="0 0 47 42" fill="none" xmlns="http://www.w3.org/2000/svg">
<mask id="mask0_878_522" style="mask-type:alpha" maskUnits="userSpaceOnUse" x="0" y="0" width="47" height="42">
<path d="M26.1322 18.4414H21.4206C21.4206 18.4414 20.7476 21.4304 23.7764 21.4304C26.8053 21.4304 26.1322 18.4414 26.1322 18.4414Z" fill="#3E3E3E"/>
<path d="M32.4155 21.2367C32.4155 21.2367 33.8355 27.3424 38.8052 26.1258C42.673 25.179 39.5152 17.0997 42 14.4671C43.2744 13.117 45.5498 13.715 45.5498 13.715" stroke="#212121" stroke-width="2.31081" stroke-linecap="round"/>
<path d="M15.1343 21.2367C15.1343 21.2367 13.7144 27.3424 8.74461 26.1258C4.87679 25.179 8.03465 17.0997 5.54978 14.4671C4.27545 13.117 1.99997 13.715 1.99997 13.715" stroke="#3E3E3E" stroke-width="2.31081" stroke-linecap="round"/>
<path d="M14.5668 15.4504C14.5668 15.4504 12.6822 1.99994 23.6135 2C34.5449 2.00006 33.0369 15.4504 33.0369 15.4504" stroke="#3E3E3E" stroke-width="2.31081" stroke-linecap="round"/>
<path d="M31.8894 15.308C31.8108 15.9412 32.2604 16.5183 32.8936 16.597C33.5269 16.6756 34.104 16.226 34.1826 15.5927L31.8894 15.308ZM23.7749 3.15541C26.2495 3.15542 27.9079 3.90763 29.0544 4.95478C30.2244 6.02335 30.9543 7.48543 31.3927 9.03899C31.8303 10.5896 31.9573 12.1617 31.9708 13.3618C31.9776 13.958 31.9562 14.4533 31.9335 14.7962C31.9222 14.9674 31.9106 15.1001 31.9021 15.1877C31.8978 15.2314 31.8944 15.2639 31.8921 15.2842C31.891 15.2944 31.8902 15.3015 31.8897 15.3055C31.8895 15.3075 31.8893 15.3087 31.8893 15.3091C31.8892 15.3094 31.8892 15.3094 31.8893 15.3092C31.8893 15.3091 31.8893 15.3088 31.8893 15.3087C31.8893 15.3084 31.8894 15.308 33.036 15.4504C34.1826 15.5927 34.1827 15.5922 34.1827 15.5917C34.1828 15.5914 34.1828 15.5908 34.1829 15.5903C34.183 15.5893 34.1832 15.5881 34.1833 15.5867C34.1837 15.5838 34.1841 15.5802 34.1847 15.5757C34.1857 15.5668 34.1871 15.5546 34.1888 15.5393C34.1922 15.5088 34.1968 15.4657 34.2021 15.411C34.2127 15.3015 34.2263 15.1452 34.2393 14.9487C34.2653 14.556 34.289 14.0005 34.2815 13.3357C34.2666 12.0139 34.128 10.2234 33.6167 8.41143C33.1062 6.6024 32.2041 4.70189 30.6128 3.24852C28.998 1.77371 26.766 0.844609 23.7749 0.844593L23.7749 3.15541Z" fill="#212121"/>
<path d="M23.7749 25.2886V40" stroke="#3E3E3E" stroke-width="2.31081" stroke-linecap="round"/>
<path d="M29.1792 23.2915C29.1792 23.2915 27.323 35.9946 34.3766 35.9946C41.4303 35.9946 40.6878 29.4506 40.6878 29.4506" stroke="#212121" stroke-width="2.31081" stroke-linecap="round"/>
<path d="M18.3706 23.2915C18.3706 23.2915 20.2268 35.9946 13.1732 35.9946C6.11952 35.9946 6.86201 29.4506 6.86201 29.4506" stroke="#3E3E3E" stroke-width="2.31081" stroke-linecap="round"/>
<ellipse cx="28.2707" cy="16.5692" rx="1.38256" ry="1.49449" fill="#212121"/>
<ellipse cx="19.2825" cy="16.5692" rx="1.38256" ry="1.49449" fill="#3E3E3E"/>
</mask>
<g mask="url(#mask0_878_522)">
<rect x="-0.791504" y="-1.62061" width="24.5918" height="45.3017" fill="#FF474D"/>
<rect x="23.8022" y="-1.62061" width="24.5918" height="45.3017" fill="#D61414"/>
</g>
</svg>
