<svg width="31" height="38" viewBox="0 0 31 38" fill="none" xmlns="http://www.w3.org/2000/svg">
<path d="M20.4923 31.8979V36.6114H23.9097V37.2126H19.6113V31.8979H20.4923Z" fill="#5C5C5C"/>
<path d="M16.5504 35.1268V37.2126H15.6663V35.1268L12.9849 31.8979H14.073L16.1229 34.4885L18.1048 31.8979H19.1638L16.5504 35.1268Z" fill="black"/>
<path d="M11.1765 35.6167H8.32466L7.53938 37.2126H6.53711L9.17194 31.8979H10.3912L12.9847 37.2126H11.9411L11.1765 35.6167ZM10.9078 35.0452L9.77124 32.6328L8.56231 35.0452H10.9078Z" fill="black"/>
<path d="M28.6384 35.6167H25.7866L25.0013 37.2126H23.999L26.6339 31.8979H27.8531L30.4466 37.2126H29.403L28.6384 35.6167ZM28.3697 35.0452L27.2332 32.6328L26.0242 35.0452H28.3697Z" fill="#5C5C5C"/>
<path d="M6.08939 31.8979V37.2126H4.97827L0.936829 32.9V37.2126H0V31.8979H1.07844L5.15256 36.2402V31.8979H6.08939Z" fill="black"/>
<path d="M27.2232 16.0769C27.2232 22.9012 21.6302 28.4335 14.731 28.4335C7.83172 28.4335 2.23877 22.9012 2.23877 16.0769C2.23877 13.0803 2.23885 0 2.23885 0L8.50726 5.36058C10.3396 4.31712 12.4648 3.72026 14.731 3.72026C21.6302 3.72026 27.2232 9.25251 27.2232 16.0769Z" fill="#5C5C5C"/>
<path d="M11.2169 18.943L8.80904 17.3857C8.80904 17.3857 7.67775 19.3331 7.74401 20.6835C7.80424 21.911 9.31554 23.7935 9.40821 23.5943C9.64254 23.0904 10.7076 22.6988 10.7076 22.6988C10.7076 22.6988 9.70798 23.2397 9.64254 23.8439C9.50362 25.1264 9.63661 27.4154 9.63661 27.4154C9.63661 27.4154 10.0689 27.6072 10.3806 27.7165C10.6864 27.8238 11.2169 27.9706 11.2169 27.9706V25.1264C11.2169 25.1264 15.1066 25.905 16.5884 23.8439C18.0701 21.7827 19.9687 18.943 20.8022 17.3857C21.6357 15.8284 22.7007 11.7519 18.6258 9.73659C14.5509 7.72127 11.7726 12.1641 11.7726 12.1641L14.5509 13.7672C14.5509 13.7672 14.8288 13.9963 14.5972 14.5001C14.3657 15.004 13.81 14.8207 13.81 14.8207L11.1215 13.3802L10.6613 14.1795L13.4898 15.7368C13.4898 15.7368 13.8563 16.0115 13.5785 16.6528C13.3007 17.2941 12.6061 16.9277 12.6061 16.9277L9.92037 15.462L9.45732 16.2407L12.0504 17.7521C12.0504 17.7521 12.6061 18.0727 12.282 18.6682C11.9578 19.2636 11.2169 18.943 11.2169 18.943Z" fill="white"/>
</svg>
