<svg width="41" height="25" viewBox="0 0 41 25" fill="none" xmlns="http://www.w3.org/2000/svg">
<path d="M11.1828 13.4806V10.2002L7.37114 14.2495C7.37114 14.2495 7.32031 14.3183 7.32031 14.4033C7.32031 14.4882 7.37114 14.557 7.37114 14.557L8.59088 15.7872C8.59088 15.7872 8.65998 15.8777 8.74334 15.8897C8.84158 15.9039 8.94663 15.7872 8.94663 15.7872L11.1828 13.4806Z" fill="#868686"/>
<path d="M8.74339 9.02113C8.63225 9.03714 8.5401 8.91861 8.5401 8.91861C8.5401 8.91861 6.86647 6.99913 5.74487 6.15074C5.54157 5.99697 4.57595 5.45178 3.81361 6.15074C3.30505 6.61702 3.50867 7.50672 3.81361 7.84222C4.9317 9.07238 7.93023 12.0965 7.93023 12.0965C7.93023 12.0965 8.09126 12.2019 8.0827 12.3016C8.07653 12.3735 7.98106 12.4553 7.98106 12.4553L6.81214 13.6342C6.81214 13.6342 6.7157 13.7341 6.60885 13.7368C6.52704 13.7388 6.40556 13.6342 6.40556 13.6342L0.103233 7.32965C0.103233 7.32965 -0.014931 7.2079 0.00158306 7.12462C0.0125924 7.0691 0.0524107 7.02211 0.0524107 7.02211C0.0524107 7.02211 0.916394 6.25325 1.32331 5.8432C1.33468 5.83174 1.42802 5.77779 1.52626 5.79194C1.60962 5.80395 1.67906 5.8432 1.67906 5.8432L2.03482 6.15074C2.03482 6.15074 2.40831 4.48205 3.20374 3.89544C4.16714 3.18495 5.47376 3.17784 6.25309 3.69041C7.42202 4.45923 10.1664 7.38091 10.1664 7.38091C10.1664 7.38091 10.2172 7.44975 10.2172 7.53468C10.2172 7.6196 10.1664 7.68845 10.1664 7.68845C10.1664 7.68845 9.2008 8.71358 8.89586 8.96987C8.84765 9.01039 8.82675 9.00911 8.74339 9.02113Z" fill="#5C5C5C"/>
<path d="M13.7742 0.820114L9.2002 5.48449L10.7757 7.07345C10.7757 7.07345 11.6397 6.25338 12.2495 5.74077C12.5114 5.52065 13.189 5.55369 13.5709 5.94583C13.9392 6.32394 14.0433 7.0222 13.7742 7.32977C13.0119 8.20114 12.0463 9.32876 12.0463 9.32876H15.1464C15.5632 8.70823 15.9055 8.09859 16.1121 7.79108C16.3186 7.48357 16.5441 6.50966 15.9088 5.48449C15.2735 4.45932 13.4693 4.35684 13.4693 4.35684L15.479 2.28165C15.479 2.28165 15.5477 2.21471 15.553 2.15281C15.5574 2.10156 15.4514 1.99902 15.4514 1.99902L14.2316 0.820114C14.2316 0.820114 14.1399 0.730127 14.0283 0.717622C13.902 0.703468 13.7742 0.820114 13.7742 0.820114Z" fill="#868686"/>
<ellipse cx="8.69257" cy="2.05028" rx="2.0329" ry="2.05028" fill="#5C5C5C"/>
<path d="M21.2621 10.2515V21.4255H18.9305L14.4187 14.3926H14.3376V21.4255H11.9951V10.2515H14.5362L18.8331 17.2789H18.9305V10.2515H21.2621Z" fill="#5C5C5C"/>
<path d="M21.9692 21.4255V10.2515L30.1896 10.2515V12.1993L24.3117 12.1993V14.8618H29.783V16.8096H24.3117V19.4777L30.4945 19.4777V21.4255L21.9692 21.4255Z" fill="#5C5C5C"/>
<path d="M33.5245 10.2515L35.7587 14.0598H35.4662L37.7113 10.2515H40.5574L36.9221 15.8385L40.5574 21.4255H37.9146L35.6425 17.6117H35.7587L33.4866 21.4255H30.8033L34.271 15.8385L30.8682 10.2515H33.5245Z" fill="#5C5C5C"/>
<path d="M13.59 23.5027H12.414V22.6924C12.414 22.6145 12.356 22.5783 12.2814 22.5783C12.2041 22.5783 12.1489 22.6145 12.1489 22.6924V24.6665C12.1489 24.7417 12.2041 24.7807 12.2814 24.7807C12.356 24.7807 12.414 24.7417 12.414 24.6665V23.7449H13.59V24.6665C13.59 24.7417 13.648 24.7807 13.7281 24.7807C13.7998 24.7807 13.8551 24.7417 13.8551 24.6665V22.6924C13.8551 22.6145 13.7998 22.5783 13.7281 22.5783C13.648 22.5783 13.59 22.6145 13.59 22.6924V23.5027Z" fill="#5C5C5C"/>
<path d="M15.5594 23.7672H16.5008C16.5671 23.7672 16.6085 23.7143 16.6085 23.6502C16.6085 23.5806 16.5699 23.5305 16.5008 23.5305H15.5594V22.9542C15.5594 22.8873 15.587 22.8567 15.6533 22.8567H16.6251C16.6969 22.8567 16.7355 22.8038 16.7355 22.7342C16.7355 22.6646 16.6969 22.6145 16.6251 22.6145H15.5815C15.3855 22.6145 15.2999 22.7008 15.2999 22.9152V24.4855C15.2999 24.6971 15.3855 24.7835 15.5815 24.7835H16.6499C16.7217 24.7835 16.7603 24.7278 16.7603 24.661C16.7603 24.5913 16.7217 24.5412 16.6499 24.5412H15.6616C15.6008 24.5412 15.5594 24.5162 15.5594 24.4521V23.7672Z" fill="#5C5C5C"/>
<path d="M18.4876 24.118H19.4428L19.6609 24.6944C19.6803 24.7473 19.7244 24.7723 19.7741 24.7723C19.7907 24.7723 19.8073 24.7695 19.8238 24.764C19.879 24.7501 19.9232 24.7083 19.9232 24.6526C19.9232 24.6359 19.9205 24.622 19.9122 24.6053L19.1613 22.698C19.1254 22.6033 19.0536 22.5671 18.9652 22.5671C18.8797 22.5671 18.8106 22.6033 18.7748 22.698L18.0238 24.5997C18.0183 24.6164 18.0156 24.6303 18.0156 24.647C18.0156 24.6999 18.057 24.7473 18.1122 24.7612C18.1315 24.7668 18.1481 24.7695 18.1674 24.7695C18.2143 24.7695 18.2557 24.7473 18.2751 24.6916L18.4876 24.118ZM18.5705 23.8841L18.8824 23.0767C18.9156 22.9931 18.9432 22.904 18.968 22.8094C18.9929 22.904 19.0232 22.9931 19.0536 23.0739L19.36 23.8841H18.5705Z" fill="#5C5C5C"/>
<path d="M21.1635 24.4661C21.1635 24.764 21.1635 24.764 21.4451 24.764H22.5052C22.577 24.764 22.6184 24.7027 22.6184 24.6359C22.6184 24.5663 22.577 24.5134 22.5052 24.5134H21.5279C21.4285 24.5134 21.4285 24.5134 21.4285 24.4159V22.6952C21.4285 22.6145 21.3733 22.5783 21.296 22.5783C21.2214 22.5783 21.1635 22.6145 21.1635 22.698V24.4661Z" fill="#5C5C5C"/>
<path d="M24.2026 22.8317V24.6582C24.2026 24.7333 24.2605 24.7723 24.3351 24.7723C24.4096 24.7723 24.4676 24.7333 24.4676 24.6582V22.8317H25.0943C25.1578 22.8317 25.1992 22.776 25.1992 22.7119C25.1992 22.6451 25.1605 22.5866 25.0943 22.5866H23.5731C23.5069 22.5866 23.4682 22.6451 23.4682 22.7119C23.4682 22.776 23.5069 22.8317 23.5759 22.8317H24.2026Z" fill="#5C5C5C"/>
<path d="M27.998 23.5027H26.8219V22.6924C26.8219 22.6145 26.7639 22.5783 26.6894 22.5783C26.6121 22.5783 26.5569 22.6145 26.5569 22.6924V24.6665C26.5569 24.7417 26.6121 24.7807 26.6894 24.7807C26.7639 24.7807 26.8219 24.7417 26.8219 24.6665V23.7449H27.998V24.6665C27.998 24.7417 28.056 24.7807 28.136 24.7807C28.2078 24.7807 28.263 24.7417 28.263 24.6665V22.6924C28.263 22.6145 28.2078 22.5783 28.136 22.5783C28.056 22.5783 27.998 22.6145 27.998 22.6924V23.5027Z" fill="#5C5C5C"/>
<path d="M30.7156 22.5532C30.1414 22.5532 29.7631 23.0015 29.7631 23.6781C29.7631 24.3714 30.1414 24.8085 30.7349 24.8085C31.2263 24.8085 31.6067 24.5081 31.7033 24.2324C31.7088 24.2157 31.7116 24.2018 31.7116 24.1851C31.7116 24.1266 31.6619 24.0849 31.615 24.0737C31.5956 24.0681 31.5763 24.0654 31.5597 24.0654C31.5073 24.0654 31.4576 24.0904 31.4355 24.1517C31.3637 24.3744 31.0579 24.5635 30.7266 24.5635C30.3125 24.5635 30.0392 24.2182 30.0392 23.6809C30.0392 23.1324 30.3125 22.7955 30.7266 22.7955C31.0413 22.7955 31.3278 22.9711 31.4107 23.1716C31.4355 23.2245 31.4797 23.244 31.5266 23.244C31.5487 23.244 31.5708 23.2412 31.5929 23.2329C31.6343 23.2189 31.6784 23.1799 31.6784 23.1215C31.6784 23.1048 31.6757 23.0853 31.6674 23.0658C31.568 22.8208 31.2015 22.5532 30.7156 22.5532Z" fill="#5C5C5C"/>
<path d="M33.3819 24.1459H34.3371L34.5552 24.7222C34.5745 24.7751 34.6187 24.8002 34.6684 24.8002C34.685 24.8002 34.7015 24.7974 34.7181 24.7918C34.7733 24.7779 34.8175 24.7361 34.8175 24.6804C34.8175 24.6637 34.8147 24.6498 34.8064 24.6331L34.0555 22.7259C34.0196 22.6312 33.9478 22.595 33.8595 22.595C33.7739 22.595 33.7049 22.6312 33.669 22.7259L32.9181 24.6275C32.9126 24.6442 32.9098 24.6582 32.9098 24.6749C32.9098 24.7278 32.9512 24.7751 33.0064 24.789C33.0258 24.7946 33.0423 24.7974 33.0616 24.7974C33.1086 24.7974 33.15 24.7751 33.1693 24.7194L33.3819 24.1459ZM33.4647 23.912L33.7767 23.1045C33.8098 23.021 33.8374 22.9319 33.8623 22.8372C33.8871 22.9319 33.9175 23.021 33.9478 23.1017L34.2543 23.912H33.4647Z" fill="#5C5C5C"/>
<path d="M37.6215 24.2444C37.6215 24.2444 37.5094 23.7319 37.2461 23.6778C37.5028 23.6222 37.6823 23.4551 37.6823 23.1349C37.6823 22.7924 37.4614 22.578 37.0611 22.578H36.4151C36.2191 22.578 36.1335 22.6643 36.1335 22.8787V24.644C36.1335 24.7247 36.1887 24.7637 36.266 24.7637C36.3406 24.7637 36.393 24.7247 36.393 24.6468V23.7725H36.901C37.4531 23.7725 37.4077 24.6032 37.4531 24.7359C37.4696 24.7841 37.5139 24.8083 37.5608 24.8083C37.5801 24.8083 37.6022 24.8055 37.6215 24.7999C37.6768 24.786 37.7127 24.7587 37.7127 24.7058C37.7127 24.6891 37.7099 24.6607 37.7044 24.644L37.6215 24.2444ZM36.393 23.5442V22.9066C36.393 22.8398 36.4262 22.8091 36.4841 22.8091H37.0446C37.2903 22.8091 37.4173 22.9372 37.4173 23.1739C37.4173 23.3966 37.2627 23.5442 37.028 23.5442H36.393Z" fill="#5C5C5C"/>
<path d="M39.3952 23.7477H40.3366C40.4029 23.7477 40.4443 23.6948 40.4443 23.6308C40.4443 23.5611 40.4056 23.511 40.3366 23.511H39.3952V22.9347C39.3952 22.8679 39.4228 22.8372 39.4891 22.8372H40.4608C40.5326 22.8372 40.5713 22.7843 40.5713 22.7147C40.5713 22.6451 40.5326 22.595 40.4608 22.595H39.4173C39.2213 22.595 39.1357 22.6813 39.1357 22.8957V24.4661C39.1357 24.6777 39.2213 24.764 39.4173 24.764H40.4857C40.5575 24.764 40.5961 24.7083 40.5961 24.6415C40.5961 24.5719 40.5575 24.5217 40.4857 24.5217H39.4973C39.4366 24.5217 39.3952 24.4967 39.3952 24.4326V23.7477Z" fill="#5C5C5C"/>
</svg>
