<svg width="84" height="131" viewBox="0 0 84 131" fill="none" xmlns="http://www.w3.org/2000/svg">
<path d="M83.0367 65.9519C82.9542 68.1595 81.0977 69.8815 78.8901 69.7982C76.6825 69.7149 74.9599 67.8578 75.0424 65.6502C75.125 63.4426 76.9815 61.7205 79.189 61.8038C81.3966 61.8871 83.1193 63.7443 83.0367 65.9519Z" fill="#8E4DD5"/>
<path d="M66.3487 45.592C66.3074 46.6958 65.3791 47.5568 64.2754 47.5152C63.1716 47.4735 62.3103 46.5449 62.3515 45.4411C62.3928 44.3373 63.3211 43.4763 64.4248 43.518C65.5286 43.5596 66.39 44.4882 66.3487 45.592Z" fill="#8E4DD5"/>
<path d="M54.3434 119.16L51.073 110.531L54.9787 102.172L46.3503 105.44L37.9902 101.531L41.26 110.161L37.3549 118.519L45.9833 115.252L54.3434 119.16Z" fill="#00A98F"/>
<path d="M67.876 94.5405L66.3371 90.4796L68.175 86.5461L64.1147 88.0836L60.1807 86.2444L61.7193 90.3053L59.8817 94.2388L63.942 92.7012L67.876 94.5405Z" fill="#00A98F"/>
<path d="M55.3072 61.0031C54.89 62.2513 53.5445 62.9234 52.302 62.5043C51.0595 62.0852 50.3904 60.7336 50.8076 59.4854C51.2248 58.2373 52.5703 57.5651 53.8128 57.9842C55.0553 58.4033 55.7244 59.7549 55.3072 61.0031Z" fill="white"/>
<path d="M57.711 13.192C57.4737 13.9017 56.7087 14.2839 56.0022 14.0456C55.2957 13.8073 54.9153 13.0388 55.1525 12.3291C55.3897 11.6194 56.1548 11.2372 56.8613 11.4755C57.5677 11.7138 57.9482 12.4823 57.711 13.192Z" fill="#00A98F"/>
<path d="M21.993 125.577L16.0192 117.856L17.3915 108.175L9.66759 114.17L0 112.815L5.97332 120.536L4.60152 130.217L12.3254 124.222L21.993 125.577Z" fill="#3897FF"/>
<path d="M57.4883 68.4581L55.4477 62.841L58.0463 57.4723L52.4361 59.4985L47.062 56.8842L49.1026 62.5013L46.504 67.8701L52.1138 65.8442L57.4883 68.4581Z" fill="#FFCC00"/>
<path d="M61.9215 26.899L62.3274 23.7997L64.8222 21.9269L61.7364 21.5251L59.876 19.0231L59.4702 22.1224L56.9753 23.9953L60.0609 24.3971L61.9215 26.899Z" fill="#FFCC00"/>
<path d="M59.7432 6.27761L60.0667 3.80729L62.0553 2.3145L59.5957 1.99422L58.1128 0L57.7893 2.47033L55.8007 3.96312L58.2602 4.28344L59.7432 6.27761Z" fill="#8E4DD5"/>
<path d="M47.9637 87.2501L50.0452 81.7406L38.7646 84.7687L36.992 90.512L47.9637 87.2501Z" fill="#00A98F"/>
<path d="M75.9996 32.972L71.2736 33.0499L76.6895 40.5728L81.5056 40.1951L75.9996 32.972Z" fill="#3897FF"/>
<path d="M67.2951 7.88572L64.2912 7.93519L67.7336 12.7168L70.7948 12.4768L67.2951 7.88572Z" fill="#FFCC00"/>
</svg>

