<svg width="214" height="354" viewBox="0 0 214 354" fill="none" xmlns="http://www.w3.org/2000/svg">
<path d="M204.166 284.892C204.124 285.998 203.195 286.86 202.089 286.818C200.984 286.777 200.121 285.847 200.162 284.741C200.204 283.636 201.133 282.773 202.239 282.815C203.344 282.857 204.207 283.787 204.166 284.892Z" fill="#3897FF"/>
<path d="M190.308 228.031C190.239 229.873 188.69 231.31 186.847 231.241C185.005 231.171 183.567 229.621 183.636 227.779C183.705 225.936 185.254 224.499 187.097 224.569C188.939 224.638 190.377 226.188 190.308 228.031Z" fill="#8E4DD5"/>
<path d="M186.438 174.396C186.383 175.87 185.144 177.02 183.67 176.965C182.196 176.909 181.046 175.669 181.101 174.195C181.156 172.721 182.396 171.571 183.869 171.627C185.343 171.682 186.494 172.922 186.438 174.396Z" fill="#00A98F"/>
<path d="M110.569 15.9333C110.218 16.9825 109.084 17.5464 108.036 17.1928C106.988 16.8393 106.423 15.7022 106.773 14.653C107.124 13.6038 108.258 13.0399 109.306 13.3934C110.354 13.747 110.92 14.8841 110.569 15.9333Z" fill="#00A98F"/>
<path d="M136.607 1.69847C136.42 2.25965 135.815 2.56183 135.256 2.3734C134.697 2.18498 134.397 1.57731 134.584 1.01613C134.772 0.454953 135.377 0.152777 135.935 0.341199C136.494 0.529621 136.795 1.13729 136.607 1.69847Z" fill="#00A98F"/>
<path d="M135.49 23.6025C134.917 25.3163 133.037 26.2278 131.29 25.6386C129.543 25.0493 128.591 23.1824 129.164 21.4687C129.736 19.7549 131.617 18.8434 133.364 19.4326C135.111 20.0219 136.063 21.8888 135.49 23.6025Z" fill="#8E4DD5"/>
<path d="M33.9239 20.5199C33.3511 22.2336 31.5038 23.1564 29.7978 22.581C28.0919 22.0056 27.1733 20.1499 27.7461 18.4362C28.3189 16.7225 30.1662 15.7997 31.8721 16.3751C33.5781 16.9505 34.4967 18.8062 33.9239 20.5199Z" fill="#3897FF"/>
<path d="M60.7993 18.6824L59.1746 14.1921L61.2454 9.89968L56.7762 11.5204L52.4956 9.43124L54.1203 13.9215L52.0495 18.214L56.5185 16.5936L60.7993 18.6824Z" fill="#FFCC00"/>
<path d="M146.464 46.1923L146.79 43.6742L148.819 42.1554L146.306 41.8249L144.789 39.7892L144.462 42.3074L142.433 43.8262L144.946 44.1567L146.464 46.1923Z" fill="#FFCC00"/>
<path d="M159.96 17.8453L160.194 16.0467L161.643 14.9618L159.848 14.7257L158.764 13.2717L158.531 15.0704L157.081 16.1552L158.876 16.3914L159.96 17.8453Z" fill="#8E4DD5"/>
<path d="M3.11736 23.2402L3.37312 21.2868L4.94554 20.1065L3.00067 19.8532L1.82812 18.2763L1.57236 20.2297L-5.56437e-05 21.4101L1.94466 21.6633L3.11736 23.2402Z" fill="#00A98F"/>
<path d="M169.411 124.188L170.928 119.818L162.388 122.096L161.109 126.656L169.411 124.188Z" fill="#00A98F"/>
<path d="M210.495 352.251L213.457 351.513L209.261 347.627L206.274 348.565L210.495 352.251Z" fill="#00A98F"/>
<path d="M167.74 64.5148L163.916 64.662L168.162 70.5759L172.064 70.1875L167.74 64.5148Z" fill="#3897FF"/>
</svg>
