<svg width="356" height="217" viewBox="0 0 356 217" fill="none" xmlns="http://www.w3.org/2000/svg">
<path d="M68.5897 204.811C67.4846 204.759 66.6312 203.822 66.6835 202.717C66.7358 201.612 67.674 200.758 68.779 200.81C69.884 200.862 70.7374 201.8 70.6851 202.905C70.6329 204.01 69.6947 204.863 68.5897 204.811Z" fill="#3897FF"/>
<path d="M125.581 191.498C123.74 191.412 122.317 189.849 122.404 188.007C122.491 186.166 124.055 184.743 125.897 184.829C127.738 184.916 129.161 186.479 129.074 188.32C128.987 190.162 127.423 191.585 125.581 191.498Z" fill="#8E4DD5"/>
<path d="M179.25 188.142C177.777 188.072 176.639 186.822 176.709 185.349C176.778 183.875 178.029 182.737 179.503 182.806C180.976 182.875 182.114 184.126 182.044 185.599C181.974 187.073 180.724 188.211 179.25 188.142Z" fill="#00A98F"/>
<path d="M338.432 113.792C337.386 113.431 336.833 112.292 337.196 111.247C337.56 110.202 338.702 109.647 339.748 110.008C340.794 110.369 341.347 111.508 340.983 112.553C340.62 113.598 339.477 114.152 338.432 113.792Z" fill="#00A98F"/>
<path d="M352.416 139.965C351.857 139.772 351.561 139.164 351.754 138.607C351.948 138.05 352.559 137.755 353.118 137.948C353.677 138.141 353.974 138.749 353.78 139.306C353.586 139.863 352.976 140.158 352.416 139.965Z" fill="#00A98F"/>
<path d="M330.524 138.638C328.816 138.049 327.923 136.159 328.529 134.418C329.135 132.677 331.01 131.743 332.719 132.332C334.427 132.921 335.32 134.81 334.714 136.552C334.108 138.293 332.233 139.227 330.524 138.638Z" fill="#8E4DD5"/>
<path d="M334.578 37.1059C332.87 36.5167 331.965 34.6607 332.556 32.9603C333.148 31.2599 335.012 30.3591 336.721 30.9482C338.429 31.5374 339.334 33.3935 338.742 35.0938C338.15 36.7942 336.286 37.6951 334.578 37.1059Z" fill="#3897FF"/>
<path d="M336.159 63.9977L340.664 62.416L344.937 64.5278L343.359 60.0432L345.489 55.7828L340.983 57.3645L336.711 55.2528L338.288 59.737L336.159 63.9977Z" fill="#FFCC00"/>
<path d="M307.831 149.395L310.346 149.746L311.845 151.789L312.199 149.279L314.25 147.781L311.735 147.431L310.235 145.388L309.881 147.897L307.831 149.395Z" fill="#FFCC00"/>
<path d="M336.047 163.162L337.843 163.413L338.914 164.872L339.168 163.08L340.632 162.009L338.836 161.759L337.765 160.3L337.511 162.092L336.047 163.162Z" fill="#8E4DD5"/>
<path d="M332.153 6.27478L334.103 6.54922L335.269 8.13285L335.54 6.1905L337.128 5.03308L335.178 4.75865L334.012 3.17501L333.74 5.11722L332.153 6.27478Z" fill="#00A98F"/>
<path d="M229.619 171.596L233.974 173.154L231.778 164.593L227.231 163.271L229.619 171.596Z" fill="#00A98F"/>
<path d="M1.17385 210.496L1.88311 213.466L5.80872 209.306L4.90025 206.31L1.17385 210.496Z" fill="#00A98F"/>
<path d="M289.305 170.494L289.195 166.67L283.241 170.859L283.592 174.764L289.305 170.494Z" fill="#3897FF"/>
</svg>
