<svg width="52" height="83" viewBox="0 0 52 83" fill="none" xmlns="http://www.w3.org/2000/svg">
<path d="M50.9722 36.681C50.9128 35.1061 49.583 33.8774 48.002 33.9366C46.4211 33.9957 45.1876 35.3203 45.247 36.8952C45.3063 38.47 46.6361 39.6987 48.2171 39.6396C49.7981 39.5804 51.0316 38.2558 50.9722 36.681Z" fill="#8E4DD5"/>
<path d="M39.121 50.8697C39.093 50.1257 38.4647 49.5451 37.7177 49.5731C36.9707 49.601 36.3879 50.2269 36.416 50.971C36.444 51.715 37.0723 52.2956 37.8193 52.2676C38.5663 52.2397 39.1491 51.6138 39.121 50.8697Z" fill="#8E4DD5"/>
<path d="M30.8395 -3.69273e-06L28.564 5.98334L31.2837 11.7798L25.277 9.51314L19.458 12.2223L21.7331 6.23896L19.0138 0.442522L25.0204 2.70915L30.8395 -3.69273e-06Z" fill="#00A98F"/>
<path d="M39.9162 16.8812L38.9199 19.7705L40.131 22.5772L37.4728 21.4719L34.9053 22.7727L35.9014 19.8834L34.6905 17.0767L37.3487 18.1819L39.9162 16.8812Z" fill="#00A98F"/>
<path d="M31.5126 40.196C31.2222 39.3344 30.2856 38.8705 29.4207 39.1597C28.5557 39.449 28.09 40.382 28.3804 41.2436C28.6708 42.1051 29.6074 42.5691 30.4724 42.2798C31.3373 41.9905 31.803 41.0576 31.5126 40.196Z" fill="white"/>
<path d="M33.1846 73.2C33.0195 72.7101 32.4869 72.4463 31.9951 72.6108C31.5033 72.7753 31.2385 73.3057 31.4037 73.7956C31.5688 74.2855 32.1013 74.5493 32.5931 74.3848C33.0849 74.2203 33.3497 73.6898 33.1846 73.2Z" fill="#00A98F"/>
<path d="M15.2434 4.19727L11.1 9.5229L12.0441 16.1946L6.69775 12.0674L0 13.0078L4.14299 7.68209L3.19926 1.01044L8.54565 5.1377L15.2434 4.19727Z" fill="#3897FF"/>
<path d="M29.3448 42.0755L27.9145 45.9953L29.7375 49.7424L25.803 48.3277L22.0347 50.1514L23.465 46.2315L21.6419 42.4844L25.5762 43.899L29.3448 42.0755Z" fill="#FFCC00"/>
<path d="M36.1183 63.7363L36.4007 65.8756L38.1374 67.1684L35.9894 67.4457L34.6943 69.1727L34.4118 67.0334L32.6752 65.7407L34.823 65.4633L36.1183 63.7363Z" fill="#FFCC00"/>
<path d="M34.6013 77.971L34.8264 79.6762L36.2107 80.7066L34.4986 80.9277L33.4663 82.3042L33.2411 80.599L31.8569 79.5686L33.5689 79.3475L34.6013 77.971Z" fill="#8E4DD5"/>
<path d="M31.079 29.6929L32.4653 33.4834L24.8133 31.4527L23.6382 27.4993L31.079 29.6929Z" fill="#00A98F"/>
<path d="M45.9174 59.5459L42.6276 59.4921L46.3976 54.2994L49.7501 54.56L45.9174 59.5459Z" fill="#3897FF"/>
<path d="M39.8576 76.8611L37.7666 76.8269L40.1629 73.5264L42.2937 73.692L39.8576 76.8611Z" fill="#FFCC00"/>
</svg>
