<svg width="15" height="16" viewBox="0 0 15 16" fill="none" xmlns="http://www.w3.org/2000/svg">
<path d="M14.3069 8.18489C13.9243 8.18489 13.614 8.49657 13.614 8.88107V5.61896C13.614 5.23446 13.3038 4.92275 12.9211 4.92275C12.5384 4.92275 12.2282 5.23443 12.2282 5.61896V4.92762C12.2282 4.54313 11.918 4.23145 11.5353 4.23145C11.1526 4.23145 10.8424 4.54313 10.8424 4.92762V5.61896C10.8424 5.23446 10.5322 4.92275 10.1495 4.92275C9.76681 4.92275 9.45661 5.23443 9.45661 5.61896V7.23445C9.45661 6.84996 9.1464 6.53824 8.7637 6.53824C8.38104 6.53824 8.0708 6.84992 8.0708 7.23445V11.7995C8.0708 12.2885 8.21507 12.7665 8.48538 13.1731L9.00595 13.9561C9.27626 14.3627 9.42053 14.8407 9.42053 15.3297V15.9853H13.6139V15.444C13.6139 14.8945 13.7961 14.3606 14.1317 13.9267L14.4819 13.4739C14.8175 13.0399 14.9997 12.506 14.9997 11.9565V8.8811C14.9998 8.49657 14.6896 8.18489 14.3069 8.18489Z" fill="#FFCC1F"/>
<path d="M13.6023 8.89571C13.6023 8.51122 13.9125 8.19954 14.2952 8.19954C14.6779 8.19954 14.9881 8.51122 14.988 8.89575V11.9712C14.988 12.5207 14.8058 13.0546 14.4702 13.4885L14.12 13.9413C13.7844 14.3752 13.6022 14.9091 13.6022 15.4587V16H11.5236V4.24609C11.9063 4.24609 12.2165 4.55778 12.2165 4.94227V5.63361C12.2165 5.24908 12.5267 4.9374 12.9094 4.9374C13.2921 4.9374 13.6023 5.24911 13.6023 5.63361V8.89571Z" fill="#FFD751"/>
<path d="M0 8.8811V11.9565C0 12.5061 0.182183 13.0399 0.517805 13.4739L0.868001 13.9267C1.20362 14.3606 1.38581 14.8945 1.38581 15.444V15.9853H5.57917V15.3298C5.57917 14.8408 5.72345 14.3628 5.99375 13.9562L6.51433 13.1731C6.78463 12.7665 6.92891 12.2885 6.92891 11.7996V7.23445C6.92891 6.84996 6.6187 6.53824 6.236 6.53824C5.85333 6.53824 5.5431 6.84992 5.5431 7.23445V5.61896C5.5431 5.23446 5.23289 4.92275 4.8502 4.92275C4.46753 4.92275 4.15729 5.23443 4.15729 5.61896V4.92762C4.15729 4.54313 3.84709 4.23145 3.46439 4.23145C3.08169 4.23145 2.77149 4.54313 2.77149 4.92762V5.61896C2.77149 5.23446 2.46128 4.92275 2.07858 4.92275C1.69589 4.92275 1.38568 5.23443 1.38568 5.61896V8.8811C1.38568 8.49661 1.07545 8.18492 0.692779 8.18492C0.310236 8.18492 0 8.49661 0 8.8811Z" fill="#FFD751"/>
<path d="M5.59089 15.3444V16H3.49421L3.47611 4.24609C3.85881 4.24609 4.16901 4.55778 4.16901 4.94227V5.63361C4.16901 5.24908 4.47925 4.9374 4.86191 4.9374C5.24461 4.9374 5.55482 5.24911 5.55482 5.63361V7.2491C5.55482 6.86457 5.86505 6.55289 6.24772 6.55289C6.63042 6.55289 6.94062 6.8646 6.94062 7.2491V11.8142C6.94062 12.3032 6.79635 12.7812 6.52604 13.1878L6.00547 13.9708C5.73517 14.3774 5.59089 14.8554 5.59089 15.3444Z" fill="#FFCC1F"/>
<path d="M14.3053 8.18506C14.19 8.18506 14.0808 8.21338 13.985 8.26389C14.2063 8.38007 14.3575 8.61304 14.3575 8.88142V11.8116C14.3575 12.3613 14.1756 12.8951 13.8399 13.3289L13.4895 13.7817C13.1539 14.2158 12.9717 14.8947 12.9717 15.4444V15.9856H13.6122V15.4444C13.6122 14.8947 13.7944 14.3609 14.1301 13.9268L14.4804 13.474C14.8161 13.0402 14.998 12.5064 14.998 11.9568V8.88139C14.998 8.4969 14.688 8.18506 14.3053 8.18506Z" fill="#FFB800"/>
<path d="M10.84 5.61887V11.077H10.7413C10.4421 11.077 10.1994 10.8333 10.1994 10.5326V5.61887C10.1994 5.42677 10.1219 5.25267 9.99641 5.12654C9.94676 5.07665 9.88946 5.0345 9.82666 5.00169C9.92243 4.95117 10.0313 4.92285 10.1469 4.92285C10.3381 4.92285 10.5117 5.00072 10.6369 5.12654C10.7625 5.25267 10.84 5.42677 10.84 5.61887Z" fill="#FFB800"/>
<path d="M9.45404 7.23459V11.0774H9.35026C9.05099 11.0774 8.80837 10.8336 8.80837 10.5329V7.23459C8.80837 6.96749 8.65848 6.73549 8.43848 6.61869C8.53456 6.56752 8.6444 6.53857 8.76099 6.53857C9.14372 6.53854 9.45404 6.85035 9.45404 7.23459Z" fill="#FFB800"/>
<path d="M12.2259 4.92781V11.0772H12.068C11.7687 11.0772 11.5261 10.8334 11.5261 10.5327V4.92781C11.5261 4.7357 11.4486 4.56127 11.3231 4.43548C11.2814 4.39364 11.2343 4.35696 11.1831 4.3267C11.2856 4.26619 11.4054 4.23145 11.5331 4.23145C11.7247 4.23145 11.8976 4.30931 12.0231 4.43548C12.1484 4.56127 12.2259 4.7357 12.2259 4.92781Z" fill="#FFB800"/>
<path d="M6.23743 6.53809C6.11158 6.53809 5.99363 6.57168 5.89177 6.63125C6.09931 6.75136 6.2387 6.97634 6.2387 7.23429V11.7995C6.2387 12.2884 6.09455 12.7663 5.82428 13.1732L5.30358 13.9563C5.03331 14.3628 4.88916 14.8407 4.88916 15.3297V15.9853H5.58051V15.3297C5.58051 14.8407 5.72466 14.3629 5.99493 13.9563L6.51566 13.1732C6.78594 12.7664 6.93008 12.2885 6.93008 11.7995V7.23432C6.93005 6.84993 6.62 6.53809 6.23743 6.53809Z" fill="#FFB800"/>
<path d="M2.77069 13.5744H2.54277C2.30735 13.5744 2.09407 13.4373 1.99264 13.2239C1.72448 12.6596 1.3329 12.3635 1.06001 12.2164C0.865212 12.1113 0.744057 11.9071 0.744057 11.685V8.88142C0.744057 8.61304 0.592886 8.38007 0.371582 8.26389C0.46735 8.21338 0.576231 8.18506 0.691854 8.18506C1.07424 8.18506 1.3846 8.49687 1.3846 8.88142V11.4972C1.38457 11.4972 2.69478 12.0546 2.77069 13.5744Z" fill="#FFB800"/>
<path d="M5.54458 5.61887V11.077H5.44592C5.14666 11.077 4.90404 10.8333 4.90404 10.5326V5.61887C4.90404 5.42677 4.82654 5.25267 4.701 5.12654C4.65135 5.07665 4.59405 5.0345 4.53125 5.00169C4.62702 4.95117 4.7359 4.92285 4.85152 4.92285C5.04272 4.92285 5.21629 5.00072 5.34152 5.12654C5.46708 5.25267 5.54458 5.42677 5.54458 5.61887Z" fill="#FFB800"/>
<path d="M4.15509 4.92781V11.0772H3.99718C3.69791 11.0772 3.45532 10.8334 3.45532 10.5327V4.92781C3.45532 4.7357 3.37783 4.56127 3.25226 4.43548C3.21062 4.39364 3.16354 4.35696 3.1123 4.3267C3.21478 4.26619 3.33457 4.23145 3.46235 4.23145C3.65385 4.23145 3.8268 4.30931 3.95234 4.43548C4.0776 4.56127 4.15509 4.7357 4.15509 4.92781Z" fill="#FFB800"/>
<path d="M2.7717 5.61887V11.077H2.62084C2.32157 11.077 2.07895 10.8333 2.07895 10.5326V5.61887C2.07895 5.42677 2.00145 5.25267 1.87589 5.12654C1.83329 5.08374 1.78494 5.04643 1.73242 5.01617C1.83428 4.95663 1.95276 4.92285 2.07895 4.92285C2.27014 4.92285 2.44341 5.00072 2.56895 5.12654C2.6942 5.25267 2.7717 5.42677 2.7717 5.61887Z" fill="#FFB800"/>
<path d="M7.50118 1.6055C7.37055 1.6055 7.26465 1.4991 7.26465 1.36784V0.237658C7.26465 0.106403 7.37055 0 7.50118 0C7.63181 0 7.73771 0.106403 7.73771 0.237658V1.36781C7.73771 1.49907 7.63181 1.6055 7.50118 1.6055Z" fill="#FFB800"/>
<path d="M5.62584 2.10847C5.54409 2.10847 5.4646 2.06585 5.42079 1.98958L4.85839 1.01085C4.79308 0.897174 4.83182 0.751807 4.94496 0.68618C5.05813 0.620552 5.20278 0.659485 5.26809 0.773163L5.83049 1.75189C5.8958 1.86557 5.85706 2.01094 5.74392 2.07656C5.70663 2.0982 5.66596 2.10847 5.62584 2.10847Z" fill="#FFB800"/>
<path d="M4.26562 3.48193C4.22548 3.48193 4.18483 3.47165 4.14758 3.45005L3.17349 2.88497C3.06035 2.81934 3.02157 2.67398 3.08692 2.5603C3.15224 2.44662 3.29691 2.40763 3.41005 2.47332L4.38414 3.03839C4.49728 3.10402 4.53605 3.24939 4.47071 3.36307C4.42689 3.43928 4.34738 3.48193 4.26562 3.48193Z" fill="#FFB800"/>
<path d="M10.7363 3.48194C10.6545 3.48194 10.5751 3.43933 10.5312 3.36305C10.4659 3.24937 10.5047 3.10401 10.6178 3.03838L11.5919 2.4733C11.705 2.40764 11.8497 2.44661 11.915 2.56029C11.9803 2.67396 11.9416 2.81933 11.8285 2.88496L10.8544 3.45003C10.8171 3.47167 10.7764 3.48194 10.7363 3.48194Z" fill="#FFB800"/>
<path d="M9.36869 2.10845C9.32854 2.10845 9.2879 2.09818 9.25064 2.07658C9.1375 2.01095 9.09872 1.86558 9.16407 1.75191L9.72646 0.773177C9.79175 0.659499 9.93643 0.620535 10.0496 0.686194C10.1627 0.751821 10.2015 0.897188 10.1362 1.01087L9.57377 1.98959C9.52996 2.06581 9.45044 2.10845 9.36869 2.10845Z" fill="#FFB800"/>
<path d="M13.5984 5.6086C13.5984 5.41933 13.522 5.2478 13.3986 5.12354C13.2749 4.99959 13.1042 4.92285 12.9159 4.92285C12.7916 4.92285 12.6748 4.95613 12.5745 5.0148C12.6262 5.04458 12.6739 5.08139 12.7158 5.12354C12.8395 5.24784 12.9159 5.41933 12.9159 5.6086L12.9229 11.2555C12.9229 11.2555 11.541 11.8433 11.4609 13.4464H11.7014C11.9497 13.4464 12.1746 13.3018 12.2816 13.0766C12.5645 12.4815 12.9775 12.1693 13.2653 12.014C13.4708 11.9032 13.5986 11.6878 13.5986 11.4535L13.5984 5.6086Z" fill="#FFB800"/>
</svg>
