<svg width="153" height="22" viewBox="0 0 153 22" fill="none" xmlns="http://www.w3.org/2000/svg">
<path d="M0 0.525186H9.4014C11.2599 0.525186 12.758 1.05037 13.8959 2.10074C15.0337 3.14165 15.6026 4.60839 15.6026 6.50095C15.6026 8.12856 15.0953 9.54798 14.0808 10.7592C13.0662 11.961 11.5064 12.5619 9.4014 12.5619H2.83038V21.3765H0V0.525186ZM12.7438 6.51515C12.7438 4.98217 12.1749 3.94126 11.037 3.39242C10.4112 3.09907 9.55311 2.9524 8.46268 2.9524H2.83038V10.1773H8.46268C9.73327 10.1773 10.7621 9.90757 11.5491 9.36819C12.3456 8.82881 12.7438 7.87779 12.7438 6.51515Z" fill="#C4C4C4"/>
<path d="M14.7685 0.525186H18.0683L24.0704 10.5463L30.0725 0.525186H33.3864L25.4927 12.9735V21.3765H22.6623V12.9735L14.7685 0.525186Z" fill="#C4C4C4"/>
<path d="M36.6974 0.525186H40.7509L46.753 18.1544L52.7125 0.525186H56.7234V21.3765H54.0352V9.07011C54.0352 8.64428 54.0447 7.9393 54.0637 6.95517C54.0826 5.97104 54.0921 4.91593 54.0921 3.78986L48.1327 21.3765H45.3307L39.3286 3.78986V4.4286C39.3286 4.93959 39.3381 5.72027 39.3571 6.77064C39.3855 7.81155 39.3998 8.57804 39.3998 9.07011V21.3765H36.6974V0.525186Z" fill="#C4C4C4"/>
<path d="M54.0352 0.525186H57.3776L67.9311 17.4163V0.525186H70.6192V21.3765H67.4475L56.6456 3.78986L56.7376 21.3765H54.0352V10.9508V0.525186Z" fill="#C4C4C4"/>
<path d="M90.0134 0.525186V3.00918H82.9731V21.3765H80.1V3.00918H73.0596V0.525186H90.0134Z" fill="#C4C4C4"/>
<path d="M94.4652 14.6484C94.5316 15.8313 94.8113 16.7918 95.3044 17.5299C96.2431 18.9114 97.8977 19.6022 100.268 19.6022C101.33 19.6022 102.297 19.4508 103.17 19.148C104.858 18.5613 105.701 17.5109 105.701 15.9969C105.701 14.8614 105.346 14.0523 104.635 13.5697C103.914 13.0965 102.786 12.6849 101.25 12.3348L98.4192 11.696C96.5702 11.2797 95.2617 10.8207 94.4937 10.3192C93.1662 9.44862 92.5025 8.14748 92.5025 6.41579C92.5025 4.54215 93.152 3.00444 94.451 1.80267C95.7501 0.600889 97.5896 0 99.9695 0C102.16 0 104.018 0.529918 105.545 1.58975C107.081 2.64013 107.849 4.32451 107.849 6.6429H105.189C105.047 5.52628 104.744 4.6699 104.279 4.07374C103.416 2.98552 101.951 2.44141 99.8842 2.44141C98.2154 2.44141 97.0159 2.79153 96.2858 3.49178C95.5557 4.19203 95.1906 5.00583 95.1906 5.93319C95.1906 6.95517 95.6173 7.70273 96.4707 8.17587C97.0301 8.47868 98.296 8.85719 100.268 9.31141L103.198 9.97854C104.611 10.3003 105.701 10.7403 106.469 11.2986C107.797 12.2733 108.461 13.688 108.461 15.5427C108.461 17.8516 107.617 19.5029 105.929 20.4965C104.251 21.4901 102.297 21.9869 100.069 21.9869C97.471 21.9869 95.4371 21.3245 93.9674 19.9997C92.4977 18.6843 91.7771 16.9006 91.8055 14.6484H94.4652Z" fill="#C4C4C4"/>
<path d="M54.0117 0.523926L56.7394 0.523919V21.4146L54.0117 21.4147V0.523926Z" fill="#C4C4C4"/>
<path d="M112.144 21.9737C111.709 21.9737 111.336 21.8203 111.024 21.5134C110.716 21.2022 110.562 20.8296 110.562 20.3957C110.562 19.9661 110.716 19.5979 111.024 19.2911C111.336 18.9843 111.709 18.8308 112.144 18.8308C112.565 18.8308 112.934 18.9843 113.251 19.2911C113.567 19.5979 113.725 19.9661 113.725 20.3957C113.725 20.685 113.65 20.9502 113.501 21.1913C113.356 21.428 113.165 21.6186 112.928 21.7633C112.691 21.9036 112.429 21.9737 112.144 21.9737Z" fill="#898989"/>
<path d="M120.601 22C119.565 22 118.673 21.7808 117.927 21.3425C117.184 20.8998 116.613 20.2861 116.214 19.5015C115.818 18.7169 115.621 17.8139 115.621 16.7926C115.621 15.7581 115.821 14.8508 116.22 14.0705C116.624 13.2859 117.198 12.6744 117.94 12.2361C118.682 11.7934 119.565 11.572 120.588 11.572C121.471 11.572 122.244 11.732 122.907 12.052C123.571 12.372 124.096 12.8213 124.482 13.3999C124.869 13.9785 125.082 14.6579 125.121 15.4381H122.473C122.398 14.934 122.2 14.5286 121.88 14.2218C121.563 13.9105 121.148 13.7549 120.634 13.7549C120.2 13.7549 119.82 13.8733 119.495 14.11C119.174 14.3423 118.924 14.682 118.744 15.1291C118.563 15.5762 118.473 16.1175 118.473 16.7531C118.473 17.3975 118.561 17.9454 118.737 18.3969C118.917 18.8484 119.17 19.1925 119.495 19.4292C119.82 19.6659 120.2 19.7842 120.634 19.7842C120.955 19.7842 121.243 19.7185 121.497 19.587C121.757 19.4555 121.97 19.2648 122.137 19.0149C122.308 18.7607 122.42 18.4561 122.473 18.101H125.121C125.077 18.8725 124.866 19.5519 124.489 20.1393C124.115 20.7223 123.599 21.1781 122.94 21.5069C122.282 21.8356 121.502 22 120.601 22Z" fill="#898989"/>
<path d="M131.49 22C130.467 22 129.582 21.783 128.835 21.3491C128.093 20.9107 127.52 20.3014 127.116 19.5212C126.712 18.7366 126.51 17.8271 126.51 16.7926C126.51 15.7493 126.712 14.8376 127.116 14.0574C127.52 13.2728 128.093 12.6635 128.835 12.2295C129.582 11.7912 130.467 11.572 131.49 11.572C132.514 11.572 133.397 11.7912 134.139 12.2295C134.886 12.6635 135.461 13.2728 135.865 14.0574C136.269 14.8376 136.471 15.7493 136.471 16.7926C136.471 17.8271 136.269 18.7366 135.865 19.5212C135.461 20.3014 134.886 20.9107 134.139 21.3491C133.397 21.783 132.514 22 131.49 22ZM131.504 19.8302C131.969 19.8302 132.358 19.6987 132.67 19.4357C132.982 19.1684 133.217 18.8045 133.375 18.3443C133.537 17.884 133.618 17.3602 133.618 16.7729C133.618 16.1855 133.537 15.6617 133.375 15.2014C133.217 14.7412 132.982 14.3774 132.67 14.11C132.358 13.8426 131.969 13.7089 131.504 13.7089C131.034 13.7089 130.638 13.8426 130.318 14.11C130.001 14.3774 129.762 14.7412 129.6 15.2014C129.441 15.6617 129.362 16.1855 129.362 16.7729C129.362 17.3602 129.441 17.884 129.6 18.3443C129.762 18.8045 130.001 19.1684 130.318 19.4357C130.638 19.6987 131.034 19.8302 131.504 19.8302Z" fill="#898989"/>
<path d="M138.296 21.8027V11.7035H140.971V13.4854H141.09C141.3 12.8936 141.652 12.4268 142.144 12.0849C142.636 11.743 143.224 11.572 143.909 11.572C144.603 11.572 145.194 11.7452 145.682 12.0914C146.169 12.4333 146.494 12.898 146.657 13.4854H146.762C146.969 12.9067 147.342 12.4443 147.882 12.098C148.427 11.7474 149.07 11.572 149.813 11.572C150.757 11.572 151.523 11.8723 152.112 12.4728C152.705 13.0689 153.001 13.9149 153.001 15.0108V21.8027H150.201V15.5631C150.201 15.002 150.052 14.5812 149.753 14.3007C149.455 14.0201 149.081 13.8799 148.633 13.8799C148.124 13.8799 147.726 14.042 147.441 14.3664C147.155 14.6864 147.013 15.1094 147.013 15.6354V21.8027H144.292V15.5039C144.292 15.0086 144.149 14.6141 143.863 14.3204C143.582 14.0267 143.211 13.8799 142.75 13.8799C142.438 13.8799 142.157 13.9588 141.907 14.1166C141.661 14.27 141.465 14.4869 141.32 14.7675C141.175 15.0436 141.103 15.368 141.103 15.7406V21.8027H138.296Z" fill="#898989"/>
</svg>
