<svg width="24" height="24" viewBox="0 0 24 24" fill="none" xmlns="http://www.w3.org/2000/svg">
<path d="M7.958 0C8.88573 0 9.6378 0.752068 9.6378 1.67979L9.6378 11.8588C9.6378 15.0902 8.77165 17.7412 7.03937 19.8118C5.72223 21.41 4.05 22.6001 2.02271 23.3822C1.01341 23.7715 0 22.9654 0 21.8836V19.9684C0 19.2317 0.488674 18.5995 1.15977 18.2957C1.56309 18.1132 1.91665 17.9127 2.22047 17.6941C2.7874 17.2863 3.22835 16.8 3.54331 16.2353C3.85827 15.6706 4.06299 15.0118 4.15748 14.2588C4.25197 13.5373 4.29921 12.7373 4.29921 11.8588C4.29921 11.1571 3.73035 10.5882 3.02862 10.5882H1.67979C0.752068 10.5882 0 9.83617 0 8.90845L0 1.67979C0 0.752069 0.752068 0 1.67979 0L7.958 0ZM22.3202 0C23.2479 0 24 0.752068 24 1.67979L24 11.8588C24 15.0902 23.1339 17.7412 21.4016 19.8118C20.0844 21.41 18.4122 22.6001 16.3849 23.3822C15.3756 23.7715 14.3622 22.9654 14.3622 21.8836L14.3622 19.9684C14.3622 19.2317 14.8509 18.5995 15.522 18.2957C15.9253 18.1132 16.2789 17.9127 16.5827 17.6941C17.1496 17.2863 17.5906 16.8 17.9055 16.2353C18.189 15.6706 18.3937 15.0118 18.5197 14.2588C18.6142 13.5373 18.6614 12.7373 18.6614 11.8588C18.6614 11.1571 18.0926 10.5882 17.3908 10.5882H16.042C15.1143 10.5882 14.3622 9.83617 14.3622 8.90845L14.3622 1.67979C14.3622 0.752069 15.1143 0 16.042 0L22.3202 0Z" fill="#D2D2D2"/>
</svg>
