<svg width="78" height="41" viewBox="0 0 78 41" fill="none" xmlns="http://www.w3.org/2000/svg">
<path d="M1.68115 29.6441C1.68115 29.6441 2.20302 25.3998 4.58169 24.1775C6.20907 23.3412 8.32065 24.1052 9.15927 23.0459C10.6322 21.1854 9.55304 19.7495 11.8172 17.7815C15.2959 14.758 20.8579 16.4089 22.892 13.698C24.664 11.3364 22.281 10.2198 23.4335 7.794C24.5859 5.36819 29.0656 4.79158 32.8691 3.57064C36.2797 2.47584 39.6299 1.44556 39.6299 1.44556" stroke="#C6C6C6" stroke-width="3.02469"/>
<path d="M0.939453 29.249C0.939453 29.249 1.8126 24.7513 4.19126 23.529C5.81865 22.6927 7.83773 23.3559 8.67634 22.2966C10.1493 20.4361 8.93535 19.299 11.4364 17.1701C15.6945 13.5456 20.0975 15.9402 22.1316 13.2293C23.9036 10.8677 21.4909 10.0718 22.673 7.32532C23.8552 4.5788 28.7187 4.05078 32.5222 2.82984C35.9328 1.73504 39.4309 0.607666 39.4309 0.607666" stroke="#D6D6D6" stroke-width="1.20988"/>
<path d="M69.457 23.1439C67.9841 21.2834 69.0633 19.8476 66.7991 17.8796C63.3205 14.856 57.7584 16.507 55.7243 13.796C53.9523 11.4344 56.3353 10.3179 55.1829 7.89206C54.0304 5.46626 49.6494 4.93903 45.8459 3.71808C42.4353 2.62329 39.2332 1.44653 39.2332 1.44653" stroke="#C6C6C6" stroke-width="3.02469"/>
<path d="M69.9355 22.3954C68.4626 20.5349 69.4397 19.2368 67.1755 17.2689C63.6969 14.2453 58.5144 16.039 56.4803 13.328C54.7084 10.9664 57.121 10.1706 55.9389 7.42408C54.7567 4.67755 49.7451 4.05078 45.9416 2.82984C42.5311 1.73504 39.1315 0.607666 39.1315 0.607666" stroke="#D6D6D6" stroke-width="1.20988"/>
<path fill-rule="evenodd" clip-rule="evenodd" d="M5.07088 22.8009L5.07167 22.802C5.33914 23.1548 5.67062 23.4939 6.06913 23.8182C6.48227 24.141 7.04065 24.5505 7.74631 25.0474C8.51319 25.5767 9.14207 26.0514 9.62932 26.4708C10.1442 26.8893 10.5785 27.3657 10.9298 27.9001C11.2992 28.462 11.4878 29.0762 11.4882 29.7346C11.5025 31.0257 10.8784 32.0256 9.69088 32.7067L9.6893 32.7076L9.68772 32.7085C8.53499 33.3556 7.10929 33.6739 5.43147 33.6874L5.42988 33.6874H5.42829C4.30493 33.6874 3.34848 33.539 2.57506 33.2237L2.57386 33.2232L2.57266 33.2227C1.83181 32.9149 1.25059 32.5087 0.866295 31.9857L0.862442 31.9804L0.858763 31.9751C0.502027 31.4545 0.315828 30.8904 0.315828 30.29C0.315828 29.8476 0.41529 29.4302 0.615529 29.0438C0.81431 28.6471 1.08924 28.3278 1.44394 28.1013C1.88135 27.8151 2.34956 27.6629 2.84245 27.6629C3.1134 27.6629 3.3669 27.7093 3.59756 27.805C2.80841 27.2652 2.17731 26.8067 1.70756 26.4306L1.70271 26.4268L1.69799 26.4227C1.21683 26.0121 0.813591 25.5304 0.488994 24.9797L0.487064 24.9764L0.485199 24.9731C0.158537 24.3936 0 23.7393 0 23.021C0 22.2023 0.270508 21.4627 0.79985 20.8153L0.800454 20.8146C1.3335 20.1659 2.03364 19.6689 2.88758 19.3183C3.74193 18.9543 4.66268 18.7742 5.64542 18.7742C5.93762 18.7742 6.16933 18.7807 6.33255 18.7956L6.33679 18.796L6.34102 18.7964C7.30884 18.9056 8.13685 19.133 8.81144 19.4921C9.47018 19.8427 9.98227 20.2712 10.318 20.7893C10.6438 21.2792 10.8171 21.8013 10.8171 22.3494C10.8171 22.9411 10.627 23.4605 10.2387 23.8815C9.84 24.3137 9.31588 24.5222 8.705 24.5222C8.32411 24.5222 7.92335 24.4272 7.50787 24.2552L7.00045 24.045L7.36112 23.6307C7.63979 23.3105 7.79699 22.8704 7.79699 22.2704C7.79699 21.8638 7.71605 21.4685 7.552 21.0815L7.55 21.0768L7.54812 21.072C7.398 20.6907 7.19073 20.3993 6.93234 20.1838L6.92548 20.1781L6.91889 20.1721C6.68309 19.9566 6.43409 19.8606 6.15864 19.8606C5.65562 19.8606 5.28095 20.0136 4.99683 20.2979C4.70724 20.5877 4.55976 20.9459 4.55976 21.4013C4.55976 21.8833 4.72175 22.3468 5.07007 22.7999L5.07088 22.8009ZM9.98805 21.0062C9.69854 20.5585 9.24454 20.17 8.62604 19.8408C8.18645 19.6068 7.66708 19.4294 7.06795 19.3085C6.82411 19.2593 6.56707 19.2195 6.29681 19.189C6.2564 19.1853 6.21034 19.1822 6.15864 19.1795C6.02517 19.1727 5.85409 19.1692 5.64542 19.1692C5.56182 19.1692 5.47875 19.1706 5.3962 19.1734C4.5562 19.2012 3.77074 19.3711 3.03984 19.6828C2.23711 20.012 1.5923 20.4729 1.1054 21.0655C0.631655 21.6449 0.394785 22.2967 0.394785 23.021C0.394785 23.6794 0.539539 24.2654 0.829047 24.779C1.13172 25.2926 1.50676 25.7403 1.95418 26.1222C2.41476 26.4909 3.03984 26.9452 3.82941 27.4851C4.46106 27.9197 4.94797 28.2686 5.29011 28.532C5.63226 28.7822 5.9744 29.0719 6.31655 29.4011C6.57974 29.6645 6.77713 29.9542 6.90873 30.2702C7.05348 30.5863 7.12586 30.9023 7.12586 31.2183C7.12586 31.7319 6.95479 32.1665 6.61264 32.522C6.46888 32.6716 6.30124 32.7886 6.10973 32.8728C5.90885 32.9611 5.6817 33.0135 5.42829 33.03C5.42758 33.03 5.42688 33.03 5.42617 33.0301C5.369 33.0338 5.31048 33.0356 5.25063 33.0356C4.90431 33.0356 4.59343 32.9697 4.318 32.838C4.27946 32.8195 4.24161 32.7998 4.20445 32.7788C3.90179 32.6076 3.6715 32.3903 3.51358 32.127C3.35567 31.8504 3.27671 31.5739 3.27671 31.2973C3.27671 30.9813 3.38199 30.7377 3.59254 30.5665C4.0268 30.211 4.24393 29.8093 4.24393 29.3616C4.24393 28.9929 4.11234 28.6834 3.84915 28.4332C3.58596 28.183 3.25039 28.0579 2.84245 28.0579C2.4345 28.0579 2.03972 28.183 1.65809 28.4332C1.36859 28.6176 1.1383 28.8809 0.967222 29.2233C0.796149 29.5525 0.710612 29.9081 0.710612 30.29C0.710612 30.8035 0.868526 31.2908 1.18435 31.7517C1.51334 32.1994 2.02656 32.5681 2.72401 32.8578C3.1505 33.0317 3.64572 33.1534 4.20968 33.2229C4.53394 33.2629 4.88093 33.2856 5.25063 33.2911C5.30928 33.2919 5.3685 33.2924 5.42829 33.2924C5.6934 33.2902 5.95121 33.2803 6.20174 33.2625C7.49319 33.1708 8.5908 32.8713 9.49457 32.364C10.5736 31.7451 11.1066 30.8694 11.0934 29.7369C11.0934 29.1575 10.929 28.6176 10.6 28.1172C10.271 27.6168 9.86303 27.1691 9.37613 26.774C8.90239 26.3658 8.28389 25.8983 7.52064 25.3716C6.81003 24.8712 6.24417 24.4564 5.82307 24.1272C5.40197 23.7848 5.04666 23.4226 4.75715 23.0408C4.36237 22.5272 4.16498 21.9807 4.16498 21.4013C4.16498 20.8482 4.34921 20.3873 4.71767 20.0186C4.92856 19.8076 5.1761 19.6569 5.46027 19.5667C5.52035 19.5476 5.58206 19.5312 5.64542 19.5175C5.80597 19.4829 5.97705 19.4655 6.15864 19.4655C6.19453 19.4655 6.23007 19.4668 6.26526 19.4692C6.26728 19.4693 6.2693 19.4695 6.27132 19.4696C6.50484 19.4868 6.72295 19.558 6.92565 19.6831C7.01513 19.7383 7.1016 19.8041 7.18508 19.8803C7.5009 20.1437 7.74436 20.4927 7.91543 20.9272C8.09966 21.3618 8.19178 21.8095 8.19178 22.2704C8.19178 22.7736 8.09204 23.2029 7.89257 23.5582C7.82582 23.6771 7.74791 23.7878 7.65882 23.8901C7.79497 23.9465 7.92693 23.9928 8.0547 24.0291C8.28508 24.0945 8.50184 24.1272 8.705 24.1272C9.21822 24.1272 9.63274 23.956 9.94857 23.6136C10.2644 23.2712 10.4223 22.8498 10.4223 22.3494C10.4223 21.8885 10.2776 21.4408 9.98805 21.0062ZM6.04008 29.6831C5.71019 29.3659 5.3825 29.0888 5.05718 28.8509L5.05326 28.8481L5.04941 28.8451C4.82854 28.6751 4.54365 28.4669 4.19387 28.22C4.48873 28.5339 4.63872 28.9213 4.63872 29.3616C4.63872 29.9571 4.34304 30.4625 3.84253 30.8723L3.84149 30.8731C3.73891 30.9565 3.6715 31.0784 3.6715 31.2973C3.6715 31.4942 3.72668 31.7026 3.85424 31.9272C3.97256 32.1231 4.14896 32.2936 4.39871 32.4349C4.63446 32.5682 4.91455 32.6405 5.25063 32.6405C5.74756 32.6405 6.08939 32.4966 6.32807 32.2482L6.32827 32.248C6.59646 31.9693 6.73108 31.6343 6.73108 31.2183C6.73108 30.9646 6.67333 30.7044 6.54984 30.4348L6.54697 30.4285L6.54431 30.4222C6.43466 30.1588 6.26865 29.9125 6.04008 29.6831ZM23.1829 28.8411L23.1848 28.9169C23.2005 29.5288 22.9819 30.1996 22.5829 30.9158C22.1769 31.6553 21.5538 32.2862 20.7339 32.8146C19.8807 33.3645 18.8483 33.6282 17.658 33.6282C16.6045 33.6282 15.6368 33.4197 14.762 32.9961C13.8804 32.5692 13.1732 31.9403 12.6469 31.1148L12.6456 31.1127L12.6443 31.1106C12.1256 30.2742 11.8744 29.2907 11.8744 28.1764C11.8744 27.1164 12.1511 26.168 12.7132 25.346L12.7136 25.3454L12.714 25.3448C13.2813 24.5217 14.0335 23.8909 14.9624 23.454C15.8996 23.0064 16.9117 22.784 17.9935 22.784C18.5929 22.784 19.1891 22.891 19.7805 23.1019C20.3969 23.3082 20.9375 23.6611 21.3998 24.1527C21.8838 24.6672 22.1768 25.3177 22.2923 26.083L22.3336 26.357L17.0966 29.1997C17.3594 29.6119 17.6644 29.9268 18.0082 30.1542C18.4588 30.4305 18.9384 30.5665 19.4542 30.5665C20.0309 30.5665 20.5825 30.4005 21.1156 30.0567C21.6432 29.7164 22.0645 29.2391 22.3778 28.6121L22.7585 27.8502L23.1829 28.8411ZM16.7488 29.3885C16.7097 29.3264 16.6717 29.2625 16.6346 29.1969C16.6207 29.1722 16.6068 29.1472 16.5932 29.122C16.5795 29.0968 16.566 29.0713 16.5526 29.0456L21.9019 26.1419C21.7966 25.444 21.5334 24.8712 21.1123 24.4234C20.6912 23.9757 20.2043 23.6597 19.6516 23.4753C19.0989 23.2778 18.5462 23.179 17.9935 23.179C16.9671 23.179 16.013 23.3897 15.1313 23.8111C14.2628 24.2193 13.5654 24.8053 13.039 25.5691C12.5258 26.3197 12.2692 27.1888 12.2692 28.1764C12.2692 29.2299 12.506 30.1385 12.9798 30.9023C13.4667 31.6661 14.1181 32.2455 14.934 32.6405C15.7498 33.0356 16.6578 33.2331 17.658 33.2331C18.7897 33.2331 19.7437 32.9829 20.5202 32.4825C21.2966 31.9821 21.869 31.3961 22.2375 30.7245C22.4636 30.3188 22.6204 29.9431 22.7079 29.5974C22.7681 29.3598 22.7955 29.1363 22.7902 28.927L22.7309 28.7888C22.707 28.8367 22.6824 28.884 22.6572 28.9304C22.6444 28.9541 22.6314 28.9775 22.6183 29.0007C22.5329 29.1519 22.4409 29.295 22.3421 29.43C22.0595 29.8161 21.7219 30.1356 21.3295 30.3887C20.7373 30.7706 20.1122 30.9616 19.4542 30.9616C18.8621 30.9616 18.3094 30.8035 17.7961 30.4875C17.3908 30.2207 17.0417 29.8543 16.7488 29.3885ZM16.5921 23.7321C16.3683 23.7979 16.1907 24.0547 16.0591 24.5024C15.9275 24.937 15.8617 25.4506 15.8617 26.0432C15.8617 26.8801 15.9938 27.6667 16.258 28.4029C16.264 28.4196 16.2701 28.4363 16.2762 28.453C16.3164 28.5574 16.3491 28.6373 16.3746 28.6927C16.3835 28.7121 16.3915 28.7286 16.3986 28.742C16.4045 28.753 16.4098 28.762 16.4144 28.769L18.3094 27.6629C18.309 27.6563 18.3087 27.6497 18.3084 27.6431C18.2675 26.8194 18.1165 25.9569 17.8554 25.0555C17.5922 24.1469 17.2369 23.6926 16.7894 23.6926C16.7368 23.6926 16.671 23.7058 16.5921 23.7321ZM17.9006 27.4441C17.8473 26.7203 17.7066 25.961 17.4762 25.1655C17.3508 24.7326 17.2136 24.4468 17.0806 24.2768C16.9555 24.1169 16.86 24.0882 16.7915 24.0877C16.7915 24.0877 16.7912 24.0877 16.791 24.0877C16.7891 24.0879 16.7849 24.0885 16.778 24.0898C16.7645 24.0926 16.7444 24.0977 16.7169 24.1069L16.7102 24.1091L16.7034 24.1111C16.7019 24.1116 16.6943 24.1139 16.6801 24.1253C16.6651 24.1373 16.6428 24.1596 16.6156 24.1989C16.5595 24.28 16.497 24.4126 16.4378 24.6139L16.4374 24.6155L16.4369 24.617C16.3194 25.0051 16.2565 25.4783 16.2565 26.0432C16.2565 26.8113 16.3736 27.5294 16.6052 28.2003L17.9006 27.4441ZM23.1897 24.4365L23.5058 24.3721C24.9547 24.077 26.2131 23.5981 27.2869 22.9408L27.6265 22.7329L27.9469 23.2671V34.6355C27.9469 35.5323 27.7307 36.2748 27.2172 36.7738C26.748 37.2423 26.1638 37.4842 25.4885 37.4996L25.484 37.4997H23.1897V36.512H24.0725C24.085 36.4796 24.0977 36.4242 24.0977 36.3343V25.6679C24.0977 25.4621 24.0507 25.3815 24.026 25.3539C24.0092 25.3352 23.9628 25.2955 23.8179 25.2927L23.1897 25.3498V24.4365ZM24.2394 25.0175C24.4081 25.1402 24.4925 25.357 24.4925 25.6679V36.3343C24.4925 36.4848 24.4671 36.6099 24.4162 36.7096C24.4092 36.7232 24.4017 36.7364 24.3938 36.7491C24.328 36.8544 24.2293 36.9071 24.0977 36.9071H23.5845V37.1046H25.4795C26.0585 37.0915 26.5454 36.8873 26.9402 36.4923C27.3481 36.0972 27.5521 35.4783 27.5521 34.6355V23.3765L27.4929 23.2778C27.4441 23.3077 27.3949 23.3372 27.3454 23.3664C27.3396 23.3698 27.3338 23.3732 27.328 23.3765C27.2716 23.4096 27.2147 23.4422 27.1573 23.4744C26.3036 23.9528 25.3493 24.3269 24.2943 24.5966C24.1324 24.638 23.9682 24.6769 23.8016 24.7134C23.7962 24.7146 23.7907 24.7158 23.7852 24.7169C23.7187 24.7314 23.6518 24.7455 23.5845 24.7592V24.9173L23.8016 24.8975C23.8653 24.8975 23.9245 24.9024 23.9793 24.9122C24.0812 24.9304 24.1678 24.9655 24.2394 25.0175ZM26.0124 19.2285C26.5402 19.2285 27.0019 19.4229 27.3773 19.7985C27.7526 20.1741 27.9469 20.6362 27.9469 21.1643C27.9469 21.6923 27.7526 22.1544 27.3773 22.53C27.0019 22.9056 26.5402 23.1 26.0124 23.1C25.4847 23.1 25.023 22.9056 24.6476 22.53C24.2723 22.1544 24.078 21.6923 24.078 21.1643C24.078 20.6362 24.2723 20.1741 24.6476 19.7985C25.023 19.4229 25.4847 19.2285 26.0124 19.2285ZM40.7328 33.5491H37.0953L37.0898 33.549C36.5796 33.5348 36.1309 33.4355 35.7922 33.2036L35.7865 33.1997L35.781 33.1956C35.6349 33.0879 35.5208 32.9511 35.433 32.7927C35.1934 33.0479 34.8973 33.2602 34.5502 33.43L34.547 33.4316L34.5437 33.4331C33.893 33.737 33.1703 33.8849 32.3831 33.8849C31.6916 33.8849 31.0312 33.7647 30.4051 33.5226C29.7713 33.2776 29.2507 32.9174 28.8592 32.4353L28.855 32.4301L28.8509 32.4248C28.4559 31.903 28.2977 31.2827 28.3578 30.5915L28.358 30.5894L28.3582 30.5872C28.431 29.8441 28.6897 29.2074 29.1499 28.7008L29.1502 28.7004C29.5927 28.2147 30.1035 27.8394 30.6815 27.5791L30.6831 27.5784L30.6848 27.5777C30.706 27.5684 30.7274 27.559 30.749 27.5497C30.2947 27.5066 29.8846 27.3661 29.5306 27.1168L29.5277 27.1148L29.5249 27.1127C29.059 26.7721 28.8498 26.2578 28.8498 25.6481C28.8498 25.002 29.1634 24.4612 29.7101 24.0347C30.235 23.6123 30.8916 23.3025 31.6659 23.0946C32.4382 22.8741 33.2369 22.7642 34.061 22.7642C35.6297 22.7642 36.9818 23.0988 38.0969 23.7905C39.3055 24.5262 39.8445 25.9281 39.8445 27.8209V32.3837C39.8445 32.4578 39.851 32.5104 39.8592 32.5458C39.8605 32.5517 39.8619 32.5569 39.8632 32.5615H40.7328V33.5491ZM37.8904 24.1272C37.0738 23.6203 36.1111 23.3126 35.0023 23.2038C34.6994 23.1741 34.3856 23.1593 34.061 23.1593C34.0578 23.1593 34.0546 23.1593 34.0514 23.1593C34.05 23.1593 34.0486 23.1593 34.0472 23.1593C33.8392 23.1596 33.6331 23.1672 33.4288 23.1822C32.8622 23.2236 32.3097 23.3214 31.7712 23.4753C31.0343 23.6728 30.4289 23.9625 29.9552 24.3444C29.4815 24.7131 29.2446 25.1477 29.2446 25.6481C29.2446 26.1617 29.4157 26.5436 29.7578 26.7938C30.1131 27.044 30.5474 27.1691 31.0606 27.1691C31.5738 27.1691 32.0805 27.0637 32.5805 26.853C32.9035 26.7204 33.164 26.5695 33.3619 26.4004C33.4784 26.3008 33.5733 26.1949 33.6464 26.0827C33.5091 26.0387 33.3856 25.9855 33.2758 25.9232C33.1225 25.8362 32.996 25.7314 32.8963 25.6086C32.7384 25.3979 32.6595 25.1609 32.6595 24.8975C32.6595 24.5288 32.7911 24.1996 33.0543 23.9099C33.19 23.7604 33.3451 23.6478 33.5194 23.5719C33.6829 23.5007 33.8635 23.4619 34.061 23.4556C34.4057 23.4395 34.6845 23.4846 34.8974 23.5907C35.0339 23.6588 35.1433 23.752 35.2256 23.8704C35.4337 24.1568 35.539 24.6427 35.5414 25.3281C35.5414 25.3359 35.5414 25.3439 35.5414 25.3518C35.5414 25.5727 35.4836 25.771 35.3679 25.9469C35.3417 25.9867 35.3125 26.0254 35.2804 26.0629C35.2514 26.0968 35.2199 26.1297 35.1861 26.1617C35.1796 26.1678 35.173 26.1739 35.1664 26.18C35.0625 26.2755 34.9463 26.364 34.8177 26.4457C34.6732 26.5375 34.5131 26.6206 34.3373 26.695C34.0083 26.8267 33.528 26.9913 32.8963 27.1888C32.0673 27.4522 31.383 27.7024 30.8435 27.9394C30.3171 28.1764 29.8499 28.5188 29.442 28.9665C29.0472 29.4011 28.8169 29.9542 28.7511 30.6258C28.6985 31.2315 28.8366 31.7517 29.1656 32.1862C29.5078 32.6076 29.9684 32.9302 30.5474 33.1541C31.1264 33.378 31.7383 33.4899 32.3831 33.4899C33.1201 33.4899 33.7846 33.3516 34.3768 33.0751C34.7507 32.8922 35.0485 32.6594 35.2703 32.3767C35.2741 32.3718 35.278 32.3669 35.2818 32.3619C35.3292 32.3004 35.3731 32.2365 35.4134 32.1702C35.415 32.1675 35.4167 32.1647 35.4184 32.1619C35.4814 32.0573 35.5356 31.9469 35.5809 31.8307C35.5867 31.9059 35.5947 31.9775 35.605 32.0456C35.6277 32.1963 35.6615 32.3297 35.7063 32.4458C35.7797 32.636 35.8826 32.7799 36.0151 32.8776C36.2652 33.0487 36.6271 33.1409 37.1008 33.1541H40.338V32.9566H39.8445C39.69 32.9566 39.5808 32.8907 39.517 32.759C39.4722 32.6665 39.4498 32.5414 39.4498 32.3837V27.8209C39.4498 25.9905 38.93 24.7592 37.8904 24.1272ZM35.5611 26.0629C35.5052 26.1562 35.4417 26.2543 35.3707 26.3573L35.3704 26.3577C35.3082 26.4479 35.2402 26.5419 35.1664 26.6396C35.1414 26.6727 35.1157 26.7062 35.0894 26.7401C34.8438 27.0566 34.5405 27.4103 34.1794 27.8011C33.8241 28.2094 33.5477 28.532 33.3503 28.769C33.1661 28.9929 33.0148 29.2299 32.8963 29.4801C32.7253 29.8093 32.6397 30.1583 32.6397 30.527C32.6397 30.8035 32.6924 31.0669 32.7976 31.3171C32.9029 31.5541 33.0543 31.7517 33.2516 31.9097C33.3832 32.015 33.5477 32.1006 33.7451 32.1665C33.9425 32.2323 34.1399 32.2652 34.3373 32.2652C34.5859 32.2652 34.8082 32.2013 35.0042 32.0735C35.0676 32.0322 35.1282 31.9841 35.1861 31.9294C35.1882 31.9273 35.1904 31.9251 35.1925 31.9229C35.2134 31.9016 35.2334 31.8793 35.2525 31.8559C35.2831 31.8185 35.3115 31.7784 35.3375 31.7356C35.3431 31.7266 35.3485 31.7173 35.3539 31.708C35.4824 31.4831 35.5515 31.1882 35.5611 30.8233V26.0629ZM35.1664 27.2755V30.8179C35.154 31.2589 35.0454 31.5089 34.9107 31.6463C34.7489 31.7974 34.5646 31.8702 34.3373 31.8702C34.1846 31.8702 34.0293 31.8448 33.87 31.7917C33.7068 31.7372 33.5861 31.6715 33.4983 31.6012C33.3524 31.4845 33.2401 31.3393 33.1599 31.1601C33.0765 30.9605 33.0345 30.7505 33.0345 30.527C33.0345 30.2222 33.1046 29.9357 33.2466 29.6624L33.25 29.6559L33.2531 29.6492C33.3568 29.4301 33.4901 29.2208 33.6543 29.0211C33.8483 28.7882 34.1209 28.4698 34.4733 28.065C34.7313 27.7856 34.9626 27.5223 35.1664 27.2755ZM34.187 26.3297C34.4929 26.1997 34.7326 26.0461 34.9152 25.8743C35.0758 25.7224 35.1466 25.5553 35.1466 25.3518C35.1466 24.6705 35.0393 24.2858 34.9063 24.1027L34.9039 24.0994L34.9015 24.096C34.8041 23.9559 34.5866 23.8266 34.0793 23.8502L34.0765 23.8503L34.0737 23.8504C33.7673 23.8603 33.5343 23.9687 33.3464 24.1756C33.1448 24.3975 33.0543 24.6335 33.0543 24.8975C33.0543 25.0728 33.104 25.2248 33.2075 25.3653C33.3189 25.4997 33.4949 25.6194 33.7668 25.7064L34.26 25.8644L33.9771 26.2985C33.9428 26.3512 33.9052 26.4021 33.8647 26.4514C33.9858 26.4077 34.0932 26.3671 34.187 26.3297ZM52.9697 32.5615V33.5491H49.352L49.3465 33.549C48.8345 33.5348 48.3845 33.4349 48.0369 33.2088L48.0272 33.2025L48.0179 33.1956C47.8869 33.099 47.7816 32.979 47.698 32.841C47.5416 32.9809 47.356 33.1032 47.1492 33.2093C46.5717 33.5056 45.916 33.6479 45.1925 33.6479C44.4448 33.6479 43.732 33.4746 43.0588 33.1306C42.3592 32.7731 41.7995 32.1977 41.3733 31.4299C40.936 30.6422 40.7314 29.6549 40.7314 28.4925C40.7314 27.1883 41.0057 26.0898 41.589 25.2289L41.5894 25.2283L41.5898 25.2277C42.1666 24.383 42.8879 23.7702 43.755 23.408C44.5897 23.0465 45.4382 22.863 46.2979 22.863C46.7164 22.863 47.0949 22.8968 47.423 22.9741V20.2359C47.423 20.0301 47.376 19.9495 47.3513 19.922C47.3345 19.9033 47.2881 19.8635 47.1432 19.8607L46.515 19.9179V19.0052L46.8303 18.9403C49.134 18.4661 50.6367 17.9827 51.3999 17.5099L51.7403 17.2991L52.0617 17.8352V32.3837C52.0617 32.4737 52.0745 32.5291 52.087 32.5615H52.9697ZM47.5715 19.5906C47.7357 19.7141 47.8178 19.9292 47.8178 20.2359V23.5346C47.7043 23.4734 47.5727 23.4224 47.423 23.3815C47.3142 23.3518 47.1957 23.3275 47.0677 23.3085C46.9066 23.2846 46.7302 23.2691 46.5387 23.2622C46.461 23.2594 46.3807 23.258 46.2979 23.258C45.4952 23.258 44.699 23.4292 43.9094 23.7716C43.1199 24.1008 42.4553 24.6605 41.9158 25.4506C41.3894 26.2275 41.1262 27.2415 41.1262 28.4925C41.1262 29.6118 41.3236 30.527 41.7184 31.2381C42.1132 31.9492 42.6198 32.4628 43.2383 32.7788C43.8568 33.0948 44.5082 33.2529 45.1925 33.2529C45.8636 33.2529 46.4558 33.1212 46.969 32.8578C47.2041 32.7372 47.3908 32.6028 47.5292 32.4545C47.5599 32.4217 47.5881 32.3883 47.614 32.3541C47.717 32.2184 47.7826 32.072 47.8108 31.9149C47.8135 31.9001 47.8158 31.8852 47.8178 31.8702V31.8307C47.8188 31.8439 47.8199 31.8571 47.8211 31.8702L47.8211 31.8706C47.8227 31.8886 47.8245 31.9064 47.8263 31.924C47.8337 31.9928 47.843 32.0584 47.8544 32.1208C47.8827 32.2754 47.9236 32.4104 47.9771 32.5257C48.0472 32.6768 48.1388 32.7941 48.2521 32.8776C48.5153 33.0487 48.8837 33.1409 49.3575 33.1541H52.575V32.9566H52.0617C51.9301 32.9566 51.8314 32.9039 51.7656 32.7985C51.7577 32.7859 51.7503 32.7727 51.7433 32.759C51.6924 32.6594 51.667 32.5343 51.667 32.3837V17.9446L51.6077 17.8458C51.5794 17.8634 51.5501 17.8809 51.5201 17.8985C51.4936 17.9139 51.4665 17.9292 51.4388 17.9446C51.3857 17.974 51.3301 18.0033 51.2722 18.0325C50.4962 18.424 49.284 18.8037 47.6355 19.1718C47.4704 19.2086 47.3008 19.2454 47.1269 19.282C47.1215 19.2832 47.116 19.2843 47.1106 19.2855C47.0443 19.2994 46.9774 19.3134 46.9098 19.3273V19.4853L47.1269 19.4655C47.1905 19.4655 47.2498 19.4704 47.3046 19.4802C47.4097 19.499 47.4987 19.5358 47.5715 19.5906ZM47.5801 31.8246C47.5871 31.8138 47.5939 31.8026 47.6007 31.7912C47.7323 31.5673 47.8046 31.2315 47.8178 30.7838V24.5617C47.8178 24.2932 47.7656 24.0723 47.6611 23.8988C47.6543 23.8874 47.6472 23.8762 47.6399 23.8653C47.6274 23.8466 47.6144 23.8286 47.6007 23.8111C47.4559 23.6267 47.2783 23.5346 47.0677 23.5346C46.9208 23.5346 46.7739 23.5769 46.627 23.6617C46.4844 23.744 46.3418 23.8662 46.1992 24.0284C45.9097 24.3444 45.6662 24.8382 45.4688 25.5098C45.2714 26.1814 45.1727 27.0176 45.1727 28.0184C45.1727 28.8349 45.2714 29.5591 45.4688 30.1912C45.6662 30.8101 45.9097 31.2908 46.1992 31.6331C46.5019 31.9624 46.7914 32.127 47.0677 32.127C47.1661 32.127 47.2556 32.1053 47.3362 32.062C47.3714 32.0431 47.4049 32.02 47.4368 31.9928C47.4769 31.9585 47.5143 31.9176 47.5489 31.8702C47.5537 31.8637 47.5584 31.857 47.5631 31.8503C47.566 31.846 47.5689 31.8417 47.5718 31.8374C47.5733 31.8351 47.5748 31.8329 47.5762 31.8307C47.5775 31.8287 47.5788 31.8267 47.5801 31.8246ZM46.4953 31.3717C46.7651 31.6632 46.9548 31.7319 47.0677 31.7319C47.1268 31.7319 47.1862 31.717 47.2604 31.5909C47.3417 31.4526 47.4101 31.1976 47.423 30.7778V24.5617C47.423 24.3035 47.364 24.1492 47.2902 24.0552C47.2107 23.9539 47.1423 23.9296 47.0677 23.9296C46.9394 23.9296 46.7488 24.0014 46.4956 24.2894L46.4929 24.2924L46.4902 24.2953C46.2593 24.5474 46.0375 24.9752 45.8476 25.6213C45.6643 26.2448 45.5675 27.0406 45.5675 28.0184C45.5675 28.8034 45.6625 29.4863 45.8453 30.0724C46.032 30.6573 46.2531 31.0829 46.4953 31.3717ZM61.7308 33.5491L61.7253 33.549C61.2151 33.5348 60.7663 33.4355 60.4277 33.2036L60.422 33.1997L60.4164 33.1956C60.2704 33.0879 60.1563 32.9511 60.0685 32.7927C59.8289 33.0479 59.5328 33.2602 59.1856 33.43L59.1824 33.4316L59.1792 33.4331C58.5284 33.737 57.8058 33.8849 57.0186 33.8849C56.327 33.8849 55.6667 33.7647 55.0406 33.5226C54.4068 33.2776 53.8862 32.9174 53.4947 32.4353L53.4905 32.4301L53.4864 32.4248C53.0914 31.903 52.9332 31.2827 52.9933 30.5915L52.9935 30.5894L52.9937 30.5872C53.0665 29.8441 53.3251 29.2074 53.7853 28.7008L53.7857 28.7004C54.2282 28.2147 54.7389 27.8394 55.3169 27.5791L55.3186 27.5784L55.3202 27.5777C55.3414 27.5684 55.3628 27.559 55.3844 27.5497C54.9302 27.5066 54.52 27.3661 54.1661 27.1168L54.1632 27.1148L54.1603 27.1127C53.6945 26.7721 53.4853 26.2578 53.4853 25.6481C53.4853 25.0019 53.7989 24.4611 54.3457 24.0346C54.8705 23.6123 55.5271 23.3025 56.3013 23.0946C57.0736 22.8741 57.8724 22.7642 58.6964 22.7642C60.2651 22.7642 61.6172 23.0988 62.7323 23.7904C63.9409 24.5261 64.48 25.928 64.48 27.8209V32.3837C64.48 32.4578 64.4865 32.5104 64.4947 32.5458C64.496 32.5517 64.4974 32.5569 64.4987 32.5615H66.2337C66.2357 32.5549 66.2378 32.547 66.2399 32.5375C66.2486 32.4986 66.2552 32.4421 66.2552 32.364V20.2359C66.2552 20.0277 66.2086 19.9453 66.1846 19.9177C66.1701 19.9011 66.1297 19.8635 65.9949 19.8607L65.3669 19.9179V19.0056L65.6817 18.9404C67.972 18.4662 69.4686 17.9829 70.2321 17.5099L70.5296 17.3256L70.9136 17.806V24.3241C71.0647 24.1862 71.2275 24.0496 71.4016 23.9141L71.4037 23.9125L71.4057 23.9109C71.9189 23.5223 72.4459 23.2256 72.9869 23.026C73.3507 22.8896 73.7399 22.8235 74.1508 22.8235C74.9589 22.8235 75.6625 23.0969 76.2384 23.6428C76.8451 24.218 77.1117 25.0652 77.1117 26.1024V32.3837C77.1117 32.4737 77.1245 32.5291 77.137 32.5615H78V33.5491H61.7308ZM72.4318 32.5615C72.4338 32.5549 72.4359 32.547 72.438 32.5375C72.4467 32.4986 72.4533 32.4421 72.4533 32.364V25.9444C72.4533 25.4975 72.3946 25.2217 72.3183 25.0712C72.2831 25.0016 72.2509 24.9725 72.2315 24.9597C72.2143 24.9484 72.1879 24.937 72.1375 24.937C72.0101 24.937 71.8113 24.9997 71.5287 25.2112C71.2901 25.3984 71.0856 25.6015 70.9136 25.8201V32.3837C70.9136 32.4535 70.92 32.5031 70.9278 32.5365C70.9303 32.5469 70.9327 32.5552 70.9349 32.5615H72.4318ZM70.5909 32.759C70.5429 32.6664 70.5188 32.5413 70.5188 32.3837V25.6876C70.5743 25.6113 70.633 25.5368 70.6948 25.4641C70.7329 25.4194 70.7722 25.3754 70.8127 25.3321C70.8455 25.2969 70.8792 25.2622 70.9136 25.2279C71.0296 25.1126 71.1546 25.0025 71.2887 24.8975C71.4694 24.7618 71.6394 24.665 71.7986 24.607C71.9176 24.5636 72.0305 24.542 72.1375 24.542C72.6112 24.542 72.8481 25.0094 72.8481 25.9444V32.364C72.8481 32.531 72.8246 32.6626 72.7775 32.759C72.7133 32.8907 72.6052 32.9566 72.4533 32.9566H71.9598V33.1541H77.6052V32.9566H77.1117C76.9801 32.9566 76.654 33.009 76.5882 32.9036C76.5803 32.891 76.4471 32.8679 76.4401 32.8543C76.3892 32.7546 76.7169 32.5343 76.7169 32.3837V26.1024C76.7169 25.1279 76.4669 24.4037 75.9669 23.9296C75.4668 23.4556 74.8615 23.2185 74.1508 23.2185C73.7824 23.2185 73.4402 23.2778 73.1244 23.3963C72.6244 23.5807 72.1309 23.8572 71.644 24.2259C71.6292 24.2374 71.6146 24.2488 71.6001 24.2603C71.4262 24.3974 71.266 24.5345 71.1194 24.6716C71.118 24.673 71.1165 24.6743 71.1151 24.6756C71.0448 24.7415 70.9776 24.8074 70.9136 24.8733C70.765 25.0262 70.6335 25.1791 70.5188 25.3321V17.9446L70.4399 17.8458C70.3866 17.8788 70.3303 17.9117 70.271 17.9446C70.2239 17.9707 70.1749 17.9967 70.1241 18.0226C69.3496 18.4179 68.1347 18.8012 66.4795 19.1726C66.3168 19.2091 66.15 19.2455 65.9788 19.2818C65.9734 19.2829 65.9679 19.2841 65.9624 19.2853C65.8962 19.2993 65.8292 19.3133 65.7617 19.3273V19.4853L65.9788 19.4655C66.0426 19.4655 66.1018 19.4707 66.1565 19.4812C66.2574 19.5004 66.3428 19.5374 66.4127 19.5922C66.5709 19.716 66.6499 19.9306 66.6499 20.2359V32.364C66.6499 32.531 66.7656 32.7085 66.7186 32.8049C66.6544 32.9366 66.4071 32.9036 66.2552 32.9036H65.7617V33.1999H71.4071V32.9566H70.9136C70.7629 32.949 70.6553 32.8832 70.5909 32.759ZM62.5258 24.1272C61.7093 23.6203 60.7466 23.3126 59.6377 23.2038C59.3349 23.1741 59.0211 23.1593 58.6964 23.1593C58.6932 23.1593 58.6901 23.1593 58.6869 23.1593C58.6855 23.1593 58.6841 23.1593 58.6827 23.1593C58.4747 23.1596 58.2686 23.1672 58.0643 23.1822C57.4977 23.2236 56.9452 23.3214 56.4067 23.4753C55.6697 23.6728 55.0644 23.9625 54.5907 24.3444C54.1169 24.7131 53.8801 25.1477 53.8801 25.6481C53.8801 26.1617 54.0511 26.5436 54.3933 26.7938C54.7486 27.044 55.1828 27.1691 55.6961 27.1691C56.2093 27.1691 56.7159 27.0637 57.216 26.853C57.539 26.7204 57.7995 26.5695 57.9974 26.4004C58.1139 26.3008 58.2088 26.1949 58.2819 26.0827C58.1446 26.0387 58.021 25.9855 57.9112 25.9232C57.758 25.8362 57.6315 25.7314 57.5318 25.6086C57.3739 25.3979 57.2949 25.1609 57.2949 24.8975C57.2949 24.5288 57.4265 24.1996 57.6897 23.9099C57.8255 23.7604 57.9805 23.6478 58.1548 23.5719C58.3184 23.5007 58.4989 23.4619 58.6964 23.4556C59.0412 23.4395 59.32 23.4846 59.5329 23.5907C59.6694 23.6588 59.7788 23.752 59.861 23.8704C60.0692 24.1568 60.1745 24.6427 60.1768 25.3281C60.1769 25.3359 60.1769 25.3439 60.1769 25.3518C60.1769 25.5727 60.119 25.771 60.0033 25.9469C59.9771 25.9867 59.948 26.0254 59.9158 26.0629C59.8868 26.0968 59.8554 26.1297 59.8216 26.1617C59.815 26.1678 59.8085 26.1739 59.8018 26.18C59.698 26.2755 59.5818 26.364 59.4532 26.4457C59.3087 26.5375 59.1485 26.6206 58.9728 26.695C58.6438 26.8267 58.1635 26.9913 57.5318 27.1888C56.7028 27.4522 56.0185 27.7024 55.4789 27.9394C54.9526 28.1764 54.4854 28.5188 54.0775 28.9665C53.6827 29.4011 53.4524 29.9542 53.3866 30.6258C53.3339 31.2315 53.4721 31.7517 53.8011 32.1862C54.1432 32.6076 54.6038 32.9302 55.1828 33.1541C55.7619 33.378 56.3738 33.4899 57.0186 33.4899C57.7555 33.4899 58.4201 33.3516 59.0123 33.0751C59.3862 32.8922 59.684 32.6594 59.9057 32.3767C59.9096 32.3718 59.9134 32.3669 59.9172 32.3619C59.9647 32.3004 60.0085 32.2365 60.0488 32.1702C60.0505 32.1675 60.0522 32.1647 60.0539 32.1619C60.1169 32.0573 60.171 31.9469 60.2164 31.8307C60.2221 31.9059 60.2302 31.9775 60.2405 32.0456C60.2632 32.1963 60.297 32.3297 60.3418 32.4458C60.4152 32.636 60.5181 32.7799 60.6506 32.8776C60.9006 33.0487 61.2625 33.1409 61.7363 33.1541H64.9735V32.9566H64.48C64.3255 32.9566 64.2163 32.8907 64.1525 32.759C64.1077 32.6665 64.0852 32.5414 64.0852 32.3837V27.8209C64.0852 25.9905 63.5654 24.7592 62.5258 24.1272ZM60.1966 26.0629C60.1407 26.1562 60.0772 26.2543 60.0062 26.3573L60.0059 26.3577C59.9437 26.4479 59.8756 26.5419 59.8018 26.6396C59.7768 26.6727 59.7512 26.7062 59.7249 26.7401C59.4793 27.0566 59.176 27.4103 58.8149 27.8011C58.4596 28.2094 58.1832 28.532 57.9858 28.769C57.8016 28.9929 57.6503 29.2299 57.5318 29.4801C57.3607 29.8093 57.2752 30.1583 57.2752 30.527C57.2752 30.8035 57.3278 31.0669 57.4331 31.3171C57.5384 31.5541 57.6897 31.7517 57.8871 31.9097C58.0187 32.015 58.1832 32.1006 58.3806 32.1665C58.578 32.2323 58.7754 32.2652 58.9728 32.2652C59.2214 32.2652 59.4436 32.2013 59.6396 32.0735C59.703 32.0322 59.7637 31.9841 59.8216 31.9294C59.8237 31.9273 59.8259 31.9251 59.828 31.9229C59.8489 31.9016 59.8689 31.8793 59.888 31.8559C59.9186 31.8185 59.9469 31.7784 59.973 31.7356C59.9785 31.7266 59.984 31.7173 59.9893 31.708C60.1179 31.4831 60.187 31.1882 60.1966 30.8233V26.0629ZM59.8018 27.2755V30.818C59.7895 31.2589 59.6809 31.5089 59.5462 31.6463C59.3844 31.7974 59.2 31.8702 58.9728 31.8702C58.8201 31.8702 58.6648 31.8448 58.5054 31.7917C58.3422 31.7372 58.2216 31.6715 58.1337 31.6012C57.9879 31.4845 57.8757 31.3394 57.7955 31.1602C57.712 30.9605 57.67 30.7506 57.67 30.527C57.67 30.2222 57.7401 29.9357 57.8821 29.6624L57.8855 29.6559L57.8886 29.6492C57.9923 29.4301 58.1256 29.2208 58.2898 29.0211C58.4837 28.7882 58.7564 28.4698 59.1087 28.065C59.3667 27.7856 59.5981 27.5223 59.8018 27.2755ZM58.8225 26.3297C59.1283 26.1998 59.3679 26.0463 59.5505 25.8745C59.7112 25.7226 59.7821 25.5553 59.7821 25.3518C59.7821 24.6705 59.6748 24.2858 59.5418 24.1027L59.5393 24.0994L59.537 24.096C59.4396 23.9559 59.2221 23.8266 58.7148 23.8502L58.712 23.8503L58.7092 23.8504C58.4028 23.8603 58.1698 23.9687 57.9818 24.1756C57.7803 24.3975 57.6897 24.6335 57.6897 24.8975C57.6897 25.0728 57.7395 25.2248 57.843 25.3654C57.9544 25.4998 58.1304 25.6194 58.4022 25.7064L58.8955 25.8644L58.6126 26.2985C58.5782 26.3512 58.5407 26.4021 58.5002 26.4514C58.6213 26.4077 58.7287 26.3671 58.8225 26.3297ZM27.0981 20.0779C26.7954 19.775 26.4335 19.6236 26.0124 19.6236C25.5913 19.6236 25.2295 19.775 24.9268 20.0779C24.6241 20.3807 24.4728 20.7429 24.4728 21.1643C24.4728 21.5856 24.6241 21.9478 24.9268 22.2507C25.2295 22.5535 25.5913 22.705 26.0124 22.705C26.4335 22.705 26.7954 22.5535 27.0981 22.2507C27.4008 21.9478 27.5521 21.5856 27.5521 21.1643C27.5521 20.7429 27.4008 20.3807 27.0981 20.0779Z" fill="white"/>
<path d="M4.75543 23.0409C5.04494 23.4228 5.40025 23.7849 5.82135 24.1273C6.24246 24.4565 6.80831 24.8713 7.51893 25.3717C8.28218 25.8984 8.90067 26.3659 9.37441 26.7741C9.86131 27.1692 10.2693 27.6169 10.5982 28.1173C10.9272 28.6177 11.0917 29.1576 11.0917 29.737C11.1049 30.8695 10.5719 31.7452 9.49285 32.3641C8.41377 32.9699 7.05834 33.2793 5.42657 33.2925C4.33433 33.2925 3.43291 33.1476 2.72229 32.8579C2.02484 32.5682 1.51162 32.1995 1.18264 31.7518C0.866808 31.2909 0.708894 30.8037 0.708894 30.2901C0.708894 29.9082 0.794431 29.5527 0.965504 29.2235C1.13658 28.8811 1.36687 28.6177 1.65638 28.4334C2.038 28.1832 2.43279 28.0581 2.84073 28.0581C3.24867 28.0581 3.58424 28.1832 3.84743 28.4334C4.11062 28.6835 4.24221 28.993 4.24221 29.3617C4.24221 29.8095 4.02508 30.2111 3.59082 30.5666C3.38027 30.7378 3.27499 30.9814 3.27499 31.2975C3.27499 31.574 3.35395 31.8506 3.51186 32.1271C3.66978 32.3905 3.90007 32.6077 4.20274 32.7789C4.5054 32.9501 4.85413 33.0357 5.24892 33.0357C5.82793 33.0357 6.28193 32.8645 6.61092 32.5221C6.95307 32.1666 7.12414 31.732 7.12414 31.2185C7.12414 30.9024 7.05176 30.5864 6.90701 30.2703C6.77542 29.9543 6.57802 29.6646 6.31483 29.4012C5.97269 29.072 5.63054 28.7823 5.28839 28.5321C4.94625 28.2687 4.45935 27.9198 3.82769 27.4852C3.03812 26.9453 2.41305 26.491 1.95247 26.1223C1.50504 25.7404 1.13 25.2927 0.827329 24.7791C0.537821 24.2655 0.393066 23.6796 0.393066 23.0211C0.393066 22.2969 0.629937 21.645 1.10368 21.0656C1.59058 20.473 2.23539 20.0122 3.03812 19.6829C3.84085 19.3406 4.70938 19.1694 5.6437 19.1694C5.93321 19.1694 6.15034 19.176 6.29509 19.1891C7.22942 19.2945 8.00583 19.5118 8.62432 19.841C9.24282 20.1702 9.69682 20.5586 9.98633 21.0064C10.2758 21.4409 10.4206 21.8886 10.4206 22.3495C10.4206 22.8499 10.2627 23.2713 9.94685 23.6137C9.63102 23.9561 9.2165 24.1273 8.70328 24.1273C8.38745 24.1273 8.03873 24.0483 7.6571 23.8902C8.01241 23.482 8.19006 22.9421 8.19006 22.2705C8.19006 21.8096 8.09794 21.3619 7.91371 20.9274C7.74264 20.4928 7.49919 20.1438 7.18336 19.8805C6.88069 19.6039 6.53854 19.4657 6.15692 19.4657C5.56474 19.4657 5.08442 19.65 4.71596 20.0187C4.34749 20.3875 4.16326 20.8483 4.16326 21.4014C4.16326 21.9808 4.36065 22.5273 4.75543 23.0409Z" fill="#444444"/>
<path d="M22.7884 28.9272C22.8016 29.4407 22.6174 30.0399 22.2358 30.7247C21.8673 31.3962 21.2948 31.9822 20.5184 32.4826C19.742 32.983 18.788 33.2332 17.6562 33.2332C16.6561 33.2332 15.7481 33.0357 14.9322 32.6407C14.1163 32.2456 13.465 31.6662 12.9781 30.9024C12.5043 30.1387 12.2674 29.23 12.2674 28.1766C12.2674 27.1889 12.5241 26.3198 13.0373 25.5692C13.5637 24.8055 14.2611 24.2195 15.1296 23.8112C16.0113 23.3898 16.9654 23.1792 17.9918 23.1792C18.5445 23.1792 19.0972 23.2779 19.6499 23.4754C20.2026 23.6598 20.6895 23.9758 21.1106 24.4236C21.5317 24.8713 21.7949 25.4441 21.9002 26.142L16.5509 29.0457C16.8798 29.6778 17.2944 30.1584 17.7944 30.4876C18.3076 30.8037 18.8603 30.9617 19.4525 30.9617C20.1105 30.9617 20.7356 30.7707 21.3277 30.3889C21.9199 30.007 22.3871 29.4737 22.7292 28.7889L22.7884 28.9272ZM16.2745 28.4531C16.3403 28.6243 16.3864 28.7296 16.4127 28.7691L18.3076 27.663C18.2682 26.8334 18.1168 25.9643 17.8536 25.0557C17.5905 24.147 17.2351 23.6927 16.7877 23.6927C16.7351 23.6927 16.6693 23.7059 16.5903 23.7322C16.3666 23.7981 16.189 24.0549 16.0574 24.5026C15.9258 24.9371 15.86 25.4507 15.86 26.0433C15.86 26.8992 15.9982 27.7025 16.2745 28.4531Z" fill="#444444"/>
<path d="M26.0107 19.6237C26.4318 19.6237 26.7937 19.7751 27.0964 20.078C27.399 20.3809 27.5504 20.743 27.5504 21.1644C27.5504 21.5858 27.399 21.9479 27.0964 22.2508C26.7937 22.5537 26.4318 22.7051 26.0107 22.7051C25.5896 22.7051 25.2277 22.5537 24.9251 22.2508C24.6224 21.9479 24.4711 21.5858 24.4711 21.1644C24.4711 20.743 24.6224 20.3809 24.9251 20.078C25.2277 19.7751 25.5896 19.6237 26.0107 19.6237ZM23.5828 24.7594C25.0698 24.4565 26.3726 23.9627 27.4912 23.2779L27.5504 23.3767V34.6357C27.5504 35.4785 27.3464 36.0974 26.9385 36.4924C26.5437 36.8875 26.0568 37.0916 25.4778 37.1047H23.5828V36.9072H24.096C24.2276 36.9072 24.3263 36.8546 24.3921 36.7492C24.4579 36.6439 24.4908 36.5056 24.4908 36.3344V25.668C24.4908 25.1544 24.2605 24.8976 23.7999 24.8976L23.5828 24.9174V24.7594Z" fill="#444444"/>
<path d="M40.3363 33.1542H38.1847H37.0991C36.6253 33.1411 36.2635 33.0489 36.0134 32.8777C35.7634 32.6933 35.6186 32.3444 35.5792 31.8308C35.3686 32.3707 34.9672 32.7855 34.3751 33.0752C33.7829 33.3518 33.1183 33.49 32.3814 33.49C31.7366 33.49 31.1247 33.3781 30.5457 33.1542C29.9666 32.9304 29.5061 32.6077 29.1639 32.1863C28.8349 31.7518 28.6967 31.2316 28.7494 30.6259C28.8152 29.9543 29.0455 29.4012 29.4403 28.9667C29.8482 28.5189 30.3154 28.1766 30.8417 27.9395C31.3813 27.7025 32.0656 27.4523 32.8946 27.1889C33.5263 26.9914 34.0066 26.8268 34.3356 26.6951C34.6777 26.5503 34.9607 26.3725 35.1844 26.1618C35.4212 25.9379 35.5397 25.668 35.5397 25.3519C35.5397 24.654 35.4344 24.1602 35.2239 23.8705C35.0133 23.5676 34.6251 23.4294 34.0592 23.4557C33.6513 23.4689 33.3157 23.6203 33.0525 23.91C32.7893 24.1997 32.6577 24.5289 32.6577 24.8976C32.6577 25.161 32.7367 25.398 32.8946 25.6087C33.0657 25.8194 33.3157 25.9774 33.6447 26.0828C33.4473 26.3857 33.092 26.6424 32.5788 26.8531C32.0787 27.0638 31.5721 27.1692 31.0589 27.1692C30.5457 27.1692 30.1114 27.0441 29.7561 26.7939C29.4139 26.5437 29.2429 26.1618 29.2429 25.6482C29.2429 25.1478 29.4797 24.7133 29.9535 24.3446C30.4272 23.9627 31.0326 23.673 31.7695 23.4754C32.5064 23.2647 33.2697 23.1594 34.0592 23.1594C35.5726 23.1594 36.849 23.482 37.8886 24.1273C38.9282 24.7594 39.448 25.9906 39.448 27.821V32.3839C39.448 32.7658 39.5796 32.9567 39.8428 32.9567H40.3363V33.1542ZM33.2499 31.9098C33.3815 32.0152 33.546 32.1008 33.7434 32.1666C33.9408 32.2324 34.1382 32.2654 34.3356 32.2654C34.6646 32.2654 34.9475 32.1534 35.1844 31.9296C35.4212 31.6925 35.5463 31.3238 35.5594 30.8234V26.063C35.2831 26.5239 34.8225 27.1033 34.1777 27.8013C33.8224 28.2095 33.546 28.5321 33.3486 28.7691C33.1644 28.993 33.0131 29.23 32.8946 29.4802C32.7235 29.8095 32.638 30.1584 32.638 30.5271C32.638 30.8037 32.6907 31.067 32.7959 31.3172C32.9012 31.5543 33.0525 31.7518 33.2499 31.9098Z" fill="#444444"/>
<path d="M51.6652 32.3839C51.6652 32.5551 51.6981 32.6933 51.7639 32.7987C51.8297 32.904 51.9284 32.9567 52.06 32.9567H52.5732V33.1542H51.6652H50.2045H49.3557C48.882 33.1411 48.5135 33.0489 48.2504 32.8777C48.0003 32.6933 47.8556 32.3444 47.8161 31.8308V31.8703C47.7635 32.2654 47.4805 32.5946 46.9673 32.8579C46.4541 33.1213 45.8619 33.253 45.1908 33.253C44.5065 33.253 43.8551 33.095 43.2366 32.7789C42.6181 32.4629 42.1115 31.9493 41.7167 31.2382C41.3219 30.5271 41.1245 29.6119 41.1245 28.4926C41.1245 27.2416 41.3877 26.2276 41.9141 25.4507C42.4536 24.6606 43.1182 24.1009 43.9077 23.7717C44.6973 23.4294 45.4934 23.2582 46.2962 23.2582C46.9673 23.2582 47.4739 23.3503 47.8161 23.5347V20.236C47.8161 19.7224 47.5858 19.4657 47.1252 19.4657L46.9081 19.4854V19.3274C49.211 18.8533 50.777 18.3595 51.606 17.8459L51.6652 17.9447V32.3839ZM47.8161 24.5618C47.8161 24.2458 47.7437 23.9956 47.599 23.8112C47.4542 23.6269 47.2765 23.5347 47.066 23.5347C46.7765 23.5347 46.487 23.6993 46.1975 24.0285C45.908 24.3446 45.6645 24.8384 45.4671 25.51C45.2697 26.1816 45.171 27.0177 45.171 28.0185C45.171 28.835 45.2697 29.5592 45.4671 30.1913C45.6645 30.8102 45.908 31.2909 46.1975 31.6333C46.5001 31.9625 46.7896 32.1271 47.066 32.1271C47.2897 32.1271 47.4674 32.0152 47.599 31.7913C47.7305 31.5674 47.8029 31.2316 47.8161 30.7839V24.5618Z" fill="#444444"/>
<path d="M64.9718 33.1542H62.8202H61.7346C61.2608 33.1411 60.8989 33.0489 60.6489 32.8777C60.3989 32.6933 60.2541 32.3444 60.2146 31.8308C60.0041 32.3707 59.6027 32.7855 59.0105 33.0752C58.4184 33.3518 57.7538 33.49 57.0169 33.49C56.3721 33.49 55.7601 33.3781 55.1811 33.1542C54.6021 32.9304 54.1415 32.6077 53.7994 32.1863C53.4704 31.7518 53.3322 31.2316 53.3849 30.6259C53.4507 29.9543 53.681 29.4012 54.0757 28.9667C54.4837 28.5189 54.9508 28.1766 55.4772 27.9395C56.0168 27.7025 56.701 27.4523 57.5301 27.1889C58.1618 26.9914 58.6421 26.8268 58.9711 26.6951C59.3132 26.5503 59.5961 26.3725 59.8198 26.1618C60.0567 25.9379 60.1752 25.668 60.1752 25.3519C60.1752 24.654 60.0699 24.1602 59.8593 23.8705C59.6488 23.5676 59.2606 23.4294 58.6947 23.4557C58.2868 23.4689 57.9512 23.6203 57.688 23.91C57.4248 24.1997 57.2932 24.5289 57.2932 24.8976C57.2932 25.161 57.3722 25.398 57.5301 25.6087C57.7012 25.8194 57.9512 25.9774 58.2802 26.0828C58.0828 26.3857 57.7275 26.6424 57.2143 26.8531C56.7142 27.0638 56.2076 27.1692 55.6943 27.1692C55.1811 27.1692 54.7469 27.0441 54.3916 26.7939C54.0494 26.5437 53.8783 26.1618 53.8783 25.6482C53.8783 25.1478 54.1152 24.7133 54.589 24.3446C55.0627 23.9627 55.668 23.673 56.405 23.4754C57.1419 23.2647 57.9051 23.1594 58.6947 23.1594C60.208 23.1594 61.4845 23.482 62.5241 24.1273C63.5637 24.7594 64.0835 25.9906 64.0835 27.821V32.3839C64.0835 32.7658 64.2151 32.9567 64.4783 32.9567H64.9718V33.1542ZM57.8854 31.9098C58.017 32.0152 58.1815 32.1008 58.3789 32.1666C58.5763 32.2324 58.7737 32.2654 58.9711 32.2654C59.3 32.2654 59.583 32.1534 59.8198 31.9296C60.0567 31.6925 60.1817 31.3238 60.1949 30.8234V26.063C59.9185 26.5239 59.458 27.1033 58.8131 27.8013C58.4578 28.2095 58.1815 28.5321 57.9841 28.7691C57.7999 28.993 57.6485 29.23 57.5301 29.4802C57.359 29.8095 57.2735 30.1584 57.2735 30.5271C57.2735 30.8037 57.3261 31.067 57.4314 31.3172C57.5367 31.5543 57.688 31.7518 57.8854 31.9098Z" fill="#444444"/>
<path d="M77.6035 32.7987L77.6174 33.2988H71.4054V33.0543L71.9581 32.7987H72.4412C72.7044 32.7987 72.8463 32.7987 72.8463 32.7987V25.9445C72.8463 25.0096 72.6095 24.5421 72.1357 24.5421C71.8857 24.5421 71.7207 24.6669 71.4049 24.904C71.1022 25.141 70.7277 25.6548 70.5171 25.9445V32.7987H70.9119H71.9581L72.0958 33.1013L71.4054 33.2988H65.76V32.805H66.2534C66.5166 32.805 66.6482 32.805 66.6482 32.805V20.236C66.6482 19.7224 66.4245 19.4657 65.9771 19.4657L65.76 19.4854V19.3274C68.0497 18.8533 69.6091 18.3595 70.4382 17.8459L70.5171 17.9447V25.1015C70.7935 24.7328 71.1517 24.3704 71.6517 24.0151C72.1787 23.6406 72.5086 23.445 73.1321 23.2744C73.508 23.1715 73.7295 23.1129 74.1191 23.1262C74.9048 23.1531 75.4651 23.4557 75.9651 23.9298C76.4652 24.4038 76.7152 25.1281 76.7152 26.1025V32.3839C76.7152 32.5551 76.7152 32.7987 76.7152 32.7987C76.7152 32.7987 76.9977 32.7987 77.1293 32.7987H77.6035Z" fill="#444444"/>
<path d="M48.9884 38.5965C48.5043 38.1098 48.2622 37.5285 48.2622 36.8524C48.2622 36.1764 48.5043 35.5962 48.9884 35.1117C49.4725 34.6272 50.0524 34.385 50.728 34.385C51.2781 34.385 51.7787 34.5557 52.2299 34.897L51.8371 35.2901C51.4938 35.028 51.1241 34.897 50.728 34.897C50.2152 34.897 49.7773 35.0886 49.4142 35.4717C49.0511 35.8549 48.8696 36.3151 48.8696 36.8524C48.8696 37.3897 49.0511 37.85 49.4142 38.2331C49.7773 38.6163 50.2152 38.8079 50.728 38.8079C51.1659 38.8079 51.5543 38.6636 51.8932 38.3752V37.1927V37.101H52.5005V38.5701C52.3619 38.7088 52.2266 38.8222 52.0945 38.9103C51.6808 39.1855 51.2253 39.3232 50.728 39.3232C50.0524 39.3232 49.4725 39.0809 48.9884 38.5965Z" fill="black"/>
<path d="M53.3945 39.3364V35.1937H53.8918L53.9929 35.485C54.3459 35.2153 54.5424 35.1567 54.9349 35.1258C55.4311 35.0867 55.8553 35.3887 56.1087 35.5208L55.8619 35.9653C55.6248 35.8817 55.3211 35.6581 54.9349 35.669C54.5755 35.6791 54.3109 35.81 54.0818 36.015V39.3364H53.3945Z" fill="black"/>
<path d="M71.1611 39.2905V35.1478H71.6584L71.7595 35.4391C72.1125 35.1694 72.309 35.1108 72.7015 35.0799C73.1977 35.0408 73.6219 35.3428 73.8753 35.4749L73.6285 35.9194C73.3914 35.8358 73.0877 35.6122 72.7015 35.6231C72.3421 35.6332 72.0775 35.7641 71.8484 35.9691V39.2905H71.1611Z" fill="black"/>
<path d="M57.245 38.737C56.8486 38.3246 56.6504 37.8176 56.6504 37.2161C56.6504 36.6145 56.8486 36.1075 57.245 35.6951C57.644 35.2826 58.1546 35.0764 58.7768 35.0764C59.3963 35.0764 59.9069 35.2839 60.3085 35.699C60.7128 36.1141 60.9149 36.6197 60.9149 37.2161C60.9149 37.8124 60.7128 38.318 60.3085 38.7331C59.9069 39.1482 59.3963 39.3557 58.7768 39.3557C58.152 39.3557 57.6414 39.1495 57.245 38.737ZM57.7018 36.1324C57.434 36.424 57.3001 36.7852 57.3001 37.2161C57.3001 37.6469 57.434 38.0094 57.7018 38.3036C57.9722 38.5952 58.3305 38.741 58.7768 38.741C59.2178 38.741 59.5735 38.5952 59.8439 38.3036C60.1169 38.0094 60.2534 37.6469 60.2534 37.2161C60.2534 36.7852 60.1169 36.424 59.8439 36.1324C59.5735 35.8382 59.2178 35.6911 58.7768 35.6911C58.3305 35.6911 57.9722 35.8382 57.7018 36.1324Z" fill="black"/>
<path d="M62.2535 38.7286C61.8413 38.3109 61.6353 37.8065 61.6353 37.2155C61.6353 36.6244 61.8413 36.12 62.2535 35.7024C62.6682 35.2847 63.1191 35.0934 63.7537 35.0758C64.3887 35.0583 65.1884 35.619 65.1884 35.619L64.8923 36.0635C64.8923 36.0635 64.2208 35.6636 63.7537 35.6905C63.3137 35.716 62.999 35.8403 62.7181 36.1398C62.4372 36.4366 62.2968 36.7952 62.2968 37.2155C62.2968 37.6358 62.4372 37.9957 62.7181 38.2951C63.0016 38.592 63.3136 38.7442 63.7537 38.7404C64.2568 38.7361 64.8923 38.1375 64.8923 38.1375L65.2871 38.6313C65.2871 38.6313 64.4158 39.3462 63.7537 39.3551C63.1189 39.3636 62.6682 39.1463 62.2535 38.7286Z" fill="black"/>
<path d="M65.9292 37.1842C65.9292 36.5429 66.1387 36.0319 66.5578 35.6513C66.9769 35.268 67.4127 35.0764 68.1005 35.0764C69.4697 35.0764 70.2718 35.8637 70.2718 37.4384H66.7449C66.7769 37.7695 66.9257 38.0653 67.1912 38.326C67.4567 38.5841 67.7316 38.5825 68.1005 38.5825C68.6927 38.5825 69.1862 38.0887 69.1862 38.0887L69.581 38.5331C69.581 38.5331 68.7471 39.1849 68.1005 39.2245C67.7971 39.243 67.6647 39.2659 67.3256 39.1512C66.9897 39.0365 66.7209 38.8787 66.5194 38.678C66.3211 38.4773 66.1723 38.2517 66.0732 38.0015C65.9772 37.7512 65.9292 37.4788 65.9292 37.1842ZM66.7737 36.9104H69.4273C69.3825 36.5533 69.2609 36.26 69.0626 36.0306C68.8643 35.8012 68.478 35.7184 68.1005 35.7184C67.7262 35.7184 67.5063 35.7986 67.244 36.0228C66.9817 36.247 66.8249 36.5429 66.7737 36.9104Z" fill="black"/>
<path d="M74.3154 35.0764H75.0611L76.1317 37.777L77.2292 35.0764H77.9672L75.7111 40.6071H74.9731L75.8105 38.5799L74.3154 35.0764Z" fill="black"/>
</svg>
