<svg width="107" height="233" viewBox="0 0 107 233" fill="none" xmlns="http://www.w3.org/2000/svg">
<path d="M67.583 202.831L67.9108 232.336H50.6021L50.6071 226.797C50.6071 226.797 50.8728 218.075 50.94 212.484C51.0118 206.505 50.94 197.172 50.94 197.172C50.6556 192.214 50.3314 189.438 49.6085 184.524C49.0704 180.866 48.7962 178.802 47.9442 175.204C46.8454 170.563 45.9334 168.028 44.2828 163.554C42.67 159.182 41.6634 156.758 39.6227 152.569C38.4005 150.06 36.2941 146.245 36.2941 146.245C34.9942 147.025 34.0933 149.255 32.9655 148.242C32.5331 147.854 32.2998 147.492 32.2998 146.911C32.2998 145.912 33.6313 142.583 33.6313 142.583L32.9655 141.918L30.6355 144.913C30.6355 144.913 29.3422 146.427 28.6383 145.912C28.1033 145.521 28.4355 144.898 28.3055 144.248C28.1755 143.598 27.9933 143.246 27.9726 142.583C27.9247 141.049 30.6355 137.923 30.6355 137.923L29.9698 136.925L22.6469 126.606C19.7871 122.576 19.6381 121.83 17.9868 118.617C16.2308 115.202 15.3785 113.212 13.9925 109.63C13.1468 107.445 11.9953 103.972 11.9953 103.972C11.9953 103.972 10.721 100.71 10.331 97.9801L9.33246 90.99C8.94248 88.2603 8.99959 85.6643 8.99959 85.6643C8.99959 85.6643 7.65138 86.0969 7.00243 85.6643C5.83252 84.8843 8.99959 82.6685 8.99959 82.6685C8.99959 82.6685 5.66665 82.6685 5.33813 81.67C4.90009 80.3385 8.66673 79.0071 8.66673 79.0071C8.66673 79.0071 8.36258 77.5958 8.33387 76.6771C8.29711 75.5005 8.66673 73.6813 8.66673 73.6813H7.33528C6.68533 73.6813 5.87891 74.0419 5.33813 73.6813C4.33954 73.0155 8.99959 68.6884 8.99959 68.6884V66.0255C8.99959 64.9856 8.77957 64.1788 8.99959 63.0298C9.15421 62.2223 9.66532 61.0326 9.66532 61.0326C9.66532 61.0326 8.00101 60.2875 8.00101 59.3683C8.00101 58.4492 9.66532 57.704 9.66532 57.704C9.66532 57.704 8.59784 57.2994 8.33387 56.7054C7.80593 55.5176 10.9968 54.7083 10.9968 54.7083C10.9968 54.7083 5.00527 55.6612 3.67383 55.0411C2.82409 54.6454 2.43191 54.2649 1.67667 53.7097C1.00606 53.2167 -0.131022 53.1982 0.0123686 52.3783C0.124338 51.738 1.34381 51.3797 1.34381 51.3797C1.34381 51.3797 3.56484 50.9072 5.00527 50.714C7.58521 50.3679 11.6625 50.3811 11.6625 50.3811V49.7154L11.9953 48.0511C11.9953 48.0511 11.2728 47.7641 10.9968 47.3854C10.7546 47.0532 10.4039 46.6468 10.6639 46.3868L11.3296 45.7211C11.5896 45.4611 13.3268 45.3882 13.3268 45.3882C13.3268 45.3882 13.1542 44.5682 12.9939 44.0568C12.7846 43.3888 11.8631 42.9157 12.3282 42.3925C12.5213 42.1752 12.7102 42.1226 12.9939 42.0596C13.5171 41.9433 14.3254 42.3925 14.3254 42.3925L14.6582 40.7282C14.6582 40.7282 14.9205 39.7229 14.9911 39.0639C15.0742 38.2883 15.104 37.8384 14.9911 37.0667C14.9135 36.5364 14.5193 36.2529 14.6582 35.7352C14.8011 35.2026 15.1241 34.8796 15.6568 34.7367C16.1745 34.5978 16.9882 35.0695 16.9882 35.0695L18.3197 31.7409L20.3168 26.748L22.314 22.7537C22.314 22.7537 21.3154 18.005 21.3154 17.0951V14.7651C21.3154 13.8551 21.7787 13.4562 22.314 12.7679C22.6526 12.3326 22.7808 11.9154 23.3126 11.7693C24.2916 11.5004 24.9769 13.7665 24.9769 13.7665L25.9755 17.0951C25.9755 17.0951 26.8246 15.957 26.974 15.0979C27.0631 14.5856 26.5581 14.0784 26.974 13.7665C27.286 13.5325 27.5964 13.6639 27.9726 13.7665C28.4248 13.8898 28.9712 14.4322 28.9712 14.4322L29.3041 12.435C29.3041 12.435 28.5061 12.1929 28.3055 11.7693C28.1385 11.4169 28.3339 11.1597 28.3055 10.7707C28.2571 10.1097 28.2045 9.72739 27.9726 9.10643C27.7075 8.39633 26.6881 8.14407 26.974 7.44212C27.1128 7.10163 27.2977 6.91116 27.6398 6.7764C28.1384 6.57996 28.471 6.91686 28.9712 7.10926C29.6787 7.38136 30.6355 8.10785 30.6355 8.10785C30.6355 8.10785 30.8107 7.86957 30.9684 7.77498C31.428 7.49923 32.2998 8.10785 32.2998 8.10785L30.9684 6.7764C30.9684 6.7764 29.8401 5.85889 29.9698 5.1121C30.05 4.65033 30.1851 4.24329 30.6355 4.11352C31.0305 3.99971 31.2262 4.3954 31.6341 4.44638C31.8921 4.47863 32.0402 4.43196 32.2998 4.44638C32.9616 4.48315 33.9641 4.77924 33.9641 4.77924C33.9641 4.77924 34.2414 4.04291 34.6298 3.78066C35.1229 3.44777 36.0792 4.09996 36.9599 4.44638C37.7713 4.76559 38.957 5.44496 38.957 5.44496C38.957 5.44496 39.7234 4.76758 40.2885 4.44638C40.897 4.10044 41.9528 3.78066 41.9528 3.78066C41.9528 3.78066 41.9793 3.05618 42.2856 2.78208C42.7796 2.34012 43.9499 3.11494 43.9499 3.11494C43.9499 3.11494 44.4822 2.49653 44.9485 2.44922C45.3575 2.40773 45.9471 2.78208 45.9471 2.78208C45.9471 2.78208 46.9282 2.11176 47.6114 1.7835C48.9473 1.14163 49.8141 1.04716 51.2728 0.78492C52.941 0.485033 53.9094 0.238278 55.6 0.11917C57.6788 -0.0272788 58.8489 -0.0517099 60.9258 0.119199C62.7807 0.271842 63.7853 0.646654 65.5858 1.11778C67.2963 1.56533 69.913 2.44922 69.913 2.44922C69.913 2.44922 71.582 2.1434 72.5759 2.44922C73.6447 2.77807 74.5731 3.4478 74.9059 4.11352C75.2388 4.77924 74.9059 5.12787 74.9059 5.77782C74.9059 5.77782 77.6276 7.49033 79.2331 8.77357C80.4558 9.75085 82.2288 11.4364 82.2288 11.4364C82.2288 11.4364 83.6026 11.1735 83.8931 11.7693C84.128 12.2511 83.5603 13.1007 83.5603 13.1007C83.5603 13.1007 84.6412 14.0548 85.2246 14.7651C85.8196 15.4894 86.556 16.7622 86.556 16.7622C86.556 16.7622 87.8875 17.0951 88.2203 17.4279C88.4042 17.6118 88.2767 17.8399 88.2203 18.0937C88.1573 18.3774 87.8875 18.7594 87.8875 18.7594L88.886 20.7565H89.8846C89.8846 20.7565 91.2161 20.8064 91.5489 21.4223C91.7962 21.8797 91.7074 22.2585 91.5489 22.7537C91.4061 23.2001 90.8832 23.7523 90.8832 23.7523C90.8832 23.7523 92.3973 26.5484 93.2132 28.4123C93.9392 30.0709 94.2474 31.0422 94.8775 32.7395C95.5501 34.5511 96.5418 37.3995 96.5418 37.3995H98.539C99.1203 37.3995 99.7294 37.5013 99.8704 38.0653C99.9701 38.4641 99.8282 38.7732 99.5376 39.0639C99.2047 39.3967 97.5404 40.3953 97.5404 40.3953C97.5404 40.3953 98.1926 41.7979 98.539 42.7253C99.245 44.6157 99.8704 47.7182 99.8704 47.7182L101.868 48.7168C101.868 48.7168 105.035 50.4699 104.863 51.0468C104.73 51.4961 104.198 52.0454 104.198 52.0454C104.198 52.0454 105.827 51.9758 106.195 52.7111C106.427 53.1762 106.343 53.5442 106.195 54.0426C105.876 55.1142 103.865 55.7069 103.865 55.7069C103.865 55.9668 104.049 56.1887 103.865 56.3726C103.532 56.7054 102.648 56.7783 101.868 57.0383V58.0369C101.868 58.0369 102.696 58.186 103.199 58.3697C103.745 58.569 104.198 58.7026 104.53 59.0355C104.806 59.3112 104.601 59.9833 104.53 60.3669C104.394 61.1124 103.532 61.6983 103.532 61.6983C103.922 62.7383 104.99 63.3501 104.53 64.3612C104.302 64.8633 103.922 64.9698 103.532 65.3598C103.532 65.3598 103.553 65.7664 103.532 66.0255C103.489 66.5598 103.199 67.357 103.199 67.357C103.199 67.357 103.004 71.4148 102.866 74.0142C102.742 76.3543 102.533 80.0057 102.533 80.0057C102.533 80.0057 103.175 80.1346 103.532 80.3385C104.346 80.8036 105.148 81.4424 104.863 82.3357C104.702 82.842 104.366 83.0398 103.916 83.3039L103.865 83.3343C103.183 83.7356 101.868 83.6671 101.868 83.6671C101.868 83.6671 101.891 84.6819 101.868 85.3314C101.784 87.702 100.869 91.3229 100.869 91.3229C100.869 91.3229 102.186 90.2594 103.199 89.9915C104.204 89.7256 105.529 89.3257 105.862 89.9915C106.195 90.6572 105.498 91.024 105.196 91.6558C104.668 92.7626 104.962 93.2787 103.532 94.3186L99.8704 96.9815C99.8704 96.9815 99.6996 98.2048 99.5376 98.9787C99.1754 100.709 98.2061 103.306 98.2061 103.306L96.8747 107.966L97.8733 108.632C97.8733 108.632 98.7405 109.418 98.539 109.963C98.3765 110.403 97.5404 110.629 97.5404 110.629L95.8761 110.962L95.5433 112.293C95.5433 112.293 95.7996 112.678 95.8761 112.959C95.9787 113.335 95.9414 113.573 95.8761 113.957C95.6755 115.139 93.8789 116.287 93.8789 116.287C93.8789 116.287 92.5986 119.998 91.5489 122.279C90.3084 124.974 87.8875 128.936 87.8875 128.936C87.8875 128.936 88.1288 130.548 87.5546 131.266C86.2232 132.93 81.5631 139.921 81.5631 139.921C81.5631 139.921 77.5656 146.652 75.5716 151.238C73.277 156.515 70.9116 165.218 70.9116 165.218C70.9116 165.218 69.2638 172.279 68.5816 176.868C67.0896 186.904 67.453 191.132 67.583 202.831Z" fill="#FF474D"/>
</svg>
