<svg width="63" height="47" viewBox="0 0 63 47" fill="none" xmlns="http://www.w3.org/2000/svg">
<path d="M55.8303 14.3806C53.9134 14.6295 52.5613 16.3853 52.8102 18.3022C53.0591 20.2191 54.8149 21.5712 56.7318 21.3223C58.6487 21.0734 60.0008 19.3176 59.7519 17.4007C59.503 15.4838 57.7473 14.1317 55.8303 14.3806Z" fill="#8E4DD5"/>
<path d="M22.6651 18.2542C21.5697 18.3965 20.7971 19.3998 20.9393 20.4951C21.0816 21.5905 22.0849 22.3632 23.1802 22.2209C24.2756 22.0787 25.0483 21.0754 24.906 19.98C24.7638 18.8847 23.7605 18.112 22.6651 18.2542Z" fill="#8E4DD5"/>
<path d="M26.5136 3.81028L32.79 5.55091L38.4137 2.26496L36.673 8.54137L39.959 14.165L33.6826 12.4248L28.0589 15.7104L29.7995 9.43395L26.5136 3.81028Z" fill="#FFCC00"/>
<path d="M4.00043 6.73491L8.57676 9.65344L13.8596 8.40747L10.941 12.9838L12.187 18.2666L7.61064 15.3484L2.32788 16.594L5.2464 12.0177L4.00043 6.73491Z" fill="#3897FF"/>
<path d="M3.55368 39.9838L7.35257 39.9234L9.95802 37.1582L10.0183 40.9572L12.7837 43.5625L8.98481 43.6229L6.37935 46.3882L6.31896 42.5894L3.55368 39.9838Z" fill="#00A98F"/>
</svg>
