<svg width="189" height="28" viewBox="0 0 189 28" fill="none" xmlns="http://www.w3.org/2000/svg">
<path d="M66.8148 27.4394H70.9575V14.5842H76.3767V11.3145H61.418V14.5842H66.8148V27.4394Z" fill="#C4C4C4"/>
<path d="M79.5401 22.8258H86.4559C86.8814 18.3019 84.6532 15.7716 81.2326 15.7936C78.0949 15.8138 75.8652 18.1675 75.8652 21.7732C75.8652 25.3789 77.2913 27.7081 81.3221 27.7081C84.4124 27.7081 85.3758 26.6874 86.1596 25.6124L84.7489 23.7675C84.413 24.0362 82.9044 25.0438 81.9275 24.9613C80.6811 24.856 79.6297 23.968 79.5401 22.8258ZM83.2297 20.8774H79.5401C79.6521 19.6233 80.2927 18.7752 81.3849 18.7752C82.4771 18.7752 83.2073 19.6457 83.2297 20.8774Z" fill="#C4C4C4"/>
<path d="M97.8793 25.3954L95.3421 23.4305C95.0734 23.8784 94.617 24.5272 93.4302 24.5272C93.058 24.5272 91.5854 24.5272 91.5854 21.7732C91.5854 19.0193 92.7791 18.7782 93.4302 18.7752C94.0812 18.7723 95.0734 19.5785 95.3421 20.0264L97.7708 18.3411C97.3367 17.4729 95.6158 15.7488 93.058 15.7488C90.5002 15.7488 88.2214 18.1675 88.2214 21.7732C88.2214 25.3789 90.8258 27.7977 93.058 27.7081C96.1931 27.7081 97.1197 26.8062 97.8793 25.3954Z" fill="#C4C4C4"/>
<path d="M99.3959 27.4394H103.36V21.6165C103.36 20.0488 103.496 18.7752 105.041 18.7752C106.564 18.7752 106.674 20.004 106.674 21.5717V27.4394L110.25 27.4841V21.6165C110.25 18.1451 110.189 15.7936 106.674 15.7936C104.748 15.7936 103.807 16.779 103.36 17.63V10.4186L99.3959 12.1551V27.4394Z" fill="#C4C4C4"/>
<path d="M127.239 23.7217L123.642 21.8404C123.217 22.5795 122.569 24.2229 120.821 24.2533C119.072 24.2837 117.891 21.8404 117.891 19.3993C117.891 16.9582 118.66 14.8835 120.821 14.8114C122.481 14.756 123.542 16.8941 123.968 17.6331L127.239 16.2863C126.388 13.9124 124.061 11.1531 120.821 11.013C116.546 10.8282 113.77 13.9572 113.77 19.3993C113.77 24.8414 116.499 27.9791 120.821 27.932C123.818 27.8994 126.388 26.0956 127.239 23.7217Z" fill="#909599"/>
<path d="M129.065 27.7081H133.029V22.0196C133.029 20.2055 134.24 18.7638 135.761 19.1082C136.435 19.2608 136.773 19.6951 137.207 20.1292L138.075 16.6564C137.627 16.522 136.634 16.0623 135.94 16.0623C134.104 16.0623 133.253 17.4061 133.029 17.9436V16.2863H129.065V27.7081Z" fill="#909599"/>
<path d="M147.427 27.7081H149.408H150.663V21.9972V16.2863H146.756V22.154C146.756 23.7217 146.587 24.9044 145.02 24.9044C143.497 24.9044 143.501 23.7217 143.501 22.154V16.2863H139.92V22.154C139.92 25.6253 140.597 27.932 144.112 27.932C146.038 27.932 146.979 26.9466 147.427 26.0956V27.7081Z" fill="#909599"/>
<path d="M153.711 27.7081H157.675V21.8852C157.675 20.3175 157.69 19.1082 159.235 19.1082C160.758 19.1082 160.989 20.2727 160.989 21.8404V27.7081H164.832V21.8404C164.832 18.3691 163.359 15.4626 159.995 16.1613C158.887 16.3915 158.123 17.0478 157.675 17.8988V16.2863H153.711V27.7081Z" fill="#909599"/>
<path d="M176.628 25.3954L174.091 23.4305C173.822 23.8784 173.365 24.5272 172.179 24.5272C171.806 24.5272 170.334 24.5272 170.334 21.7732C170.334 19.0193 171.528 18.7782 172.179 18.7752C172.83 18.7723 173.822 19.5785 174.091 20.0264L176.519 18.3411C176.085 17.4729 174.364 15.7488 171.806 15.7488C169.249 15.7488 166.97 18.1675 166.97 21.7732C166.97 25.3789 169.574 27.7977 171.806 27.7081C174.942 27.7081 175.868 26.8062 176.628 25.3954Z" fill="#909599"/>
<path d="M178.144 27.4393H182.108V21.6165C182.108 20.0488 182.245 18.7752 183.79 18.7752C185.313 18.7752 185.422 20.004 185.422 21.5717V27.4393L188.999 27.4841V21.6165C188.999 18.1451 188.938 15.7936 185.422 15.7936C183.496 15.7936 182.556 16.779 182.108 17.63V10.4186L178.144 12.1551V27.4393Z" fill="#909599"/>
<path d="M54.752 18.7304V28H27.4238V9.74744H18.1551V28H9.17311V9.74744H0V0H27.4238V9.74744H36.5969V0H54.752V9.74744H36.5969V18.7304H54.752Z" fill="#C4C4C4"/>
</svg>
