<svg width="203" height="40" viewBox="0 0 203 40" fill="none" xmlns="http://www.w3.org/2000/svg">
<path d="M65.9991 27.5631H70.2642V14.8924H76.5754V10.9155H59.9453V14.8924H65.9991V27.5631Z" fill="#C4C4C4"/>
<path d="M77.9717 27.5631H92.4709V23.6415H82.2738V21.2277H91.336V17.5911H82.2738V14.8924H92.3551V10.9155H77.9717V27.5631Z" fill="#C4C4C4"/>
<path d="M110.67 23.7535C111.04 22.9756 111.004 21.5746 111.004 21.5746H106.181C105.764 22.3607 104.681 24.3138 102.851 24.3138C100.628 24.3138 98.8853 22.1849 98.8853 19.2393C98.8853 16.2937 100.628 14.3418 102.851 14.3418C104.681 14.3418 105.764 16.0485 106.181 16.8346H111.004C111.004 16.8346 110.764 15.6146 110.446 14.8924C109.061 11.7523 106.928 10.4531 102.851 10.4531C97.4315 10.4531 93.7488 13.5514 93.7488 19.2393C93.7488 24.9272 97.4315 28.0255 102.851 28.0255C106.928 28.0255 109.66 25.8824 110.67 23.7535Z" fill="#C4C4C4"/>
<path d="M113.364 27.5631H118.437V20.5042H122.977V27.5631H128.068V10.9155H122.977V16.8346H118.437V10.9155H113.364V27.5631Z" fill="#C4C4C4"/>
<path d="M150.246 27.5631H154.808L155.691 24.3138H161.273L162.104 27.5631H166.803L160.549 10.9155H156.477L150.246 27.5631ZM157.054 20.7884L158.467 16.5341L159.88 20.7884H157.054Z" fill="#909599"/>
<path d="M166.557 24.0897C167.56 26.7772 169.313 28.0255 173.784 28.0255C178.671 28.0255 180.199 25.7365 180.199 22.5919C180.199 19.2393 177.241 17.8348 173.165 17.2568C172.133 17.0404 170.956 16.5341 171.342 15.2666C171.554 14.5702 172.439 14.0056 173.373 14.0056C174.884 14.0056 175.891 15.4705 176.285 15.9792L179.598 15.9389C179.598 15.9389 179.411 13.7091 178.363 12.6611C176.879 11.1753 175.875 10.7553 173.373 10.6443C169.848 10.4878 166.617 12.4647 166.617 15.7248C166.617 18.1988 167.821 20.2566 172.963 21.2509C175.117 21.6671 175.782 22.2682 175.557 23.1933C175.364 23.9886 174.965 24.3138 173.784 24.3138C171.954 24.3138 170.981 22.6382 170.703 22.2682H166.129C166.129 22.2682 166.323 23.462 166.557 24.0897Z" fill="#909599"/>
<path d="M181.39 27.5631H186.445L186.22 10.9155H181.39V27.5631Z" fill="#909599"/>
<path d="M186.445 27.5631H191.006L191.889 24.3138H197.471L198.302 27.5631H203.001L196.747 10.9155H192.675L186.445 27.5631ZM193.253 20.7884L194.666 16.5341L196.078 20.7884H193.253Z" fill="#909599"/>
<path d="M130 27.6283V10.9807H131.575V27.6283H130Z" fill="#909599"/>
<path d="M137.466 13.1079H137.419V27.6283H135.844V10.9807H137.628L147.263 25.5242H147.309V10.9807H148.884V27.6283H147.054L137.466 13.1079Z" fill="#909599"/>
<path d="M38.0492 15.1261L41.9776 17.2549L38.6104 11.4286L21.4377 40L15.1523 28.9076V20.2801L0 7.17087H24.0193L30.5291 10.7563L27.7232 15.3501L22.6724 12.7731H15.7135L21.101 17.591V28.9076L38.6104 0L57.2421 32.493L35.0187 19.8319L38.0492 15.1261Z" fill="#C4C4C4"/>
</svg>
