<svg width="61" height="20" viewBox="0 0 61 20" fill="none" xmlns="http://www.w3.org/2000/svg">
<path d="M8.68311 5.98193V8.19579H5.39573V15.3381C5.39573 15.9882 5.51107 16.4538 5.74177 16.7349C5.98894 16.9985 6.35969 17.1391 6.85404 17.1566C7.34838 17.1566 7.95807 17.1391 8.68311 17.1039V19.1596C6.78813 19.4232 5.40396 19.2563 4.53063 18.6589C3.67377 18.0615 3.24534 16.9546 3.24534 15.3381V8.19579H0.79834V5.98193H3.24534V2.97741L5.39573 2.29217V5.98193H8.68311Z" fill="#3E3E3E"/>
<path d="M12.3165 3.58358C11.9046 3.58358 11.5585 3.43424 11.2784 3.13554C10.9983 2.83685 10.8582 2.47666 10.8582 2.05497C10.8582 1.63328 10.9983 1.27309 11.2784 0.974396C11.5585 0.658132 11.9046 0.5 12.3165 0.5C12.712 0.5 13.0498 0.658132 13.3299 0.974396C13.6101 1.27309 13.7501 1.63328 13.7501 2.05497C13.7501 2.47666 13.6101 2.83685 13.3299 3.13554C13.0498 3.43424 12.712 3.58358 12.3165 3.58358ZM13.3794 19.1596H11.229V5.98193H13.3794V19.1596Z" fill="#3E3E3E"/>
<path d="M22.8145 5.63931C24.2646 5.63931 25.4263 6.13128 26.2997 7.11521C27.173 8.08158 27.6097 9.39935 27.6097 11.0685V19.1596H25.4593V11.2003C25.4593 10.1461 25.1874 9.32028 24.6436 8.72289C24.0998 8.1255 23.3501 7.82681 22.3944 7.82681C21.2903 7.82681 20.417 8.19579 19.7743 8.93374C19.1317 9.65412 18.8104 10.7347 18.8104 12.1755V19.1596H16.66V5.98193H18.8104V7.87952C19.6672 6.38605 21.002 5.63931 22.8145 5.63931Z" fill="#3E3E3E"/>
<path d="M35.2131 16.7086L39.0937 5.98193H41.4171L36.4737 19.1596H33.9525L29.0091 5.98193H31.3325L35.2131 16.7086Z" fill="#3E3E3E"/>
<path d="M44.3233 3.58358C43.9113 3.58358 43.5653 3.43424 43.2852 3.13554C43.005 2.83685 42.865 2.47666 42.865 2.05497C42.865 1.63328 43.005 1.27309 43.2852 0.974396C43.5653 0.658132 43.9113 0.5 44.3233 0.5C44.7188 0.5 45.0565 0.658132 45.3367 0.974396C45.6168 1.27309 45.7569 1.63328 45.7569 2.05497C45.7569 2.47666 45.6168 2.83685 45.3367 3.13554C45.0565 3.43424 44.7188 3.58358 44.3233 3.58358ZM45.3861 19.1596H43.2357V5.98193H45.3861V19.1596Z" fill="#3E3E3E"/>
<path d="M59.0974 17.4993C57.845 18.8346 56.3043 19.5023 54.4753 19.5023C52.6462 19.5023 51.1055 18.8346 49.8532 17.4993C48.6008 16.1639 47.9747 14.5211 47.9747 12.5708C47.9747 10.6205 48.6008 8.97766 49.8532 7.64232C51.1055 6.30698 52.6462 5.63931 54.4753 5.63931C56.3043 5.63931 57.845 6.30698 59.0974 7.64232C60.3662 8.99523 61.0006 10.6381 61.0006 12.5708C61.0006 14.5035 60.3662 16.1463 59.0974 17.4993ZM54.4753 17.2621C55.7111 17.2621 56.7492 16.814 57.5896 15.9179C58.43 15.0218 58.8502 13.9061 58.8502 12.5708C58.8502 11.2354 58.43 10.1197 57.5896 9.22365C56.7492 8.32756 55.7111 7.87952 54.4753 7.87952C53.2559 7.87952 52.226 8.32756 51.3856 9.22365C50.5452 10.1197 50.125 11.2354 50.125 12.5708C50.125 13.9061 50.5452 15.0218 51.3856 15.9179C52.226 16.814 53.2559 17.2621 54.4753 17.2621Z" fill="#3E3E3E"/>
<path d="M35.2131 16.7086L39.0937 5.98193H41.4171L36.4737 19.1596H33.9525L29.0091 5.98193H31.3325L35.2131 16.7086Z" fill="#212121"/>
<path d="M44.3233 3.58359C43.9113 3.58359 43.5653 3.43424 43.2852 3.13554C43.005 2.83685 42.865 2.47666 42.865 2.05497C42.865 1.63328 43.005 1.27309 43.2852 0.974396C43.5653 0.658132 43.9113 0.5 44.3233 0.5C44.7188 0.5 45.0565 0.658132 45.3367 0.974396C45.6168 1.27309 45.7569 1.63328 45.7569 2.05497C45.7569 2.47666 45.6168 2.83685 45.3367 3.13554C45.0565 3.43424 44.7188 3.58359 44.3233 3.58359ZM45.3861 19.1596H43.2357V5.98193H45.3861V19.1596Z" fill="#212121"/>
<path d="M59.0974 17.4993C57.845 18.8346 56.3043 19.5023 54.4753 19.5023C52.6462 19.5023 51.1055 18.8346 49.8532 17.4993C48.6008 16.1639 47.9747 14.5211 47.9747 12.5708C47.9747 10.6205 48.6008 8.97766 49.8532 7.64232C51.1055 6.30698 52.6462 5.63931 54.4753 5.63931C56.3043 5.63931 57.845 6.30698 59.0974 7.64232C60.3662 8.99523 61.0006 10.6381 61.0006 12.5708C61.0006 14.5035 60.3662 16.1463 59.0974 17.4993ZM54.4753 17.2621C55.7111 17.2621 56.7492 16.814 57.5896 15.9179C58.43 15.0218 58.8502 13.9061 58.8502 12.5708C58.8502 11.2354 58.43 10.1197 57.5896 9.22365C56.7492 8.32756 55.7111 7.87952 54.4753 7.87952C53.2559 7.87952 52.226 8.32756 51.3856 9.22365C50.5452 10.1197 50.125 11.2354 50.125 12.5708C50.125 13.9061 50.5452 15.0218 51.3856 15.9179C52.226 16.814 53.2559 17.2621 54.4753 17.2621Z" fill="#212121"/>
<ellipse cx="44.4369" cy="2.14721" rx="1.54482" ry="1.64721" fill="#D61414"/>
<ellipse cx="12.3861" cy="2.14721" rx="1.54482" ry="1.64721" fill="#FF474D"/>
</svg>
