<svg width="169" height="20" viewBox="0 0 169 20" fill="none" xmlns="http://www.w3.org/2000/svg">
<path d="M9.90568 15.3413L12.3749 4.75868H10.8819V0.876452H19.0361V4.75868H17.7154L13.6957 19.5686H5.11076L1.32076 4.75868H0V0.876452H8.61364V4.75868H7.09189L9.38886 15.3413H9.90568Z" fill="#C4C4C4"/>
<path d="M33.0328 14.3061C33.0328 15.0729 32.9276 15.8014 32.717 16.4916C32.5256 17.1818 32.1523 17.7857 31.5972 18.3033C31.0613 18.821 30.3243 19.2331 29.3864 19.5399C28.4485 19.8466 27.2521 20 25.7974 20C24.7446 20 23.7971 19.885 22.9549 19.6549C22.1127 19.444 21.3949 19.051 20.8015 18.4759C20.2081 17.9007 19.7487 17.1243 19.4233 16.1465C19.0979 15.1496 18.9352 13.8843 18.9352 12.3506C18.9352 10.9127 19.0883 9.70492 19.3946 8.72717C19.72 7.73026 20.189 6.92505 20.8015 6.31156C21.4331 5.69808 22.1988 5.25713 23.0985 4.98873C24.0172 4.70116 25.07 4.55738 26.2568 4.55738C27.5201 4.55738 28.5825 4.70116 29.4438 4.98873C30.3052 5.25713 30.9943 5.66932 31.5111 6.22529C32.0471 6.7621 32.4299 7.44268 32.6596 8.26706C32.9084 9.07226 33.0328 10.0021 33.0328 11.0565V13.1558H24.2757C24.2757 13.8076 24.3044 14.3348 24.3618 14.7374C24.4384 15.1209 24.5532 15.418 24.7063 15.6289C24.8786 15.8206 25.0987 15.9548 25.3667 16.0315C25.6347 16.089 25.9792 16.1178 26.4003 16.1178C27.1086 16.1178 27.6063 15.9548 27.8934 15.6289C28.1805 15.303 28.3241 14.862 28.3241 14.3061H33.0328ZM26.2568 8.38208C25.874 8.38208 25.5581 8.41084 25.3093 8.46836C25.0604 8.52587 24.8595 8.6409 24.7063 8.81344C24.5532 8.96682 24.4384 9.18729 24.3618 9.47486C24.3044 9.74326 24.2757 10.0979 24.2757 10.5389H28.2092C28.2092 10.0979 28.1805 9.74326 28.1231 9.47486C28.0656 9.18729 27.9604 8.96682 27.8072 8.81344C27.6733 8.6409 27.4818 8.52587 27.233 8.46836C26.9842 8.41084 26.6588 8.38208 26.2568 8.38208Z" fill="#C4C4C4"/>
<path d="M40.5525 7.54813C40.9353 6.51287 41.5287 5.75559 42.3327 5.27631C43.1366 4.79702 44.132 4.55738 45.3187 4.55738C45.9695 4.55738 46.5629 4.63406 47.0989 4.78743C47.654 4.9408 48.1325 5.20921 48.5345 5.59264C48.9364 5.95689 49.2427 6.45535 49.4533 7.08801C49.683 7.7015 49.7978 8.47794 49.7978 9.41734V15.7152H51.176V19.5686H43.5099V15.7152H44.6583V10.8264C44.6583 10.1746 44.5435 9.70492 44.3138 9.41734C44.0841 9.12977 43.663 8.98599 43.0505 8.98599C42.4954 8.98599 42.036 9.14894 41.6723 9.47486C41.3086 9.80077 41.1267 10.3663 41.1267 11.1715V15.7152H42.2752V19.5686H34.6091V15.7152H35.9873V8.8422H34.7239V4.98873H40.5525V7.54813Z" fill="#C4C4C4"/>
<path d="M53.0878 4.98873V1.70552L58.2273 0V4.98873H60.9837V8.8422H58.2273V14.5936C58.2273 15.0346 58.3039 15.3509 58.457 15.5426C58.6293 15.7343 58.9451 15.8302 59.4045 15.8302C59.6533 15.8302 59.9596 15.8206 60.3233 15.8014C60.7061 15.7631 61.0602 15.7152 61.3856 15.6577V19.4824C61.0602 19.5591 60.5434 19.6357 59.8352 19.7124C59.1461 19.8083 58.4283 19.8562 57.6818 19.8562C56.763 19.8562 56.0069 19.7795 55.4135 19.6262C54.8201 19.492 54.3512 19.2427 54.0066 18.8785C53.6621 18.495 53.4228 17.9678 53.2888 17.2968C53.1548 16.6258 53.0878 15.7631 53.0878 14.7087V8.8422H51.7096V4.98873H53.0878Z" fill="#C4C4C4"/>
<path d="M68.4789 4.98873V14.8525C68.4789 15.6385 68.8425 16.0315 69.5699 16.0315C70.3356 16.0315 70.862 15.8685 71.1491 15.5426C71.4553 15.2167 71.6085 14.7758 71.6085 14.2198V8.8422H70.058V4.98873H76.7479V14.9387C76.7479 15.2646 76.7862 15.4755 76.8628 15.5714C76.9585 15.6672 77.1595 15.7152 77.4658 15.7152H78.1261V19.5686H74.7094C73.9054 19.5686 73.2833 19.4057 72.8431 19.0798C72.422 18.7347 72.2019 18.1116 72.1827 17.2105C71.8382 18.0541 71.2831 18.7347 70.5174 19.2523C69.7709 19.7508 68.7564 20 67.4739 20C66.8423 20 66.268 19.9233 65.7512 19.7699C65.2535 19.6357 64.8228 19.4057 64.4592 19.0798C64.1146 18.7347 63.8371 18.2842 63.6265 17.7282C63.4351 17.153 63.3394 16.4341 63.3394 15.5714V8.8422H61.9899V4.98873H68.4789Z" fill="#C4C4C4"/>
<path d="M80.7378 15.7152V8.8422H79.4745V4.98873H85.8773V7.08801C86.1644 6.18695 86.6142 5.54471 87.2267 5.16128C87.8393 4.75868 88.6911 4.55738 89.7821 4.55738C90.2415 4.55738 90.7009 4.59572 91.1603 4.6724C91.6197 4.74909 91.9834 4.83536 92.2514 4.93122V10.8264H88.3465V9.07226C88.2891 9.05309 88.1934 9.03391 88.0594 9.01474C87.9445 8.9764 87.7818 8.95723 87.5713 8.95723C87.3607 8.95723 87.1502 8.98599 86.9396 9.0435C86.7482 9.10102 86.5759 9.22563 86.4228 9.41734C86.2697 9.60906 86.1357 9.88704 86.0208 10.2513C85.9251 10.5964 85.8773 11.0661 85.8773 11.6604V15.7152H87.8297V19.5686H79.3596V15.7152H80.7378Z" fill="#C4C4C4"/>
<path d="M107.645 14.3061C107.645 15.0729 107.54 15.8014 107.329 16.4916C107.138 17.1818 106.765 17.7857 106.209 18.3033C105.674 18.821 104.937 19.2331 103.999 19.5399C103.061 19.8466 101.864 20 100.41 20C99.3569 20 98.4094 19.885 97.5672 19.6549C96.7249 19.444 96.0071 19.051 95.4137 18.4759C94.8204 17.9007 94.361 17.1243 94.0356 16.1465C93.7102 15.1496 93.5474 13.8843 93.5474 12.3506C93.5474 10.9127 93.7006 9.70492 94.0068 8.72717C94.3322 7.73026 94.8012 6.92505 95.4137 6.31156C96.0454 5.69808 96.8111 5.25713 97.7107 4.98873C98.6295 4.70116 99.6823 4.55738 100.869 4.55738C102.132 4.55738 103.195 4.70116 104.056 4.98873C104.917 5.25713 105.607 5.66932 106.123 6.22529C106.659 6.7621 107.042 7.44268 107.272 8.26706C107.521 9.07226 107.645 10.0021 107.645 11.0565V13.1558H98.8879C98.8879 13.8076 98.9166 14.3348 98.974 14.7374C99.0506 15.1209 99.1655 15.418 99.3186 15.6289C99.4909 15.8206 99.711 15.9548 99.979 16.0315C100.247 16.089 100.591 16.1178 101.013 16.1178C101.721 16.1178 102.219 15.9548 102.506 15.6289C102.793 15.303 102.936 14.862 102.936 14.3061H107.645ZM100.869 8.38208C100.486 8.38208 100.17 8.41084 99.9215 8.46836C99.6727 8.52587 99.4717 8.6409 99.3186 8.81344C99.1655 8.96682 99.0506 9.18729 98.974 9.47486C98.9166 9.74326 98.8879 10.0979 98.8879 10.5389H102.821C102.821 10.0979 102.793 9.74326 102.735 9.47486C102.678 9.18729 102.573 8.96682 102.419 8.81344C102.286 8.6409 102.094 8.52587 101.845 8.46836C101.596 8.41084 101.271 8.38208 100.869 8.38208Z" fill="#C4C4C4"/>
<path d="M120.276 0.876452C121.099 0.876452 121.826 0.953138 122.458 1.10651C123.108 1.25988 123.654 1.52828 124.094 1.91171C124.534 2.27597 124.86 2.77443 125.07 3.40709C125.3 4.02057 125.415 4.79702 125.415 5.73642C125.415 6.79085 125.252 7.62481 124.927 8.2383C124.601 8.85179 124.133 9.30232 123.52 9.58989C124.592 9.87746 125.338 10.4047 125.76 11.1715C126.2 11.9192 126.42 12.9257 126.42 14.191C126.42 15.2455 126.276 16.1178 125.989 16.8079C125.702 17.4981 125.271 18.0541 124.697 18.4759C124.123 18.8785 123.396 19.166 122.515 19.3386C121.654 19.492 120.639 19.5686 119.472 19.5686H109.365V15.6864H110.887V4.75868H109.365V0.876452H120.276ZM116.256 11.7754V15.6864H119.242C119.452 15.6864 119.644 15.6672 119.816 15.6289C119.988 15.5714 120.142 15.4755 120.276 15.3413C120.41 15.188 120.505 14.9867 120.563 14.7374C120.639 14.469 120.677 14.1239 120.677 13.7022C120.677 13.0503 120.591 12.5711 120.419 12.2643C120.247 11.9384 119.835 11.7754 119.184 11.7754H116.256ZM116.256 8.00824H118.696C119.117 8.00824 119.405 7.87404 119.558 7.60564C119.711 7.31807 119.787 6.87712 119.787 6.28281C119.787 5.76518 119.711 5.38175 119.558 5.13252C119.424 4.88329 119.137 4.75868 118.696 4.75868H116.256V8.00824Z" fill="#909599"/>
<path d="M141.965 14.3061C141.965 15.0729 141.86 15.8014 141.649 16.4916C141.458 17.1818 141.085 17.7857 140.529 18.3033C139.993 18.821 139.257 19.2331 138.319 19.5399C137.381 19.8466 136.184 20 134.73 20C133.677 20 132.729 19.885 131.887 19.6549C131.045 19.444 130.327 19.051 129.734 18.4759C129.14 17.9007 128.681 17.1243 128.356 16.1465C128.03 15.1496 127.867 13.8843 127.867 12.3506C127.867 10.9127 128.021 9.70492 128.327 8.72717C128.652 7.73026 129.121 6.92505 129.734 6.31156C130.365 5.69808 131.131 5.25713 132.031 4.98873C132.949 4.70116 134.002 4.55738 135.189 4.55738C136.452 4.55738 137.515 4.70116 138.376 4.98873C139.237 5.25713 139.927 5.66932 140.443 6.22529C140.979 6.7621 141.362 7.44268 141.592 8.26706C141.841 9.07226 141.965 10.0021 141.965 11.0565V13.1558H133.208C133.208 13.8076 133.237 14.3348 133.294 14.7374C133.371 15.1209 133.485 15.418 133.639 15.6289C133.811 15.8206 134.031 15.9548 134.299 16.0315C134.567 16.089 134.911 16.1178 135.333 16.1178C136.041 16.1178 136.538 15.9548 136.826 15.6289C137.113 15.303 137.256 14.862 137.256 14.3061H141.965ZM135.189 8.38208C134.806 8.38208 134.49 8.41084 134.242 8.46836C133.993 8.52587 133.792 8.6409 133.639 8.81344C133.485 8.96682 133.371 9.18729 133.294 9.47486C133.237 9.74326 133.208 10.0979 133.208 10.5389H137.141C137.141 10.0979 137.113 9.74326 137.055 9.47486C136.998 9.18729 136.893 8.96682 136.739 8.81344C136.605 8.6409 136.414 8.52587 136.165 8.46836C135.916 8.41084 135.591 8.38208 135.189 8.38208Z" fill="#909599"/>
<path d="M154.825 19.5686C154.117 19.5686 152.553 19.5686 152.553 19.5686V17.6836C152.553 17.6836 151.466 19.0702 150.719 19.4536C149.973 19.8179 148.968 20 147.705 20C146.231 20 145.168 19.6357 144.518 18.9072C143.867 18.1787 143.541 17.0955 143.541 15.6577C143.541 14.7566 143.637 13.9897 143.828 13.3571C144.039 12.7053 144.364 12.178 144.805 11.7754C145.264 11.3728 145.857 11.0853 146.585 10.9127C147.312 10.721 148.212 10.6251 149.284 10.6251H151.724V9.53237C151.724 9.14894 151.629 8.89013 151.437 8.75593C151.246 8.60256 150.697 8.35718 150.26 8.52587C150.04 8.61084 149.936 8.69808 149.775 8.88667C149.571 9.125 149.554 9.58989 149.554 9.58989H144.308C144.308 9.58989 144.443 7.63285 145.115 6.73233C145.921 5.65015 146.612 5.12444 147.893 4.81619C148.968 4.55738 149.542 4.55738 150.748 4.55738C151.897 4.55738 152.854 4.64365 153.619 4.81619C154.404 4.98873 155.036 5.26672 155.514 5.65015C155.993 6.01441 156.337 6.50328 156.548 7.11677C156.758 7.71108 156.864 8.44919 156.864 9.33107V14.9387C156.864 15.2646 156.855 15.7088 156.855 15.7088C156.855 15.7088 157.275 15.7152 157.582 15.7152H158.242V19.5686H154.825ZM149.801 16.0315C150.413 16.0315 150.882 15.8781 151.207 15.5714C151.552 15.2646 151.724 14.91 151.724 14.5074V13.3283H150.576C150.136 13.3283 149.791 13.3667 149.542 13.4434C149.312 13.52 149.131 13.6255 148.997 13.7597C148.863 13.8939 148.776 14.0568 148.738 14.2486C148.719 14.4211 148.709 14.6128 148.709 14.8237C148.709 15.2838 148.796 15.6001 148.968 15.7727C149.14 15.9452 149.418 16.0315 149.801 16.0315Z" fill="#909599"/>
<path d="M160.702 4.98873V1.52599L165.842 0V4.98873H168.598V8.8422H165.842V14.5936C165.842 15.0346 165.918 15.3509 166.071 15.5426C166.244 15.7343 166.559 15.8302 167.019 15.8302C167.268 15.8302 167.574 15.8206 167.938 15.8014C168.32 15.7631 168.675 15.7152 169 15.6577V19.4824C168.675 19.5591 168.158 19.6357 167.45 19.7124C166.76 19.8083 166.043 19.8562 165.296 19.8562C164.377 19.8562 163.621 19.7795 163.028 19.6262C162.434 19.492 161.966 19.2427 161.621 18.8785C161.276 18.495 161.037 17.9678 160.903 17.2968C160.769 16.6258 160.702 15.7631 160.702 14.7087V8.8422H159.324V4.98873H160.702Z" fill="#909599"/>
</svg>
