<svg width="342" height="655" viewBox="0 0 342 655" fill="none" xmlns="http://www.w3.org/2000/svg">
<path d="M305.787 426.694C305.725 428.349 304.332 429.641 302.677 429.578C301.021 429.516 299.729 428.123 299.791 426.467C299.853 424.812 301.245 423.52 302.901 423.583C304.557 423.645 305.849 425.038 305.787 426.694Z" fill="#3897FF"/>
<path d="M285.032 341.53C284.929 344.29 282.608 346.442 279.849 346.338C277.089 346.234 274.936 343.913 275.039 341.153C275.142 338.394 277.463 336.241 280.222 336.345C282.982 336.449 285.135 338.771 285.032 341.53Z" fill="#8E4DD5"/>
<path d="M279.236 261.2C279.153 263.407 277.297 265.129 275.089 265.046C272.881 264.963 271.159 263.106 271.241 260.898C271.324 258.691 273.18 256.968 275.388 257.052C277.596 257.135 279.318 258.992 279.236 261.2Z" fill="#00A98F"/>
<path d="M165.604 23.8639C165.079 25.4353 163.38 26.2799 161.811 25.7504C160.241 25.2208 159.394 23.5177 159.919 21.9463C160.444 20.3749 162.143 19.5303 163.713 20.0598C165.282 20.5893 166.129 22.2925 165.604 23.8639Z" fill="#00A98F"/>
<path d="M204.602 2.54382C204.321 3.38432 203.415 3.8369 202.578 3.55469C201.742 3.27249 201.291 2.36235 201.572 1.52185C201.853 0.681356 202.759 0.228774 203.596 0.510981C204.432 0.793188 204.883 1.70332 204.602 2.54382Z" fill="#00A98F"/>
<path d="M202.929 35.3506C202.071 37.9173 199.254 39.2826 196.638 38.4001C194.021 37.5176 192.595 34.7214 193.453 32.1546C194.311 29.5879 197.128 28.2226 199.744 29.1052C202.361 29.9877 203.787 32.7839 202.929 35.3506Z" fill="#8E4DD5"/>
<path d="M50.8091 30.7332C49.9512 33.2999 47.1844 34.6821 44.6293 33.8202C42.0742 32.9584 40.6983 30.1791 41.5562 27.6124C42.4142 25.0456 45.1809 23.6635 47.736 24.5253C50.2912 25.3871 51.667 28.1665 50.8091 30.7332Z" fill="#3897FF"/>
<path d="M91.0616 27.9808L88.6282 21.2555L91.7297 14.8265L85.0359 17.2539L78.6248 14.1249L81.0581 20.8502L77.9566 27.2792L84.65 24.8522L91.0616 27.9808Z" fill="#FFCC00"/>
<path d="M219.365 69.1839L219.854 65.4123L222.892 63.1376L219.129 62.6426L216.856 59.5937L216.367 63.3652L213.328 65.64L217.091 66.1351L219.365 69.1839Z" fill="#FFCC00"/>
<path d="M337.719 654.078L338.207 650.306L341.246 648.031L337.482 647.536L335.209 644.487L334.72 648.259L331.682 650.534L335.445 651.029L337.719 654.078Z" fill="#FFCC00"/>
<path d="M239.579 26.7273L239.928 24.0334L242.099 22.4085L239.411 22.055L237.787 19.8772L237.438 22.5712L235.267 24.196L237.955 24.5496L239.579 26.7273Z" fill="#8E4DD5"/>
<path d="M4.66897 34.8069L5.05204 31.8813L7.40711 30.1134L4.49421 29.7341L2.73804 27.3724L2.35497 30.298L-0.000101048 32.0659L2.91258 32.4452L4.66897 34.8069Z" fill="#00A98F"/>
<path d="M253.735 186L256.006 179.456L243.215 182.868L241.3 189.697L253.735 186Z" fill="#00A98F"/>
<path d="M315.267 527.579L319.703 526.474L313.418 520.654L308.944 522.058L315.267 527.579Z" fill="#00A98F"/>
<path d="M251.23 96.6255L245.504 96.8459L251.863 105.703L257.706 105.122L251.23 96.6255Z" fill="#3897FF"/>
</svg>
